# Blender v2.79 (sub 0) OBJ File: '205_1.blend'
# www.blender.org
mtllib 205_1.mtl
o NurbsPath
v -2.000000 0.000000 0.000000
v -1.914894 0.000000 0.000000
v -1.829787 0.000000 0.000000
v -1.744681 0.000000 0.000000
v -1.659575 0.000000 0.000000
v -1.574468 0.000000 0.000000
v -1.489362 0.000000 0.000000
v -1.404256 0.000000 0.000000
v -1.319149 0.000000 0.000000
v -1.234043 0.000000 0.000000
v -1.148936 0.000000 0.000000
v -1.063830 0.000000 0.000000
v -0.978724 0.000000 0.000000
v -0.893617 0.000000 0.000000
v -0.808511 0.000000 0.000000
v -0.723404 0.000000 0.000000
v -0.638298 0.000000 0.000000
v -0.553192 0.000000 0.000000
v -0.468085 0.000000 0.000000
v -0.382979 0.000000 0.000000
v -0.297873 0.000000 0.000000
v -0.212766 0.000000 0.000000
v -0.127660 0.000000 0.000000
v -0.042553 0.000000 0.000000
v 0.042553 0.000000 0.000000
v 0.127660 0.000000 0.000000
v 0.212766 0.000000 0.000000
v 0.297872 0.000000 0.000000
v 0.382979 0.000000 0.000000
v 0.468085 0.000000 0.000000
v 0.553191 0.000000 0.000000
v 0.638298 0.000000 0.000000
v 0.723404 0.000000 0.000000
v 0.808511 0.000000 0.000000
v 0.893617 0.000000 0.000000
v 0.978723 0.000000 0.000000
v 1.063830 0.000000 0.000000
v 1.148936 0.000000 0.000000
v 1.234042 0.000000 0.000000
v 1.319149 0.000000 0.000000
v 1.404255 0.000000 0.000000
v 1.489361 0.000000 0.000000
v 1.574468 0.000000 0.000000
v 1.659574 0.000000 0.000000
v 1.744681 0.000000 0.000000
v 1.829787 0.000000 0.000000
v 1.914893 0.000000 0.000000
v 2.000000 0.000000 0.000000
l 1 2
l 2 3
l 3 4
l 4 5
l 5 6
l 6 7
l 7 8
l 8 9
l 9 10
l 10 11
l 11 12
l 12 13
l 13 14
l 14 15
l 15 16
l 16 17
l 17 18
l 18 19
l 19 20
l 20 21
l 21 22
l 22 23
l 23 24
l 24 25
l 25 26
l 26 27
l 27 28
l 28 29
l 29 30
l 30 31
l 31 32
l 32 33
l 33 34
l 34 35
l 35 36
l 36 37
l 37 38
l 38 39
l 39 40
l 40 41
l 41 42
l 42 43
l 43 44
l 44 45
l 45 46
l 46 47
l 47 48
o Cube
v 1.000000 0.000000 -1.000000
v 1.000000 0.000000 -0.000000
v 0.000000 0.000000 -0.000000
v 0.000000 0.000000 -1.000000
v 1.000000 1.000000 -1.000000
v 1.000000 1.000000 0.000000
v 0.000000 1.000000 -0.000000
v 0.500000 0.500000 -0.500000
v 0.000000 1.000000 -0.500000
v 0.500000 1.000000 -1.000000
v 0.000000 0.500000 -1.000000
v 0.000000 0.500000 -0.500000
v 0.500000 0.500000 -1.000000
v 0.500000 1.000000 -0.500000
v 0.000000 1.000000 -1.000000
vn 0.0000 -1.0000 0.0000
vn 1.0000 0.0000 0.0000
vn -0.0000 -0.0000 1.0000
vn -1.0000 -0.0000 -0.0000
vn 0.0000 1.0000 0.0000
vn 0.0000 -0.0000 -1.0000
vn 0.5773 -0.5774 0.5774
usemtl Material
s off
f 49//1 50//1 51//1 52//1
f 49//2 53//2 54//2 50//2
f 50//3 54//3 55//3 51//3
f 52//4 51//4 55//4 57//4 60//4 59//4
f 59//5 60//5 56//5 61//5
f 57//6 62//6 56//6 60//6
f 58//4 61//4 56//4 62//4
f 52//6 59//6 61//6 58//6 53//6 49//6
f 53//5 58//5 62//5 57//5 55//5 54//5
f 58//7 57//7 59//7
f 59//4 57//4 63//4
f 59//6 63//6 58//6
f 63//5 57//5 58//5
