ply
format ascii 1.0
comment VCGLIB generated
element vertex 16
property float x
property float y
property float z
element face 28
property list uchar int vertex_indices
end_header
0 0 0 
1 0 0 
1 1 0 
0 1 0 
0 0 1 
1 0 1 
1 1 1 
0 1 1 
0.2 0.2 0.5 
0.8 0.2 0.5 
0.8 0.8 0.5 
0.2 0.8 0.5 
0.2 0.2 1 
0.8 0.2 1 
0.8 0.8 1 
0.2 0.8 1 
3 14 5 6 
3 13 4 5 
3 7 15 6 
3 7 4 15 
3 15 14 6 
3 12 4 13 
3 14 13 5 
3 15 4 12 
3 0 3 2 
3 1 0 2 
3 0 1 5 
3 4 0 5 
3 1 2 6 
3 5 1 6 
3 2 3 7 
3 6 2 7 
3 3 0 4 
3 7 3 4 
3 11 10 14 
3 15 11 14 
3 8 11 15 
3 12 8 15 
3 9 8 12 
3 13 9 12 
3 10 9 13 
3 14 10 13 
3 8 9 10 
3 11 8 10 
