<?xml version="1.0" encoding="UTF-8" standalone="no"?><!DOCTYPE svg PUBLIC "-//W3C//DTD SVG 1.1//EN" "http://www.w3.org/Graphics/SVG/1.1/DTD/svg11.dtd"><svg width="100%" height="100%" viewBox="0 0 273 274" version="1.1" xmlns="http://www.w3.org/2000/svg" xmlns:xlink="http://www.w3.org/1999/xlink" xml:space="preserve" style="fill-rule:evenodd;clip-rule:evenodd;stroke-linejoin:round;stroke-miterlimit:10;"><g id="Trim"><g><text x="84.222px" y="70.72px" style="font-family:'GTPressuraMono-Light', 'GT Pressura Mono';font-weight:300;font-size:9.963px;">L<tspan x="89.401px 94.581px 99.76px 104.94px 110.119px 115.299px 120.478px 125.657px 130.837px " y="70.72px 70.72px 70.72px 70.72px 70.72px 70.72px 70.72px 70.72px 70.72px ">inearRing</tspan></text><path d="M108.85,7.404l-14.709,20.075l0.597,19.478l15.702,2.783l20.075,-5.764l-21.864,-5.963l9.938,-10.534l4.969,-14.708l-14.708,-5.367Z" style="fill:none;stroke:#000;stroke-width:1.2px;"/><path d="M110.65,7.404c0,-0.994 -0.806,-1.8 -1.8,-1.8c-0.995,0 -1.8,0.806 -1.8,1.8c0,0.994 0.805,1.8 1.8,1.8c0.994,0 1.8,-0.806 1.8,-1.8"/><path d="M125.358,12.771c0,-0.995 -0.806,-1.8 -1.8,-1.8c-0.994,0 -1.8,0.805 -1.8,1.8c0,0.994 0.806,1.8 1.8,1.8c0.994,0 1.8,-0.806 1.8,-1.8"/><path d="M120.389,27.479c0,-0.994 -0.806,-1.8 -1.8,-1.8c-0.994,0 -1.8,0.806 -1.8,1.8c0,0.994 0.806,1.8 1.8,1.8c0.994,0 1.8,-0.806 1.8,-1.8"/><path d="M110.451,38.013c0,-0.994 -0.806,-1.8 -1.8,-1.8c-0.994,0 -1.8,0.806 -1.8,1.8c0,0.994 0.806,1.8 1.8,1.8c0.994,0 1.8,-0.806 1.8,-1.8"/><path d="M132.315,43.976c0,-0.994 -0.806,-1.8 -1.8,-1.8c-0.994,0 -1.8,0.806 -1.8,1.8c0,0.994 0.806,1.8 1.8,1.8c0.994,0 1.8,-0.806 1.8,-1.8"/><path d="M112.24,49.74c0,-0.994 -0.806,-1.8 -1.8,-1.8c-0.994,0 -1.8,0.806 -1.8,1.8c0,0.994 0.806,1.8 1.8,1.8c0.994,0 1.8,-0.806 1.8,-1.8"/><path d="M96.538,46.957c0,-0.994 -0.806,-1.8 -1.8,-1.8c-0.995,0 -1.8,0.806 -1.8,1.8c0,0.994 0.805,1.8 1.8,1.8c0.994,0 1.8,-0.806 1.8,-1.8"/><path d="M95.941,27.479c0,-0.994 -0.806,-1.8 -1.8,-1.8c-0.994,0 -1.8,0.806 -1.8,1.8c0,0.994 0.806,1.8 1.8,1.8c0.994,0 1.8,-0.806 1.8,-1.8"/></g><g><text x="51.703px" y="180.724px" style="font-family:'GTPressuraMono-Light', 'GT Pressura Mono';font-weight:300;font-size:9.963px;">M<tspan x="56.882px 62.062px 67.241px 72.42px 77.6px 82.779px 87.959px 93.138px 98.318px 103.497px 108.676px " y="180.724px 180.724px 180.724px 180.724px 180.724px 180.724px 180.724px 180.724px 180.724px 180.724px 180.724px ">ultiSurface</tspan></text><path d="M78.019,123.381l-17.152,13.949l28.357,0l17.152,-13.949l-28.357,0Z" style="fill:#d4d4d4;stroke:#000;stroke-width:1.2px;"/><path d="M76.318,124.763l4.382,12.566" style="fill:#fff;stroke:#000;stroke-width:1.2px;"/><path d="M71.122,109.86l11.136,-7.47l13.201,40.299l-8.541,12.473l-15.796,-45.302Z" style="fill:#bfbfbf;stroke:#000;stroke-width:1.2px;"/><path d="M92.761,134.453l-3.536,2.876l-8.525,0" style="fill:none;stroke:#000;stroke-width:1.2px;"/><rect x="62.033" y="139.255" width="28.358" height="27.672" style="fill:#bfbfbf;stroke:#000;stroke-width:1.2px;"/><path d="M90.391,150.091l-3.473,5.071l-5.547,-15.907" style="fill:none;stroke:#000;stroke-width:0.4px;stroke-dasharray:1,3;"/><path d="M89.134,123.379l-11.116,0l-1.7,1.384" style="fill:none;stroke:#000;stroke-width:0.4px;stroke-dasharray:1,3;"/><path d="M90.39,127.213l-10.422,8.016" style="fill:none;stroke:#000;stroke-width:0.4px;stroke-dasharray:1,3;"/><path d="M72.922,109.86c0,-0.994 -0.806,-1.8 -1.8,-1.8c-0.995,0 -1.8,0.806 -1.8,1.8c0,0.994 0.805,1.8 1.8,1.8c0.994,0 1.8,-0.806 1.8,-1.8"/><path d="M84.058,102.39c0,-0.994 -0.806,-1.8 -1.8,-1.8c-0.995,0 -1.8,0.806 -1.8,1.8c0,0.994 0.805,1.8 1.8,1.8c0.994,0 1.8,-0.806 1.8,-1.8"/><path d="M108.176,123.38c0,-0.994 -0.806,-1.8 -1.8,-1.8c-0.995,0 -1.8,0.806 -1.8,1.8c0,0.994 0.805,1.8 1.8,1.8c0.994,0 1.8,-0.806 1.8,-1.8"/><path d="M91.025,137.329c0,-0.994 -0.806,-1.8 -1.8,-1.8c-0.995,0 -1.8,0.806 -1.8,1.8c0,0.994 0.805,1.8 1.8,1.8c0.994,0 1.8,-0.806 1.8,-1.8"/><path d="M92.191,139.255c0,-0.994 -0.806,-1.8 -1.8,-1.8c-0.995,0 -1.8,0.806 -1.8,1.8c0,0.994 0.805,1.8 1.8,1.8c0.994,0 1.8,-0.806 1.8,-1.8"/><path d="M97.26,142.689c0,-0.994 -0.806,-1.8 -1.8,-1.8c-0.995,0 -1.8,0.806 -1.8,1.8c0,0.994 0.805,1.8 1.8,1.8c0.994,0 1.8,-0.806 1.8,-1.8"/><path d="M92.191,166.926c0,-0.994 -0.806,-1.8 -1.8,-1.8c-0.995,0 -1.8,0.806 -1.8,1.8c0,0.994 0.805,1.8 1.8,1.8c0.994,0 1.8,-0.806 1.8,-1.8"/><path d="M63.833,166.926c0,-0.994 -0.806,-1.8 -1.8,-1.8c-0.994,0 -1.8,0.806 -1.8,1.8c0,0.994 0.806,1.8 1.8,1.8c0.994,0 1.8,-0.806 1.8,-1.8"/><path d="M63.833,139.255c0,-0.994 -0.806,-1.8 -1.8,-1.8c-0.994,0 -1.8,0.806 -1.8,1.8c0,0.994 0.806,1.8 1.8,1.8c0.994,0 1.8,-0.806 1.8,-1.8"/><path d="M62.667,137.329c0,-0.994 -0.806,-1.8 -1.8,-1.8c-0.994,0 -1.8,0.806 -1.8,1.8c0,0.994 0.806,1.8 1.8,1.8c0.994,0 1.8,-0.806 1.8,-1.8"/><path d="M79.519,123.38c0,-0.828 -0.672,-1.5 -1.5,-1.5c-0.829,0 -1.5,0.672 -1.5,1.5c0,0.829 0.671,1.5 1.5,1.5c0.828,0 1.5,-0.671 1.5,-1.5" style="fill:#fff;"/><path d="M79.819,123.38c0,-0.994 -0.806,-1.8 -1.8,-1.8c-0.995,0 -1.8,0.806 -1.8,1.8c0,0.994 0.805,1.8 1.8,1.8c0.994,0 1.8,-0.806 1.8,-1.8m-0.6,0c0,-0.662 -0.538,-1.2 -1.2,-1.2c-0.663,0 -1.2,0.538 -1.2,1.2c0,0.663 0.537,1.2 1.2,1.2c0.662,0 1.2,-0.537 1.2,-1.2"/><path d="M79.519,123.38c0,-0.828 -0.672,-1.5 -1.5,-1.5c-0.829,0 -1.5,0.672 -1.5,1.5c0,0.829 0.671,1.5 1.5,1.5c0.828,0 1.5,-0.671 1.5,-1.5" style="fill:#fff;"/><path d="M79.819,123.38c0,-0.994 -0.806,-1.8 -1.8,-1.8c-0.995,0 -1.8,0.806 -1.8,1.8c0,0.994 0.805,1.8 1.8,1.8c0.994,0 1.8,-0.806 1.8,-1.8m-0.6,0c0,-0.662 -0.538,-1.2 -1.2,-1.2c-0.663,0 -1.2,0.538 -1.2,1.2c0,0.663 0.537,1.2 1.2,1.2c0.662,0 1.2,-0.537 1.2,-1.2"/><path d="M88.094,154.628c0,-0.829 -0.672,-1.5 -1.5,-1.5c-0.829,0 -1.5,0.671 -1.5,1.5c0,0.828 0.671,1.5 1.5,1.5c0.828,0 1.5,-0.672 1.5,-1.5" style="fill:#fff;"/><path d="M88.394,154.628c0,-0.994 -0.806,-1.8 -1.8,-1.8c-0.994,0 -1.8,0.806 -1.8,1.8c0,0.994 0.806,1.8 1.8,1.8c0.994,0 1.8,-0.806 1.8,-1.8m-0.6,0c0,-0.663 -0.538,-1.2 -1.2,-1.2c-0.663,0 -1.2,0.537 -1.2,1.2c0,0.663 0.537,1.2 1.2,1.2c0.662,0 1.2,-0.537 1.2,-1.2"/><path d="M88.094,154.628c0,-0.829 -0.672,-1.5 -1.5,-1.5c-0.829,0 -1.5,0.671 -1.5,1.5c0,0.828 0.671,1.5 1.5,1.5c0.828,0 1.5,-0.672 1.5,-1.5" style="fill:#fff;"/><path d="M88.394,154.628c0,-0.994 -0.806,-1.8 -1.8,-1.8c-0.994,0 -1.8,0.806 -1.8,1.8c0,0.994 0.806,1.8 1.8,1.8c0.994,0 1.8,-0.806 1.8,-1.8m-0.6,0c0,-0.663 -0.538,-1.2 -1.2,-1.2c-0.663,0 -1.2,0.537 -1.2,1.2c0,0.663 0.537,1.2 1.2,1.2c0.662,0 1.2,-0.537 1.2,-1.2"/></g><text x="103.703px" y="270.724px" style="font-family:'GTPressuraMono-Light', 'GT Pressura Mono';font-weight:300;font-size:9.963px;">M<tspan x="108.882px 114.062px 119.241px 124.42px 129.6px 134.779px 139.959px 145.138px 150.318px " y="270.724px 270.724px 270.724px 270.724px 270.724px 270.724px 270.724px 270.724px 270.724px ">ultiSolid</tspan></text><text x="198.703px" y="268.831px" style="font-family:'GTPressuraMono-Light', 'GT Pressura Mono';font-weight:300;font-size:9.963px;">C<tspan x="203.882px 209.062px 214.241px 219.42px 224.6px 229.779px 234.959px 240.138px 245.318px 250.497px 255.676px 260.856px 266.035px " y="268.831px 268.831px 268.831px 268.831px 268.831px 268.831px 268.831px 268.831px 268.831px 268.831px 268.831px 268.831px 268.831px ">ompositeSolid</tspan></text><text x="18.291px" y="270.724px" style="font-family:'GTPressuraMono-Light', 'GT Pressura Mono';font-weight:300;font-size:9.963px;">S<tspan x="23.47px 28.65px 33.829px 39.009px " y="270.724px 270.724px 270.724px 270.724px ">olid</tspan></text><g><text x="136.952px" y="178.831px" style="font-family:'GTPressuraMono-Light', 'GT Pressura Mono';font-weight:300;font-size:9.963px;">C<tspan x="142.132px 147.311px 152.49px 157.67px 162.849px 168.029px 173.208px 178.388px 183.567px 188.746px 193.926px 199.105px 204.285px 209.464px 214.644px " y="178.831px 178.831px 178.831px 178.831px 178.831px 178.831px 178.831px 178.831px 178.831px 178.831px 178.831px 178.831px 178.831px 178.831px 178.831px ">ompositeSurface</tspan></text><path d="M201.226,111.617c0,-0.994 -0.806,-1.8 -1.8,-1.8c-0.994,0 -1.8,0.806 -1.8,1.8c0,0.995 0.806,1.8 1.8,1.8c0.994,0 1.8,-0.805 1.8,-1.8"/><rect x="147.512" y="127.531" width="32.349" height="31.566" style="fill:#bfbfbf;stroke:#000;stroke-width:1.2px;"/><path d="M167.077,143.183l-19.565,15.913" style="stroke:#000;stroke-width:0.4px;stroke-dasharray:1,3;"/><path d="M149.312,159.096c0,-0.994 -0.806,-1.8 -1.8,-1.8c-0.995,0 -1.8,0.806 -1.8,1.8c0,0.995 0.805,1.8 1.8,1.8c0.994,0 1.8,-0.805 1.8,-1.8"/><path d="M181.661,159.096c0,-0.994 -0.806,-1.8 -1.8,-1.8c-0.994,0 -1.8,0.806 -1.8,1.8c0,0.995 0.806,1.8 1.8,1.8c0.994,0 1.8,-0.805 1.8,-1.8"/><path d="M179.861,127.531l19.565,-15.913l0,31.566l-19.565,15.913l0,-31.566Z" style="fill:#bfbfbf;stroke:#000;stroke-width:1.2px;"/><path d="M199.426,143.183l-32.349,0" style="stroke:#000;stroke-width:0.4px;stroke-dasharray:1,3;"/><path d="M149.312,127.53c0,-0.994 -0.806,-1.8 -1.8,-1.8c-0.995,0 -1.8,0.806 -1.8,1.8c0,0.995 0.805,1.8 1.8,1.8c0.994,0 1.8,-0.805 1.8,-1.8"/><path d="M181.661,127.53c0,-0.994 -0.806,-1.8 -1.8,-1.8c-0.994,0 -1.8,0.806 -1.8,1.8c0,0.995 0.806,1.8 1.8,1.8c0.994,0 1.8,-0.805 1.8,-1.8"/><path d="M201.226,143.183c0,-0.994 -0.806,-1.8 -1.8,-1.8c-0.994,0 -1.8,0.806 -1.8,1.8c0,0.994 0.806,1.8 1.8,1.8c0.994,0 1.8,-0.806 1.8,-1.8"/><path d="M168.578,143.183c0,-0.828 -0.672,-1.5 -1.5,-1.5c-0.829,0 -1.5,0.672 -1.5,1.5c0,0.829 0.671,1.5 1.5,1.5c0.828,0 1.5,-0.671 1.5,-1.5" style="fill:#fff;"/><path d="M168.878,143.183c0,-0.994 -0.806,-1.8 -1.8,-1.8c-0.995,0 -1.8,0.806 -1.8,1.8c0,0.994 0.805,1.8 1.8,1.8c0.994,0 1.8,-0.806 1.8,-1.8m-0.6,0c0,-0.663 -0.538,-1.2 -1.2,-1.2c-0.663,0 -1.2,0.537 -1.2,1.2c0,0.663 0.537,1.2 1.2,1.2c0.662,0 1.2,-0.537 1.2,-1.2"/></g><path d="M188.27,126.631l-1.371,12.839l3.918,1.987l3.917,-7.336l-4.995,0.917l-1.469,-8.407Z" style="fill:#fff;stroke:#a2a2a2;stroke-width:1.2px;"/><text x="170.575px" y="70.72px" style="font-family:'GTPressuraMono-Light', 'GT Pressura Mono';font-weight:300;font-size:9.963px;">P<tspan x="175.754px 180.934px 186.113px 191.293px 196.472px 201.652px " y="70.72px 70.72px 70.72px 70.72px 70.72px 70.72px ">olygon</tspan></text><g transform="matrix(1,0,0,1,-127,-26)"><text x="163.712px" y="96.724px" style="font-family:'GTPressuraMono-Light', 'GT Pressura Mono';font-weight:300;font-size:9.963px;">P</text><text x="167.791px" y="96.724px" style="font-family:'GTPressuraMono-Light', 'GT Pressura Mono';font-weight:300;font-size:9.963px;">o<tspan x="172.971px 178.15px " y="96.724px 96.724px ">in</tspan></text><text x="183.33px" y="96.724px" style="font-family:'GTPressuraMono-Light', 'GT Pressura Mono';font-weight:300;font-size:9.963px;">t</text></g><path d="M188.561,5.787l-17.866,10.581l11.795,16.653l-8.847,19.948l31.744,-1.214l5.551,-40.938l-22.377,-5.03Z" style="fill:#d4d4d4;stroke:#000;stroke-width:1.2px;"/><path d="M191.337,18.103l-2.429,14.57l6.939,2.256l6.938,-8.326l-8.846,1.041l-2.602,-9.541Z" style="fill:#fff;stroke:#a2a2a2;stroke-width:1.2px;"/><path d="M190.361,5.787c0,-0.994 -0.806,-1.8 -1.8,-1.8c-0.994,0 -1.8,0.806 -1.8,1.8c0,0.994 0.806,1.8 1.8,1.8c0.994,0 1.8,-0.806 1.8,-1.8"/><path d="M172.495,16.368c0,-0.994 -0.806,-1.8 -1.8,-1.8c-0.994,0 -1.8,0.806 -1.8,1.8c0,0.994 0.806,1.8 1.8,1.8c0.994,0 1.8,-0.806 1.8,-1.8"/><path d="M184.29,33.021c0,-0.994 -0.806,-1.8 -1.8,-1.8c-0.994,0 -1.8,0.806 -1.8,1.8c0,0.994 0.806,1.8 1.8,1.8c0.994,0 1.8,-0.806 1.8,-1.8"/><path d="M175.443,52.969c0,-0.994 -0.805,-1.8 -1.8,-1.8c-0.994,0 -1.8,0.806 -1.8,1.8c0,0.994 0.806,1.8 1.8,1.8c0.995,0 1.8,-0.806 1.8,-1.8"/><path d="M207.187,51.755c0,-0.994 -0.806,-1.8 -1.8,-1.8c-0.994,0 -1.8,0.806 -1.8,1.8c0,0.994 0.806,1.8 1.8,1.8c0.994,0 1.8,-0.806 1.8,-1.8"/><path d="M212.738,10.817c0,-0.994 -0.806,-1.8 -1.8,-1.8c-0.994,0 -1.8,0.806 -1.8,1.8c0,0.994 0.806,1.8 1.8,1.8c0.994,0 1.8,-0.806 1.8,-1.8"/><path d="M193.137,18.103c0,-0.994 -0.806,-1.8 -1.8,-1.8c-0.994,0 -1.8,0.806 -1.8,1.8c0,0.994 0.806,1.8 1.8,1.8c0.994,0 1.8,-0.806 1.8,-1.8" style="fill:#a2a2a2;"/><path d="M190.499,127.631c0,-0.994 -0.806,-1.8 -1.8,-1.8c-0.994,0 -1.8,0.806 -1.8,1.8c0,0.994 0.806,1.8 1.8,1.8c0.994,0 1.8,-0.806 1.8,-1.8" style="fill:#a2a2a2;"/><path d="M192.299,134.044c0,-0.994 -0.806,-1.8 -1.8,-1.8c-0.994,0 -1.8,0.806 -1.8,1.8c0,0.994 0.806,1.8 1.8,1.8c0.994,0 1.8,-0.806 1.8,-1.8" style="fill:#a2a2a2;"/><path d="M196.534,134.044c0,-0.994 -0.806,-1.8 -1.8,-1.8c-0.994,0 -1.8,0.806 -1.8,1.8c0,0.994 0.806,1.8 1.8,1.8c0.994,0 1.8,-0.806 1.8,-1.8" style="fill:#a2a2a2;"/><path d="M192.299,141.457c0,-0.994 -0.806,-1.8 -1.8,-1.8c-0.994,0 -1.8,0.806 -1.8,1.8c0,0.994 0.806,1.8 1.8,1.8c0.994,0 1.8,-0.806 1.8,-1.8" style="fill:#a2a2a2;"/><path d="M188.699,139.657c0,-0.994 -0.806,-1.8 -1.8,-1.8c-0.994,0 -1.8,0.806 -1.8,1.8c0,0.994 0.806,1.8 1.8,1.8c0.994,0 1.8,-0.806 1.8,-1.8" style="fill:#a2a2a2;"/><path d="M190.708,33.129c0,-0.994 -0.806,-1.8 -1.8,-1.8c-0.994,0 -1.8,0.806 -1.8,1.8c0,0.994 0.806,1.8 1.8,1.8c0.994,0 1.8,-0.806 1.8,-1.8" style="fill:#a2a2a2;"/><path d="M197.647,34.929c0,-0.994 -0.807,-1.8 -1.8,-1.8c-0.994,0 -1.8,0.806 -1.8,1.8c0,0.994 0.806,1.8 1.8,1.8c0.993,0 1.8,-0.806 1.8,-1.8" style="fill:#a2a2a2;"/><path d="M204.585,26.516c0,-0.994 -0.806,-1.8 -1.8,-1.8c-0.994,0 -1.8,0.806 -1.8,1.8c0,0.994 0.806,1.8 1.8,1.8c0.994,0 1.8,-0.806 1.8,-1.8" style="fill:#a2a2a2;"/><path d="M49.988,32.468c0,-2.175 -1.764,-3.939 -3.94,-3.939c-2.175,0 -3.939,1.764 -3.939,3.939c0,2.176 1.764,3.94 3.939,3.94c2.176,0 3.94,-1.764 3.94,-3.94" style="stroke:#000;stroke-width:0.4px;"/><path d="M151.97,220.974l-23.091,9.685l0,19.213l6.769,-2.839l16.322,-6.847l0,-19.212Z" style="fill:#d4d4d4;"/><path d="M113.792,220.974l-23.092,9.685l38.179,0l23.091,-9.685l-38.178,0Z" style="fill:#d4d4d4;stroke:#000;stroke-width:1.2px;"/><rect x="90.7" y="230.659" width="38.179" height="19.213" style="fill:#bfbfbf;stroke:#000;stroke-width:1.2px;"/><path d="M135.648,247.033l0,7.161l21.669,0l0,-18.888l13.106,-9.521l-18.453,0l0,14.401l-16.322,6.847Z" style="fill:#d4d4d4;"/><rect x="122.445" y="207.978" width="16.475" height="10.159" style="fill:#bfbfbf;stroke:#000;stroke-width:1.2px;"/><path d="M132.41,202.857l-9.965,5.121l16.475,0l9.965,-5.121l-16.475,0Z" style="fill:#d4d4d4;stroke:#000;stroke-width:1.2px;"/><path d="M138.92,207.978l9.965,-5.121l0,10.158l-9.965,5.122l0,-10.159Z" style="fill:#bfbfbf;stroke:#000;stroke-width:1.2px;"/><path d="M134.21,202.857c0,-0.994 -0.806,-1.8 -1.8,-1.8c-0.995,0 -1.8,0.806 -1.8,1.8c0,0.994 0.805,1.8 1.8,1.8c0.994,0 1.8,-0.806 1.8,-1.8"/><path d="M134.21,202.857c0,-0.994 -0.806,-1.8 -1.8,-1.8c-0.995,0 -1.8,0.806 -1.8,1.8c0,0.994 0.805,1.8 1.8,1.8c0.994,0 1.8,-0.806 1.8,-1.8"/><path d="M134.21,202.857c0,-0.994 -0.806,-1.8 -1.8,-1.8c-0.995,0 -1.8,0.806 -1.8,1.8c0,0.994 0.805,1.8 1.8,1.8c0.994,0 1.8,-0.806 1.8,-1.8"/><path d="M124.245,207.978c0,-0.994 -0.806,-1.8 -1.8,-1.8c-0.994,0 -1.8,0.806 -1.8,1.8c0,0.994 0.806,1.8 1.8,1.8c0.994,0 1.8,-0.806 1.8,-1.8"/><path d="M124.245,218.137c0,-0.995 -0.806,-1.8 -1.8,-1.8c-0.994,0 -1.8,0.805 -1.8,1.8c0,0.994 0.806,1.8 1.8,1.8c0.994,0 1.8,-0.806 1.8,-1.8"/><path d="M140.72,218.137c0,-0.995 -0.806,-1.8 -1.8,-1.8c-0.994,0 -1.8,0.805 -1.8,1.8c0,0.994 0.806,1.8 1.8,1.8c0.994,0 1.8,-0.806 1.8,-1.8"/><path d="M140.72,207.978c0,-0.994 -0.806,-1.8 -1.8,-1.8c-0.994,0 -1.8,0.806 -1.8,1.8c0,0.994 0.806,1.8 1.8,1.8c0.994,0 1.8,-0.806 1.8,-1.8"/><path d="M150.685,202.857c0,-0.994 -0.806,-1.8 -1.8,-1.8c-0.994,0 -1.8,0.806 -1.8,1.8c0,0.994 0.806,1.8 1.8,1.8c0.994,0 1.8,-0.806 1.8,-1.8"/><path d="M150.685,213.015c0,-0.994 -0.806,-1.8 -1.8,-1.8c-0.994,0 -1.8,0.806 -1.8,1.8c0,0.994 0.806,1.8 1.8,1.8c0.994,0 1.8,-0.806 1.8,-1.8"/><path d="M115.592,220.974c0,-0.994 -0.806,-1.8 -1.8,-1.8c-0.994,0 -1.8,0.806 -1.8,1.8c0,0.994 0.806,1.8 1.8,1.8c0.994,0 1.8,-0.806 1.8,-1.8"/><path d="M92.5,230.659c0,-0.994 -0.806,-1.8 -1.8,-1.8c-0.994,0 -1.8,0.806 -1.8,1.8c0,0.995 0.806,1.8 1.8,1.8c0.994,0 1.8,-0.805 1.8,-1.8"/><path d="M92.5,249.872c0,-0.994 -0.806,-1.8 -1.8,-1.8c-0.994,0 -1.8,0.806 -1.8,1.8c0,0.994 0.806,1.8 1.8,1.8c0.994,0 1.8,-0.806 1.8,-1.8"/><path d="M130.679,249.872c0,-0.994 -0.806,-1.8 -1.8,-1.8c-0.994,0 -1.8,0.806 -1.8,1.8c0,0.994 0.806,1.8 1.8,1.8c0.994,0 1.8,-0.806 1.8,-1.8"/><path d="M130.679,249.872c0,-0.994 -0.806,-1.8 -1.8,-1.8c-0.994,0 -1.8,0.806 -1.8,1.8c0,0.994 0.806,1.8 1.8,1.8c0.994,0 1.8,-0.806 1.8,-1.8"/><path d="M130.679,230.659c0,-0.994 -0.806,-1.8 -1.8,-1.8c-0.994,0 -1.8,0.806 -1.8,1.8c0,0.995 0.806,1.8 1.8,1.8c0.994,0 1.8,-0.805 1.8,-1.8"/><path d="M153.77,220.974c0,-0.994 -0.805,-1.8 -1.8,-1.8c-0.994,0 -1.8,0.806 -1.8,1.8c0,0.994 0.806,1.8 1.8,1.8c0.995,0 1.8,-0.806 1.8,-1.8"/><path d="M137.448,235.306c0,-0.994 -0.806,-1.8 -1.8,-1.8c-0.994,0 -1.8,0.806 -1.8,1.8c0,0.995 0.806,1.8 1.8,1.8c0.994,0 1.8,-0.805 1.8,-1.8"/><path d="M157.317,235.306l13.106,-9.521l0,18.887l-13.106,9.522l0,-18.888Z" style="fill:#bfbfbf;stroke:#000;stroke-width:1.2px;"/><path d="M137.448,254.194c0,-0.994 -0.806,-1.8 -1.8,-1.8c-0.994,0 -1.8,0.806 -1.8,1.8c0,0.994 0.806,1.8 1.8,1.8c0.994,0 1.8,-0.806 1.8,-1.8"/><path d="M159.117,254.194c0,-0.994 -0.806,-1.8 -1.8,-1.8c-0.994,0 -1.8,0.806 -1.8,1.8c0,0.994 0.806,1.8 1.8,1.8c0.994,0 1.8,-0.806 1.8,-1.8"/><path d="M159.117,235.306c0,-0.994 -0.806,-1.8 -1.8,-1.8c-0.994,0 -1.8,0.806 -1.8,1.8c0,0.995 0.806,1.8 1.8,1.8c0.994,0 1.8,-0.805 1.8,-1.8"/><path d="M172.223,225.785c0,-0.994 -0.805,-1.8 -1.8,-1.8c-0.994,0 -1.8,0.806 -1.8,1.8c0,0.994 0.806,1.8 1.8,1.8c0.995,0 1.8,-0.806 1.8,-1.8"/><path d="M172.223,244.672c0,-0.994 -0.805,-1.8 -1.8,-1.8c-0.994,0 -1.8,0.806 -1.8,1.8c0,0.994 0.806,1.8 1.8,1.8c0.995,0 1.8,-0.806 1.8,-1.8"/><path d="M157.317,254.194l-21.669,0" style="fill:none;stroke:#000;stroke-width:1.2px;"/><path d="M170.423,225.785l-18.453,0" style="fill:none;stroke:#000;stroke-width:1.2px;"/><path d="M170.423,244.672l-21.669,0" style="fill:none;stroke:#000;stroke-width:0.4px;stroke-dasharray:1,3;"/><path d="M148.754,225.785l0,18.887" style="fill:none;stroke:#000;stroke-width:0.4px;stroke-dasharray:1,3;"/><path d="M148.754,244.672l-13.106,9.522" style="fill:none;stroke:#000;stroke-width:0.4px;stroke-dasharray:1,3;"/><path d="M150.254,244.672c0,-0.828 -0.671,-1.5 -1.5,-1.5c-0.828,0 -1.5,0.672 -1.5,1.5c0,0.829 0.672,1.5 1.5,1.5c0.829,0 1.5,-0.671 1.5,-1.5" style="fill:#fff;"/><path d="M150.554,244.672c0,-0.994 -0.806,-1.8 -1.8,-1.8c-0.994,0 -1.8,0.806 -1.8,1.8c0,0.994 0.806,1.8 1.8,1.8c0.994,0 1.8,-0.806 1.8,-1.8m-0.6,0c0,-0.662 -0.537,-1.2 -1.2,-1.2c-0.662,0 -1.2,0.538 -1.2,1.2c0,0.663 0.538,1.2 1.2,1.2c0.663,0 1.2,-0.537 1.2,-1.2"/><path d="M128.879,249.872l6.769,-2.839" style="fill:none;stroke:#000;stroke-width:1.2px;"/><path d="M135.648,247.033l16.322,-6.847" style="fill:none;stroke:#000;stroke-width:0.4px;stroke-dasharray:1,3;"/><path d="M151.97,220.974l0,8.25" style="fill:none;stroke:#000;stroke-width:1.2px;"/><path d="M151.97,229.224l0,10.962" style="fill:none;stroke:#000;stroke-width:0.4px;stroke-dasharray:1,3;"/><path d="M135.648,235.306l13.106,-9.521" style="fill:none;stroke:#000;stroke-width:0.4px;stroke-dasharray:1,3;"/><path d="M135.648,235.306l0,18.888" style="fill:#d4d4d4;stroke:#000;stroke-width:1.2px;"/><path d="M135.648,235.306l21.669,0" style="fill:#d4d4d4;stroke:#000;stroke-width:1.2px;"/><path d="M135.648,235.306l6.553,-4.76" style="fill:#d4d4d4;stroke:#000;stroke-width:1.2px;"/><path d="M150.254,225.785c0,-0.828 -0.671,-1.5 -1.5,-1.5c-0.828,0 -1.5,0.672 -1.5,1.5c0,0.828 0.672,1.5 1.5,1.5c0.829,0 1.5,-0.672 1.5,-1.5" style="fill:#fff;"/><path d="M150.554,225.785c0,-0.994 -0.806,-1.8 -1.8,-1.8c-0.994,0 -1.8,0.806 -1.8,1.8c0,0.994 0.806,1.8 1.8,1.8c0.994,0 1.8,-0.806 1.8,-1.8m-0.6,0c0,-0.663 -0.537,-1.2 -1.2,-1.2c-0.662,0 -1.2,0.537 -1.2,1.2c0,0.663 0.538,1.2 1.2,1.2c0.663,0 1.2,-0.537 1.2,-1.2"/><path d="M153.47,240.186c0,-0.828 -0.671,-1.5 -1.5,-1.5c-0.828,0 -1.5,0.672 -1.5,1.5c0,0.829 0.672,1.5 1.5,1.5c0.829,0 1.5,-0.671 1.5,-1.5" style="fill:#fff;"/><path d="M153.77,240.186c0,-0.994 -0.805,-1.8 -1.8,-1.8c-0.994,0 -1.8,0.806 -1.8,1.8c0,0.995 0.806,1.8 1.8,1.8c0.995,0 1.8,-0.805 1.8,-1.8m-0.6,0c0,-0.662 -0.537,-1.2 -1.2,-1.2c-0.662,0 -1.2,0.538 -1.2,1.2c0,0.663 0.538,1.2 1.2,1.2c0.663,0 1.2,-0.537 1.2,-1.2"/><g><rect x="200.979" y="226.505" width="38.179" height="19.213" style="fill:#bfbfbf;stroke:#000;stroke-width:1.2px;"/><path d="M224.071,216.82l-23.092,9.685l38.179,0l23.091,-9.685l-38.178,0Z" style="fill:#d4d4d4;stroke:#000;stroke-width:1.2px;"/><path d="M239.158,226.505l23.091,-9.685l0,19.212l-23.091,9.686l0,-19.213Z" style="fill:#bfbfbf;stroke:#000;stroke-width:1.2px;"/><path d="M262.249,236.032l-38.179,0" style="stroke:#000;stroke-width:0.4px;stroke-dasharray:1,3;"/><path d="M224.07,216.82l0,19.212" style="stroke:#000;stroke-width:0.4px;stroke-dasharray:1,3;"/><path d="M224.07,236.032l-23.092,9.686" style="stroke:#000;stroke-width:0.4px;stroke-dasharray:1,3;"/><path d="M202.778,226.505c0,-0.994 -0.806,-1.8 -1.8,-1.8c-0.994,0 -1.8,0.806 -1.8,1.8c0,0.994 0.806,1.8 1.8,1.8c0.994,0 1.8,-0.806 1.8,-1.8"/><path d="M202.778,245.718c0,-0.994 -0.806,-1.8 -1.8,-1.8c-0.994,0 -1.8,0.806 -1.8,1.8c0,0.994 0.806,1.8 1.8,1.8c0.994,0 1.8,-0.806 1.8,-1.8"/><path d="M240.958,245.718c0,-0.994 -0.806,-1.8 -1.8,-1.8c-0.994,0 -1.8,0.806 -1.8,1.8c0,0.994 0.806,1.8 1.8,1.8c0.994,0 1.8,-0.806 1.8,-1.8"/><path d="M264.049,236.032c0,-0.994 -0.806,-1.8 -1.8,-1.8c-0.995,0 -1.8,0.806 -1.8,1.8c0,0.994 0.805,1.8 1.8,1.8c0.994,0 1.8,-0.806 1.8,-1.8"/><path d="M264.049,216.82c0,-0.994 -0.806,-1.8 -1.8,-1.8c-0.995,0 -1.8,0.806 -1.8,1.8c0,0.994 0.805,1.8 1.8,1.8c0.994,0 1.8,-0.806 1.8,-1.8"/><path d="M240.958,226.505c0,-0.994 -0.806,-1.8 -1.8,-1.8c-0.994,0 -1.8,0.806 -1.8,1.8c0,0.994 0.806,1.8 1.8,1.8c0.994,0 1.8,-0.806 1.8,-1.8"/><path d="M225.87,216.82c0,-0.994 -0.806,-1.8 -1.8,-1.8c-0.994,0 -1.8,0.806 -1.8,1.8c0,0.994 0.806,1.8 1.8,1.8c0.994,0 1.8,-0.806 1.8,-1.8"/><path d="M225.87,236.032c0,-0.994 -0.806,-1.8 -1.8,-1.8c-0.994,0 -1.8,0.806 -1.8,1.8c0,0.994 0.806,1.8 1.8,1.8c0.994,0 1.8,-0.806 1.8,-1.8" style="fill:#ababab;"/><path d="M225.785,226.505l0,19.213" style="fill:none;stroke:#000;stroke-width:1.2px;"/><path d="M225.785,226.505l22.584,-9.685" style="fill:none;stroke:#000;stroke-width:1.2px;"/><path d="M250.169,216.82c0,-0.994 -0.806,-1.8 -1.8,-1.8c-0.995,0 -1.8,0.806 -1.8,1.8c0,0.994 0.805,1.8 1.8,1.8c0.994,0 1.8,-0.806 1.8,-1.8"/><path d="M227.585,226.505c0,-0.994 -0.806,-1.8 -1.8,-1.8c-0.994,0 -1.8,0.806 -1.8,1.8c0,0.994 0.806,1.8 1.8,1.8c0.994,0 1.8,-0.806 1.8,-1.8"/><path d="M227.585,245.718c0,-0.994 -0.806,-1.8 -1.8,-1.8c-0.994,0 -1.8,0.806 -1.8,1.8c0,0.994 0.806,1.8 1.8,1.8c0.994,0 1.8,-0.806 1.8,-1.8"/><path d="M225.785,245.718l22.584,-9.685" style="fill:none;stroke:#000;stroke-width:0.4px;stroke-dasharray:1,3;"/><path d="M248.369,216.82l0.229,18.847" style="fill:none;stroke:#000;stroke-width:0.4px;stroke-dasharray:1,3;"/><path d="M225.57,236.032c0,-0.829 -0.671,-1.5 -1.5,-1.5c-0.828,0 -1.5,0.671 -1.5,1.5c0,0.828 0.672,1.5 1.5,1.5c0.829,0 1.5,-0.672 1.5,-1.5" style="fill:#fff;"/><path d="M225.87,236.032c0,-0.994 -0.806,-1.8 -1.8,-1.8c-0.994,0 -1.8,0.806 -1.8,1.8c0,0.994 0.806,1.8 1.8,1.8c0.994,0 1.8,-0.806 1.8,-1.8m-0.6,0c0,-0.663 -0.537,-1.2 -1.2,-1.2c-0.663,0 -1.2,0.537 -1.2,1.2c0,0.662 0.537,1.2 1.2,1.2c0.663,0 1.2,-0.538 1.2,-1.2"/><path d="M250.098,235.667c0,-0.829 -0.671,-1.5 -1.5,-1.5c-0.828,0 -1.5,0.671 -1.5,1.5c0,0.828 0.672,1.5 1.5,1.5c0.829,0 1.5,-0.672 1.5,-1.5" style="fill:#fff;"/><path d="M250.398,235.667c0,-0.994 -0.806,-1.8 -1.8,-1.8c-0.994,0 -1.8,0.806 -1.8,1.8c0,0.994 0.806,1.8 1.8,1.8c0.994,0 1.8,-0.806 1.8,-1.8m-0.6,0c0,-0.663 -0.537,-1.2 -1.2,-1.2c-0.663,0 -1.2,0.537 -1.2,1.2c0,0.663 0.537,1.2 1.2,1.2c0.663,0 1.2,-0.537 1.2,-1.2"/></g><rect x="5.543" y="220.484" width="33.036" height="32.237" style="fill:#bfbfbf;stroke:#000;stroke-width:1.2px;"/><path d="M25.524,204.233l-19.981,16.251l33.036,0l19.981,-16.251l-33.036,0Z" style="fill:#d4d4d4;stroke:#000;stroke-width:1.2px;"/><path d="M38.579,220.484l19.981,-16.251l0,32.236l-19.981,16.252l0,-32.237Z" style="fill:#bfbfbf;stroke:#000;stroke-width:1.2px;"/><path d="M58.56,236.469l-33.035,0" style="stroke:#000;stroke-width:0.4px;stroke-dasharray:1,3;"/><path d="M25.525,204.233l0,32.236" style="stroke:#000;stroke-width:0.4px;stroke-dasharray:1,3;"/><path d="M25.525,236.469l-19.981,16.252" style="stroke:#000;stroke-width:0.4px;stroke-dasharray:1,3;"/><path d="M7.344,220.484c0,-0.994 -0.806,-1.8 -1.8,-1.8c-0.994,0 -1.8,0.806 -1.8,1.8c0,0.994 0.806,1.8 1.8,1.8c0.994,0 1.8,-0.806 1.8,-1.8"/><path d="M7.344,252.721c0,-0.995 -0.806,-1.8 -1.8,-1.8c-0.994,0 -1.8,0.805 -1.8,1.8c0,0.994 0.806,1.8 1.8,1.8c0.994,0 1.8,-0.806 1.8,-1.8"/><path d="M40.38,252.721c0,-0.995 -0.806,-1.8 -1.8,-1.8c-0.994,0 -1.8,0.805 -1.8,1.8c0,0.994 0.806,1.8 1.8,1.8c0.994,0 1.8,-0.806 1.8,-1.8"/><path d="M60.36,236.469c0,-0.994 -0.806,-1.8 -1.8,-1.8c-0.994,0 -1.8,0.806 -1.8,1.8c0,0.994 0.806,1.8 1.8,1.8c0.994,0 1.8,-0.806 1.8,-1.8"/><path d="M60.36,204.233c0,-0.994 -0.806,-1.8 -1.8,-1.8c-0.994,0 -1.8,0.806 -1.8,1.8c0,0.994 0.806,1.8 1.8,1.8c0.994,0 1.8,-0.806 1.8,-1.8"/><path d="M40.38,220.484c0,-0.994 -0.806,-1.8 -1.8,-1.8c-0.994,0 -1.8,0.806 -1.8,1.8c0,0.994 0.806,1.8 1.8,1.8c0.994,0 1.8,-0.806 1.8,-1.8"/><path d="M27.325,204.233c0,-0.994 -0.806,-1.8 -1.8,-1.8c-0.994,0 -1.8,0.806 -1.8,1.8c0,0.994 0.806,1.8 1.8,1.8c0.994,0 1.8,-0.806 1.8,-1.8"/><path d="M27.325,236.469c0,-0.994 -0.806,-1.8 -1.8,-1.8c-0.994,0 -1.8,0.806 -1.8,1.8c0,0.994 0.806,1.8 1.8,1.8c0.994,0 1.8,-0.806 1.8,-1.8" style="fill:#ababab;"/><path d="M27.025,236.469c0,-0.829 -0.672,-1.5 -1.5,-1.5c-0.829,0 -1.5,0.671 -1.5,1.5c0,0.828 0.671,1.5 1.5,1.5c0.828,0 1.5,-0.672 1.5,-1.5" style="fill:#fff;"/><path d="M27.325,236.469c0,-0.994 -0.806,-1.8 -1.8,-1.8c-0.995,0 -1.8,0.806 -1.8,1.8c0,0.994 0.805,1.8 1.8,1.8c0.994,0 1.8,-0.806 1.8,-1.8m-0.6,0c0,-0.663 -0.538,-1.2 -1.2,-1.2c-0.663,0 -1.2,0.537 -1.2,1.2c0,0.662 0.537,1.2 1.2,1.2c0.662,0 1.2,-0.538 1.2,-1.2"/><rect x="22.896" y="226.633" width="8.374" height="8.172" style="fill:#fff;stroke:#acacac;stroke-width:1.2px;"/><path d="M27.961,222.514l-5.065,4.119l8.374,0l5.065,-4.119l-8.374,0Z" style="fill:#fff;stroke:#adadad;stroke-width:1.2px;"/><path d="M31.27,226.633l5.065,-4.119l0,8.172l-5.065,4.119l0,-8.172Z" style="fill:#fff;stroke:#acacac;stroke-width:1.2px;"/><path d="M36.335,230.686l-8.374,0" style="fill:#fff;stroke:#acacac;stroke-width:0.4px;stroke-dasharray:1,3;"/><path d="M27.961,222.514l0,8.172" style="fill:#a2a2a2;stroke:#acacac;stroke-width:0.4px;stroke-dasharray:1,3;"/><path d="M27.961,230.686l-5.065,4.12" style="fill:#a2a2a2;stroke:#acacac;stroke-width:0.4px;stroke-dasharray:1,3;"/><path d="M24.696,226.634c0,-0.995 -0.806,-1.8 -1.8,-1.8c-0.995,0 -1.8,0.805 -1.8,1.8c0,0.994 0.805,1.8 1.8,1.8c0.994,0 1.8,-0.806 1.8,-1.8" style="fill:#a2a2a2;"/><path d="M24.696,234.806c0,-0.995 -0.806,-1.8 -1.8,-1.8c-0.995,0 -1.8,0.805 -1.8,1.8c0,0.994 0.805,1.8 1.8,1.8c0.994,0 1.8,-0.806 1.8,-1.8" style="fill:#a2a2a2;"/><path d="M33.07,234.806c0,-0.995 -0.806,-1.8 -1.8,-1.8c-0.994,0 -1.8,0.805 -1.8,1.8c0,0.994 0.806,1.8 1.8,1.8c0.994,0 1.8,-0.806 1.8,-1.8" style="fill:#a2a2a2;"/><path d="M38.135,230.686c0,-0.994 -0.806,-1.8 -1.8,-1.8c-0.994,0 -1.8,0.806 -1.8,1.8c0,0.994 0.806,1.8 1.8,1.8c0.994,0 1.8,-0.806 1.8,-1.8" style="fill:#a2a2a2;"/><path d="M38.135,222.514c0,-0.994 -0.806,-1.8 -1.8,-1.8c-0.994,0 -1.8,0.806 -1.8,1.8c0,0.994 0.806,1.8 1.8,1.8c0.994,0 1.8,-0.806 1.8,-1.8" style="fill:#a2a2a2;"/><path d="M33.07,226.634c0,-0.995 -0.806,-1.8 -1.8,-1.8c-0.994,0 -1.8,0.805 -1.8,1.8c0,0.994 0.806,1.8 1.8,1.8c0.994,0 1.8,-0.806 1.8,-1.8" style="fill:#a2a2a2;"/><path d="M29.761,222.514c0,-0.994 -0.806,-1.8 -1.8,-1.8c-0.994,0 -1.8,0.806 -1.8,1.8c0,0.994 0.806,1.8 1.8,1.8c0.994,0 1.8,-0.806 1.8,-1.8" style="fill:#a2a2a2;"/><path d="M29.761,230.686c0,-0.994 -0.806,-1.8 -1.8,-1.8c-0.994,0 -1.8,0.806 -1.8,1.8c0,0.994 0.806,1.8 1.8,1.8c0.994,0 1.8,-0.806 1.8,-1.8" style="fill:#a2a2a2;"/><path d="M197.647,34.929c0,-0.994 -0.807,-1.8 -1.8,-1.8c-0.994,0 -1.8,0.806 -1.8,1.8c0,0.994 0.806,1.8 1.8,1.8c0.993,0 1.8,-0.806 1.8,-1.8" style="fill:#a2a2a2;"/></g></svg>