<?xml version="1.0" encoding="UTF-8" standalone="no"?><!DOCTYPE svg PUBLIC "-//W3C//DTD SVG 1.1//EN" "http://www.w3.org/Graphics/SVG/1.1/DTD/svg11.dtd"><svg width="100%" height="100%" viewBox="0 0 273 274" version="1.1" xmlns="http://www.w3.org/2000/svg" xmlns:xlink="http://www.w3.org/1999/xlink" xml:space="preserve" xmlns:serif="http://www.serif.com/" style="fill-rule:evenodd;clip-rule:evenodd;stroke-linejoin:round;stroke-miterlimit:10;"><g id="Trim"><g><path d="M86.055,63.945c0,-0.109 -0.09,-0.199 -0.199,-0.199l-0.239,0c-0.11,0 -0.199,0.09 -0.199,0.199l0,6.576c0,0.109 0.089,0.199 0.199,0.199l3.178,0c0.109,0 0.199,-0.09 0.199,-0.199l0,-0.239c0,-0.11 -0.09,-0.2 -0.199,-0.2l-2.64,0c-0.06,0 -0.1,-0.039 -0.1,-0.099l0,-6.038Z" style="fill-rule:nonzero;"/><path d="M92.709,63.836c0,-0.08 -0.07,-0.16 -0.159,-0.16l-0.518,0c-0.09,0 -0.16,0.08 -0.16,0.16l0,0.528c0,0.09 0.07,0.159 0.16,0.159l0.518,0c0.089,0 0.159,-0.069 0.159,-0.159l0,-0.528Zm-0.757,2.5c0.06,0 0.099,0.04 0.099,0.1l0,3.587c0,0.059 -0.039,0.099 -0.099,0.099l-1.345,0c-0.11,0 -0.199,0.09 -0.199,0.199l0,0.2c0,0.109 0.089,0.199 0.199,0.199l3.447,0c0.11,0 0.199,-0.09 0.199,-0.199l0,-0.2c0,-0.109 -0.089,-0.199 -0.199,-0.199l-1.305,0c-0.06,0 -0.1,-0.04 -0.1,-0.099l0,-4.085c0,-0.11 -0.089,-0.199 -0.199,-0.199l-1.743,0c-0.11,0 -0.2,0.089 -0.2,0.199l0,0.199c0,0.11 0.09,0.199 0.2,0.199l1.245,0Z" style="fill-rule:nonzero;"/><path d="M96.205,65.968c-0.12,0 -0.18,-0.09 -0.239,-0.16c-0.04,-0.039 -0.08,-0.069 -0.14,-0.069l-0.159,0c-0.11,0 -0.199,0.089 -0.199,0.199l0,4.583c0,0.109 0.089,0.199 0.199,0.199l0.189,0c0.11,0 0.199,-0.09 0.199,-0.199l0,-3.198c0,-0.618 0.548,-1.096 1.266,-1.096c0.717,0 1.265,0.309 1.265,1.146l0,3.148c0,0.109 0.089,0.199 0.199,0.199l0.189,0c0.11,0 0.2,-0.09 0.2,-0.199l0,-3.148c0,-1.136 -0.738,-1.734 -1.784,-1.734c-0.737,0 -0.896,0.329 -1.185,0.329Z" style="fill-rule:nonzero;"/><path d="M101.075,68.568c0,-0.06 0.04,-0.1 0.1,-0.1l3.158,0c0.11,0 0.199,-0.089 0.199,-0.199l0,-0.637c0,-1.096 -0.876,-1.993 -1.992,-1.993c-1.196,0 -1.963,0.847 -2.042,1.893c-0.03,0.398 -0.03,0.996 0,1.395c0.079,1.046 0.846,1.893 2.042,1.893c1.036,0 1.813,-0.628 1.933,-1.495c0.02,-0.139 -0.07,-0.199 -0.17,-0.199l-0.199,0c-0.09,0 -0.189,0.04 -0.229,0.169c-0.15,0.469 -0.568,0.937 -1.335,0.937c-1.026,0 -1.465,-0.708 -1.465,-1.664Zm0.02,-0.757c0,-1.016 0.568,-1.584 1.455,-1.584c0.817,0 1.434,0.568 1.434,1.584c0,0.06 -0.039,0.1 -0.099,0.1l-2.69,0c-0.06,0 -0.1,-0.04 -0.1,-0.1Z" style="fill-rule:nonzero;"/><path d="M108.895,68.319c0.06,0 0.1,0.04 0.1,0.1l0,0.597c0,0.807 -0.519,1.246 -1.435,1.246c-0.628,0 -1.176,-0.339 -1.176,-1.046c0,-0.588 0.498,-0.897 1.056,-0.897l1.455,0Zm-1.136,-2.132c0.698,0 1.206,0.448 1.206,1.096l0,0.388c0,0.06 -0.04,0.1 -0.1,0.1l-1.425,0c-1.046,0 -1.643,0.628 -1.643,1.455c0,0.846 0.587,1.594 1.813,1.594c0.737,0 1.135,-0.379 1.315,-0.379c0.129,0 0.149,0.13 0.199,0.209c0.03,0.05 0.08,0.07 0.139,0.07l0.09,0c0.11,0 0.199,-0.09 0.199,-0.199l0,-3.228c0,-1.136 -0.817,-1.654 -1.793,-1.654c-0.847,0 -1.733,0.468 -1.733,1.395c0,0.119 0.049,0.199 0.199,0.199l0.139,0c0.09,0 0.23,0 0.23,-0.169c0,-0.528 0.567,-0.877 1.165,-0.877Z" style="fill-rule:nonzero;"/><path d="M114.483,67.333c0,0.109 0.089,0.199 0.199,0.199l0.189,0c0.11,0 0.2,-0.09 0.2,-0.199c0,-1.036 -0.748,-1.694 -1.764,-1.694c-0.737,0 -0.926,0.329 -1.215,0.329c-0.1,0 -0.19,-0.09 -0.249,-0.16c-0.04,-0.039 -0.08,-0.069 -0.14,-0.069l-0.159,0c-0.11,0 -0.199,0.089 -0.199,0.199l0,4.583c0,0.109 0.089,0.199 0.199,0.199l0.189,0c0.11,0 0.199,-0.09 0.199,-0.199l0,-3.089c0,-0.697 0.558,-1.205 1.276,-1.205c0.797,0 1.275,0.478 1.275,1.106Z" style="fill-rule:nonzero;"/><path d="M118.018,64.384c0.797,0 1.455,0.657 1.455,1.454c0,0.797 -0.658,1.455 -1.455,1.455l-1.155,0c-0.06,0 -0.1,-0.04 -0.1,-0.1l0,-2.71c0,-0.059 0.04,-0.099 0.1,-0.099l1.155,0Zm-0.069,3.546c0.109,0 0.159,0.06 0.189,0.12l1.096,2.112c0.109,0.209 0.189,0.558 0.468,0.558l0.219,0c0.199,0 0.269,-0.149 0.19,-0.299l-1.256,-2.371c-0.079,-0.149 -0.05,-0.239 0.07,-0.319c0.717,-0.448 1.186,-0.996 1.186,-1.893c0,-1.155 -0.937,-2.092 -2.093,-2.092l-1.693,0c-0.11,0 -0.2,0.09 -0.2,0.199l0,6.576c0,0.109 0.09,0.199 0.2,0.199l0.239,0c0.109,0 0.199,-0.09 0.199,-0.199l0,-2.491c0,-0.06 0.04,-0.1 0.1,-0.1l1.086,0Z" style="fill-rule:nonzero;"/><path d="M123.786,63.836c0,-0.08 -0.07,-0.16 -0.16,-0.16l-0.518,0c-0.09,0 -0.159,0.08 -0.159,0.16l0,0.528c0,0.09 0.069,0.159 0.159,0.159l0.518,0c0.09,0 0.16,-0.069 0.16,-0.159l0,-0.528Zm-0.758,2.5c0.06,0 0.1,0.04 0.1,0.1l0,3.587c0,0.059 -0.04,0.099 -0.1,0.099l-1.345,0c-0.109,0 -0.199,0.09 -0.199,0.199l0,0.2c0,0.109 0.09,0.199 0.199,0.199l3.448,0c0.109,0 0.199,-0.09 0.199,-0.199l0,-0.2c0,-0.109 -0.09,-0.199 -0.199,-0.199l-1.306,0c-0.059,0 -0.099,-0.04 -0.099,-0.099l0,-4.085c0,-0.11 -0.09,-0.199 -0.199,-0.199l-1.744,0c-0.109,0 -0.199,0.089 -0.199,0.199l0,0.199c0,0.11 0.09,0.199 0.199,0.199l1.245,0Z" style="fill-rule:nonzero;"/><path d="M127.281,65.968c-0.119,0 -0.179,-0.09 -0.239,-0.16c-0.04,-0.039 -0.079,-0.069 -0.139,-0.069l-0.16,0c-0.109,0 -0.199,0.089 -0.199,0.199l0,4.583c0,0.109 0.09,0.199 0.199,0.199l0.19,0c0.109,0 0.199,-0.09 0.199,-0.199l0,-3.198c0,-0.618 0.548,-1.096 1.265,-1.096c0.717,0 1.265,0.309 1.265,1.146l0,3.148c0,0.109 0.09,0.199 0.2,0.199l0.189,0c0.11,0 0.199,-0.09 0.199,-0.199l0,-3.148c0,-1.136 -0.737,-1.734 -1.783,-1.734c-0.737,0 -0.897,0.329 -1.186,0.329Z" style="fill-rule:nonzero;"/><path d="M135.121,65.739c-0.06,0 -0.1,0.03 -0.14,0.069c-0.059,0.07 -0.149,0.16 -0.249,0.16c-0.289,0 -0.398,-0.329 -1.135,-0.329c-1.047,0 -1.814,0.847 -1.893,1.893c-0.03,0.398 -0.03,0.996 0,1.395c0.079,1.046 0.846,1.893 1.893,1.893c0.458,0 0.876,-0.249 1.075,-0.249c0.14,0 0.22,0.089 0.22,0.249l0,0.199c0,0.598 -0.439,1.205 -1.186,1.205c-0.697,0 -1.036,-0.438 -1.166,-0.807c-0.039,-0.109 -0.089,-0.199 -0.259,-0.199l-0.159,0c-0.149,0 -0.209,0.09 -0.179,0.229c0.189,0.897 0.966,1.365 1.763,1.365c1.056,0 1.773,-0.827 1.773,-1.793l0,-5.081c0,-0.11 -0.089,-0.199 -0.199,-0.199l-0.159,0Zm-1.475,0.488c0.887,0 1.176,0.777 1.226,1.305c0.04,0.408 0.04,0.986 0,1.395c-0.05,0.528 -0.339,1.305 -1.226,1.305c-0.966,0 -1.275,-0.777 -1.335,-1.305c-0.049,-0.409 -0.049,-0.987 0,-1.395c0.06,-0.528 0.359,-1.305 1.335,-1.305Z" style="fill-rule:nonzero;"/></g><path d="M108.85,7.404l-14.709,20.075l0.597,19.478l15.702,2.783l20.075,-5.764l-21.864,-5.963l9.938,-10.534l4.969,-14.708l-14.708,-5.367Z" style="fill:none;stroke:#000;stroke-width:1.2px;"/><path d="M110.65,7.404c0,-0.994 -0.806,-1.8 -1.8,-1.8c-0.995,0 -1.8,0.806 -1.8,1.8c0,0.994 0.805,1.8 1.8,1.8c0.994,0 1.8,-0.806 1.8,-1.8"/><path d="M125.358,12.771c0,-0.995 -0.806,-1.8 -1.8,-1.8c-0.994,0 -1.8,0.805 -1.8,1.8c0,0.994 0.806,1.8 1.8,1.8c0.994,0 1.8,-0.806 1.8,-1.8"/><path d="M120.389,27.479c0,-0.994 -0.806,-1.8 -1.8,-1.8c-0.994,0 -1.8,0.806 -1.8,1.8c0,0.994 0.806,1.8 1.8,1.8c0.994,0 1.8,-0.806 1.8,-1.8"/><path d="M110.451,38.013c0,-0.994 -0.806,-1.8 -1.8,-1.8c-0.994,0 -1.8,0.806 -1.8,1.8c0,0.994 0.806,1.8 1.8,1.8c0.994,0 1.8,-0.806 1.8,-1.8"/><path d="M132.315,43.976c0,-0.994 -0.806,-1.8 -1.8,-1.8c-0.994,0 -1.8,0.806 -1.8,1.8c0,0.994 0.806,1.8 1.8,1.8c0.994,0 1.8,-0.806 1.8,-1.8"/><path d="M112.24,49.74c0,-0.994 -0.806,-1.8 -1.8,-1.8c-0.994,0 -1.8,0.806 -1.8,1.8c0,0.994 0.806,1.8 1.8,1.8c0.994,0 1.8,-0.806 1.8,-1.8"/><path d="M96.538,46.957c0,-0.994 -0.806,-1.8 -1.8,-1.8c-0.995,0 -1.8,0.806 -1.8,1.8c0,0.994 0.805,1.8 1.8,1.8c0.994,0 1.8,-0.806 1.8,-1.8"/><path d="M95.941,27.479c0,-0.994 -0.806,-1.8 -1.8,-1.8c-0.994,0 -1.8,0.806 -1.8,1.8c0,0.994 0.806,1.8 1.8,1.8c0.994,0 1.8,-0.806 1.8,-1.8"/><g><path d="M53.376,173.92c-0.039,-0.12 -0.099,-0.17 -0.209,-0.17l-0.598,0c-0.109,0 -0.199,0.09 -0.199,0.199l0,6.576c0,0.109 0.09,0.199 0.199,0.199l0.2,0c0.109,0 0.199,-0.09 0.199,-0.199l0,-5.709c0,-0.06 0.08,-0.08 0.1,-0.02l1.026,3.268c0.04,0.12 0.099,0.169 0.209,0.169l0.279,0c0.109,0 0.169,-0.049 0.209,-0.169l1.026,-3.268c0.02,-0.06 0.1,-0.04 0.1,0.02l0,5.709c0,0.109 0.09,0.199 0.199,0.199l0.199,0c0.11,0 0.2,-0.09 0.2,-0.199l0,-6.576c0,-0.109 -0.09,-0.199 -0.2,-0.199l-0.597,0c-0.11,0 -0.17,0.05 -0.21,0.17l-1.016,3.188c-0.02,0.049 -0.089,0.039 -0.099,0l-1.017,-3.188Z" style="fill-rule:nonzero;"/><path d="M60.738,180.495c0.119,0 0.179,0.09 0.239,0.159c0.04,0.04 0.079,0.07 0.139,0.07l0.16,0c0.109,0 0.199,-0.09 0.199,-0.199l0,-4.583c0,-0.11 -0.09,-0.199 -0.199,-0.199l-0.19,0c-0.109,0 -0.199,0.089 -0.199,0.199l0,3.198c0,0.618 -0.548,1.096 -1.265,1.096c-0.717,0 -1.265,-0.309 -1.265,-1.146l0,-3.148c0,-0.11 -0.09,-0.199 -0.2,-0.199l-0.189,0c-0.11,0 -0.199,0.089 -0.199,0.199l0,3.148c0,1.136 0.737,1.734 1.783,1.734c0.737,0 0.897,-0.329 1.186,-0.329Z" style="fill-rule:nonzero;"/><path d="M64.413,174.278c0.059,0 0.099,0.04 0.099,0.1l0,5.649c0,0.059 -0.059,0.099 -0.119,0.099l-1.385,0c-0.11,0 -0.199,0.09 -0.199,0.199l0,0.2c0,0.109 0.089,0.199 0.199,0.199l3.467,0c0.11,0 0.199,-0.09 0.199,-0.199l0,-0.2c0,-0.109 -0.089,-0.199 -0.199,-0.199l-1.265,0c-0.06,0 -0.1,-0.04 -0.1,-0.099l0,-6.147c0,-0.11 -0.09,-0.2 -0.199,-0.2l-1.704,0c-0.109,0 -0.199,0.09 -0.199,0.2l0,0.199c0,0.11 0.09,0.199 0.199,0.199l1.206,0Z" style="fill-rule:nonzero;"/><path d="M69.622,176.48c0,-0.06 0.04,-0.1 0.1,-0.1l1.653,0c0.11,0 0.2,-0.089 0.2,-0.199l0,-0.189c0,-0.11 -0.09,-0.199 -0.2,-0.199l-1.653,0c-0.06,0 -0.1,-0.04 -0.1,-0.1l0,-1.544c0,-0.11 -0.09,-0.2 -0.199,-0.2l-0.199,0c-0.11,0 -0.2,0.09 -0.2,0.2l0,1.544c0,0.06 -0.04,0.1 -0.099,0.1l-1.106,0c-0.11,0 -0.199,0.089 -0.199,0.199l0,0.189c0,0.11 0.089,0.199 0.199,0.199l1.106,0c0.059,0 0.099,0.04 0.099,0.1l0,2.75c0,0.876 0.668,1.594 1.544,1.594c0.877,0 1.525,-0.718 1.525,-1.594c0,-0.11 -0.09,-0.2 -0.2,-0.2l-0.209,0c-0.109,0 -0.199,0.09 -0.199,0.2c0,0.558 -0.349,0.996 -0.917,0.996c-0.508,0 -0.946,-0.399 -0.946,-1.096l0,-2.65Z" style="fill-rule:nonzero;"/><path d="M75.728,173.84c0,-0.08 -0.07,-0.16 -0.159,-0.16l-0.518,0c-0.09,0 -0.16,0.08 -0.16,0.16l0,0.528c0,0.09 0.07,0.159 0.16,0.159l0.518,0c0.089,0 0.159,-0.069 0.159,-0.159l0,-0.528Zm-0.757,2.5c0.06,0 0.099,0.04 0.099,0.1l0,3.587c0,0.059 -0.039,0.099 -0.099,0.099l-1.345,0c-0.11,0 -0.199,0.09 -0.199,0.199l0,0.2c0,0.109 0.089,0.199 0.199,0.199l3.447,0c0.11,0 0.199,-0.09 0.199,-0.199l0,-0.2c0,-0.109 -0.089,-0.199 -0.199,-0.199l-1.305,0c-0.06,0 -0.1,-0.04 -0.1,-0.099l0,-4.085c0,-0.11 -0.089,-0.199 -0.199,-0.199l-1.744,0c-0.109,0 -0.199,0.089 -0.199,0.199l0,0.199c0,0.11 0.09,0.199 0.199,0.199l1.246,0Z" style="fill-rule:nonzero;"/><path d="M81.834,178.731c-0.01,0.847 -0.588,1.435 -1.494,1.435c-0.987,0 -1.495,-0.737 -1.495,-1.435l0,-0.159c0,-0.11 -0.09,-0.199 -0.199,-0.199l-0.249,0c-0.11,0 -0.199,0.089 -0.199,0.199l0,0.159c0,1.136 0.856,2.073 2.142,2.073c1.125,0 2.141,-0.767 2.141,-2.073c0,-1.225 -0.747,-1.663 -1.823,-1.992c-0.687,-0.209 -1.624,-0.299 -1.624,-1.196c0,-0.617 0.419,-1.235 1.306,-1.235c0.747,0 1.305,0.518 1.305,1.235l0,0.13c0,0.11 0.089,0.199 0.199,0.199l0.239,0c0.11,0 0.199,-0.089 0.199,-0.199l0,-0.13c0,-1.026 -0.767,-1.873 -1.942,-1.873c-1.027,0 -1.953,0.678 -1.953,1.873c0,1.166 0.946,1.545 1.674,1.714c1.135,0.269 1.783,0.568 1.773,1.474Z" style="fill-rule:nonzero;"/><path d="M86.635,180.495c0.119,0 0.179,0.09 0.239,0.159c0.04,0.04 0.08,0.07 0.139,0.07l0.16,0c0.109,0 0.199,-0.09 0.199,-0.199l0,-4.583c0,-0.11 -0.09,-0.199 -0.199,-0.199l-0.19,0c-0.109,0 -0.199,0.089 -0.199,0.199l0,3.198c0,0.618 -0.548,1.096 -1.265,1.096c-0.717,0 -1.265,-0.309 -1.265,-1.146l0,-3.148c0,-0.11 -0.09,-0.199 -0.2,-0.199l-0.189,0c-0.109,0 -0.199,0.089 -0.199,0.199l0,3.148c0,1.136 0.737,1.734 1.783,1.734c0.737,0 0.897,-0.329 1.186,-0.329Z" style="fill-rule:nonzero;"/><path d="M92.322,177.337c0,0.109 0.09,0.199 0.2,0.199l0.189,0c0.109,0 0.199,-0.09 0.199,-0.199c0,-1.036 -0.747,-1.694 -1.763,-1.694c-0.738,0 -0.927,0.329 -1.216,0.329c-0.099,0 -0.189,-0.09 -0.249,-0.16c-0.04,-0.039 -0.079,-0.069 -0.139,-0.069l-0.16,0c-0.109,0 -0.199,0.089 -0.199,0.199l0,4.583c0,0.109 0.09,0.199 0.199,0.199l0.19,0c0.109,0 0.199,-0.09 0.199,-0.199l0,-3.089c0,-0.697 0.558,-1.205 1.275,-1.205c0.797,0 1.275,0.478 1.275,1.106Z" style="fill-rule:nonzero;"/><path d="M95.34,176.38c0.06,0 0.099,0.04 0.099,0.1l0,4.045c0,0.109 0.09,0.199 0.2,0.199l0.199,0c0.11,0 0.199,-0.09 0.199,-0.199l0,-4.045c0,-0.06 0.04,-0.1 0.1,-0.1l1.634,0c0.109,0 0.199,-0.089 0.199,-0.199l0,-0.189c0,-0.11 -0.09,-0.199 -0.199,-0.199l-1.634,0c-0.06,0 -0.1,-0.04 -0.1,-0.1l0,-0.15c0,-0.697 0.339,-1.305 1.096,-1.305l0.448,0c0.11,0 0.2,-0.089 0.2,-0.199l0,-0.159c0,-0.11 -0.09,-0.2 -0.2,-0.2l-0.448,0c-0.996,0 -1.694,0.738 -1.694,1.863l0,0.15c0,0.06 -0.039,0.1 -0.099,0.1l-1.365,0c-0.11,0 -0.199,0.089 -0.199,0.199l0,0.189c0,0.11 0.089,0.199 0.199,0.199l1.365,0Z" style="fill-rule:nonzero;"/><path d="M102.273,178.323c0.059,0 0.099,0.04 0.099,0.1l0,0.597c0,0.807 -0.518,1.246 -1.434,1.246c-0.628,0 -1.176,-0.339 -1.176,-1.046c0,-0.588 0.498,-0.897 1.056,-0.897l1.455,0Zm-1.136,-2.132c0.697,0 1.205,0.448 1.205,1.096l0,0.388c0,0.06 -0.039,0.1 -0.099,0.1l-1.425,0c-1.046,0 -1.644,0.628 -1.644,1.455c0,0.846 0.588,1.594 1.814,1.594c0.737,0 1.135,-0.379 1.315,-0.379c0.129,0 0.149,0.13 0.199,0.209c0.03,0.05 0.08,0.07 0.139,0.07l0.09,0c0.11,0 0.199,-0.09 0.199,-0.199l0,-3.228c0,-1.136 -0.817,-1.654 -1.793,-1.654c-0.847,0 -1.734,0.468 -1.734,1.395c0,0.119 0.05,0.199 0.2,0.199l0.139,0c0.09,0 0.229,0 0.229,-0.169c0,-0.528 0.568,-0.877 1.166,-0.877Z" style="fill-rule:nonzero;"/><path d="M106.316,180.236c-0.996,0 -1.355,-0.777 -1.404,-1.305c-0.04,-0.409 -0.04,-0.987 0,-1.395c0.049,-0.528 0.408,-1.305 1.404,-1.305c0.817,0 1.286,0.548 1.286,1.146c0,0.109 0.099,0.159 0.189,0.159l0.229,0c0.11,0 0.169,-0.09 0.169,-0.199c0,-0.897 -0.757,-1.694 -1.873,-1.694c-1.195,0 -1.932,0.847 -2.012,1.893c-0.03,0.398 -0.03,0.996 0,1.395c0.08,1.046 0.817,1.893 2.012,1.893c1.116,0 1.873,-0.797 1.873,-1.694c0,-0.11 -0.089,-0.199 -0.199,-0.199l-0.209,0c-0.09,0 -0.189,0.04 -0.189,0.169c0,0.518 -0.399,1.136 -1.276,1.136Z" style="fill-rule:nonzero;"/><path d="M109.991,178.572c0,-0.06 0.04,-0.1 0.1,-0.1l3.158,0c0.11,0 0.199,-0.089 0.199,-0.199l0,-0.637c0,-1.096 -0.876,-1.993 -1.992,-1.993c-1.196,0 -1.963,0.847 -2.042,1.893c-0.03,0.398 -0.03,0.996 0,1.395c0.079,1.046 0.846,1.893 2.042,1.893c1.036,0 1.813,-0.628 1.933,-1.495c0.02,-0.139 -0.07,-0.199 -0.17,-0.199l-0.199,0c-0.09,0 -0.189,0.04 -0.229,0.169c-0.149,0.469 -0.568,0.937 -1.335,0.937c-1.026,0 -1.465,-0.708 -1.465,-1.664Zm0.02,-0.757c0,-1.016 0.568,-1.584 1.455,-1.584c0.817,0 1.435,0.568 1.435,1.584c0,0.06 -0.04,0.1 -0.1,0.1l-2.69,0c-0.06,0 -0.1,-0.04 -0.1,-0.1Z" style="fill-rule:nonzero;"/></g><path d="M78.019,123.381l-17.152,13.949l28.357,0l17.152,-13.949l-28.357,0Z" style="fill:#d4d4d4;stroke:#000;stroke-width:1.2px;"/><path d="M76.318,124.763l4.382,12.566" style="fill:#fff;stroke:#000;stroke-width:1.2px;"/><path d="M71.122,109.86l11.136,-7.47l13.201,40.299l-8.541,12.473l-15.796,-45.302Z" style="fill:#bfbfbf;stroke:#000;stroke-width:1.2px;"/><path d="M92.761,134.453l-3.536,2.876l-8.525,0" style="fill:none;stroke:#000;stroke-width:1.2px;"/><rect x="62.033" y="139.255" width="28.358" height="27.672" style="fill:#bfbfbf;stroke:#000;stroke-width:1.2px;"/><path d="M90.391,150.091l-3.473,5.071l-5.547,-15.907" style="fill:none;stroke:#000;stroke-width:0.4px;stroke-dasharray:1,3;"/><path d="M89.134,123.379l-11.116,0l-1.7,1.384" style="fill:none;stroke:#000;stroke-width:0.4px;stroke-dasharray:1,3;"/><path d="M90.39,127.213l-10.422,8.016" style="fill:none;stroke:#000;stroke-width:0.4px;stroke-dasharray:1,3;"/><path d="M72.922,109.86c0,-0.994 -0.806,-1.8 -1.8,-1.8c-0.995,0 -1.8,0.806 -1.8,1.8c0,0.994 0.805,1.8 1.8,1.8c0.994,0 1.8,-0.806 1.8,-1.8"/><path d="M84.058,102.39c0,-0.994 -0.806,-1.8 -1.8,-1.8c-0.995,0 -1.8,0.806 -1.8,1.8c0,0.994 0.805,1.8 1.8,1.8c0.994,0 1.8,-0.806 1.8,-1.8"/><path d="M108.176,123.38c0,-0.994 -0.806,-1.8 -1.8,-1.8c-0.995,0 -1.8,0.806 -1.8,1.8c0,0.994 0.805,1.8 1.8,1.8c0.994,0 1.8,-0.806 1.8,-1.8"/><path d="M91.025,137.329c0,-0.994 -0.806,-1.8 -1.8,-1.8c-0.995,0 -1.8,0.806 -1.8,1.8c0,0.994 0.805,1.8 1.8,1.8c0.994,0 1.8,-0.806 1.8,-1.8"/><path d="M92.191,139.255c0,-0.994 -0.806,-1.8 -1.8,-1.8c-0.995,0 -1.8,0.806 -1.8,1.8c0,0.994 0.805,1.8 1.8,1.8c0.994,0 1.8,-0.806 1.8,-1.8"/><path d="M97.26,142.689c0,-0.994 -0.806,-1.8 -1.8,-1.8c-0.995,0 -1.8,0.806 -1.8,1.8c0,0.994 0.805,1.8 1.8,1.8c0.994,0 1.8,-0.806 1.8,-1.8"/><path d="M92.191,166.926c0,-0.994 -0.806,-1.8 -1.8,-1.8c-0.995,0 -1.8,0.806 -1.8,1.8c0,0.994 0.805,1.8 1.8,1.8c0.994,0 1.8,-0.806 1.8,-1.8"/><path d="M63.833,166.926c0,-0.994 -0.806,-1.8 -1.8,-1.8c-0.994,0 -1.8,0.806 -1.8,1.8c0,0.994 0.806,1.8 1.8,1.8c0.994,0 1.8,-0.806 1.8,-1.8"/><path d="M63.833,139.255c0,-0.994 -0.806,-1.8 -1.8,-1.8c-0.994,0 -1.8,0.806 -1.8,1.8c0,0.994 0.806,1.8 1.8,1.8c0.994,0 1.8,-0.806 1.8,-1.8"/><path d="M62.667,137.329c0,-0.994 -0.806,-1.8 -1.8,-1.8c-0.994,0 -1.8,0.806 -1.8,1.8c0,0.994 0.806,1.8 1.8,1.8c0.994,0 1.8,-0.806 1.8,-1.8"/><path d="M79.519,123.38c0,-0.828 -0.672,-1.5 -1.5,-1.5c-0.829,0 -1.5,0.672 -1.5,1.5c0,0.829 0.671,1.5 1.5,1.5c0.828,0 1.5,-0.671 1.5,-1.5" style="fill:#fff;"/><path d="M79.819,123.38c0,-0.994 -0.806,-1.8 -1.8,-1.8c-0.995,0 -1.8,0.806 -1.8,1.8c0,0.994 0.805,1.8 1.8,1.8c0.994,0 1.8,-0.806 1.8,-1.8m-0.6,0c0,-0.662 -0.538,-1.2 -1.2,-1.2c-0.663,0 -1.2,0.538 -1.2,1.2c0,0.663 0.537,1.2 1.2,1.2c0.662,0 1.2,-0.537 1.2,-1.2"/><path d="M79.519,123.38c0,-0.828 -0.672,-1.5 -1.5,-1.5c-0.829,0 -1.5,0.672 -1.5,1.5c0,0.829 0.671,1.5 1.5,1.5c0.828,0 1.5,-0.671 1.5,-1.5" style="fill:#fff;"/><path d="M79.819,123.38c0,-0.994 -0.806,-1.8 -1.8,-1.8c-0.995,0 -1.8,0.806 -1.8,1.8c0,0.994 0.805,1.8 1.8,1.8c0.994,0 1.8,-0.806 1.8,-1.8m-0.6,0c0,-0.662 -0.538,-1.2 -1.2,-1.2c-0.663,0 -1.2,0.538 -1.2,1.2c0,0.663 0.537,1.2 1.2,1.2c0.662,0 1.2,-0.537 1.2,-1.2"/><path d="M88.094,154.628c0,-0.829 -0.672,-1.5 -1.5,-1.5c-0.829,0 -1.5,0.671 -1.5,1.5c0,0.828 0.671,1.5 1.5,1.5c0.828,0 1.5,-0.672 1.5,-1.5" style="fill:#fff;"/><path d="M88.394,154.628c0,-0.994 -0.806,-1.8 -1.8,-1.8c-0.994,0 -1.8,0.806 -1.8,1.8c0,0.994 0.806,1.8 1.8,1.8c0.994,0 1.8,-0.806 1.8,-1.8m-0.6,0c0,-0.663 -0.538,-1.2 -1.2,-1.2c-0.663,0 -1.2,0.537 -1.2,1.2c0,0.663 0.537,1.2 1.2,1.2c0.662,0 1.2,-0.537 1.2,-1.2"/><path d="M88.094,154.628c0,-0.829 -0.672,-1.5 -1.5,-1.5c-0.829,0 -1.5,0.671 -1.5,1.5c0,0.828 0.671,1.5 1.5,1.5c0.828,0 1.5,-0.672 1.5,-1.5" style="fill:#fff;"/><path d="M88.394,154.628c0,-0.994 -0.806,-1.8 -1.8,-1.8c-0.994,0 -1.8,0.806 -1.8,1.8c0,0.994 0.806,1.8 1.8,1.8c0.994,0 1.8,-0.806 1.8,-1.8m-0.6,0c0,-0.663 -0.538,-1.2 -1.2,-1.2c-0.663,0 -1.2,0.537 -1.2,1.2c0,0.663 0.537,1.2 1.2,1.2c0.662,0 1.2,-0.537 1.2,-1.2"/><g><path d="M105.376,263.92c-0.039,-0.12 -0.099,-0.17 -0.209,-0.17l-0.598,0c-0.109,0 -0.199,0.09 -0.199,0.199l0,6.576c0,0.109 0.09,0.199 0.199,0.199l0.2,0c0.109,0 0.199,-0.09 0.199,-0.199l0,-5.709c0,-0.06 0.08,-0.08 0.1,-0.02l1.026,3.268c0.04,0.12 0.099,0.169 0.209,0.169l0.279,0c0.109,0 0.169,-0.049 0.209,-0.169l1.026,-3.268c0.02,-0.06 0.1,-0.04 0.1,0.02l0,5.709c0,0.109 0.09,0.199 0.199,0.199l0.199,0c0.11,0 0.2,-0.09 0.2,-0.199l0,-6.576c0,-0.109 -0.09,-0.199 -0.2,-0.199l-0.597,0c-0.11,0 -0.17,0.05 -0.21,0.17l-1.016,3.188c-0.02,0.049 -0.089,0.039 -0.099,0l-1.017,-3.188Z" style="fill-rule:nonzero;"/><path d="M112.738,270.495c0.119,0 0.179,0.09 0.239,0.159c0.04,0.04 0.079,0.07 0.139,0.07l0.16,0c0.109,0 0.199,-0.09 0.199,-0.199l0,-4.583c0,-0.11 -0.09,-0.199 -0.199,-0.199l-0.19,0c-0.109,0 -0.199,0.089 -0.199,0.199l0,3.198c0,0.618 -0.548,1.096 -1.265,1.096c-0.717,0 -1.265,-0.309 -1.265,-1.146l0,-3.148c0,-0.11 -0.09,-0.199 -0.2,-0.199l-0.189,0c-0.11,0 -0.199,0.089 -0.199,0.199l0,3.148c0,1.136 0.737,1.734 1.783,1.734c0.737,0 0.897,-0.329 1.186,-0.329Z" style="fill-rule:nonzero;"/><path d="M116.413,264.278c0.059,0 0.099,0.04 0.099,0.1l0,5.649c0,0.059 -0.059,0.099 -0.119,0.099l-1.385,0c-0.11,0 -0.199,0.09 -0.199,0.199l0,0.2c0,0.109 0.089,0.199 0.199,0.199l3.467,0c0.11,0 0.199,-0.09 0.199,-0.199l0,-0.2c0,-0.109 -0.089,-0.199 -0.199,-0.199l-1.265,0c-0.06,0 -0.1,-0.04 -0.1,-0.099l0,-6.147c0,-0.11 -0.09,-0.2 -0.199,-0.2l-1.704,0c-0.109,0 -0.199,0.09 -0.199,0.2l0,0.199c0,0.11 0.09,0.199 0.199,0.199l1.206,0Z" style="fill-rule:nonzero;"/><path d="M121.622,266.48c0,-0.06 0.04,-0.1 0.1,-0.1l1.653,0c0.11,0 0.2,-0.089 0.2,-0.199l0,-0.189c0,-0.11 -0.09,-0.199 -0.2,-0.199l-1.653,0c-0.06,0 -0.1,-0.04 -0.1,-0.1l0,-1.544c0,-0.11 -0.09,-0.2 -0.199,-0.2l-0.199,0c-0.11,0 -0.2,0.09 -0.2,0.2l0,1.544c0,0.06 -0.04,0.1 -0.099,0.1l-1.106,0c-0.11,0 -0.199,0.089 -0.199,0.199l0,0.189c0,0.11 0.089,0.199 0.199,0.199l1.106,0c0.059,0 0.099,0.04 0.099,0.1l0,2.75c0,0.876 0.668,1.594 1.544,1.594c0.877,0 1.525,-0.718 1.525,-1.594c0,-0.11 -0.09,-0.2 -0.2,-0.2l-0.209,0c-0.109,0 -0.199,0.09 -0.199,0.2c0,0.558 -0.349,0.996 -0.917,0.996c-0.508,0 -0.946,-0.399 -0.946,-1.096l0,-2.65Z" style="fill-rule:nonzero;"/><path d="M127.728,263.84c0,-0.08 -0.07,-0.16 -0.159,-0.16l-0.518,0c-0.09,0 -0.16,0.08 -0.16,0.16l0,0.528c0,0.09 0.07,0.159 0.16,0.159l0.518,0c0.089,0 0.159,-0.069 0.159,-0.159l0,-0.528Zm-0.757,2.5c0.06,0 0.099,0.04 0.099,0.1l0,3.587c0,0.059 -0.039,0.099 -0.099,0.099l-1.345,0c-0.11,0 -0.199,0.09 -0.199,0.199l0,0.2c0,0.109 0.089,0.199 0.199,0.199l3.447,0c0.11,0 0.199,-0.09 0.199,-0.199l0,-0.2c0,-0.109 -0.089,-0.199 -0.199,-0.199l-1.305,0c-0.06,0 -0.1,-0.04 -0.1,-0.099l0,-4.085c0,-0.11 -0.089,-0.199 -0.199,-0.199l-1.744,0c-0.109,0 -0.199,0.089 -0.199,0.199l0,0.199c0,0.11 0.09,0.199 0.199,0.199l1.246,0Z" style="fill-rule:nonzero;"/><path d="M133.834,268.731c-0.01,0.847 -0.588,1.435 -1.494,1.435c-0.987,0 -1.495,-0.737 -1.495,-1.435l0,-0.159c0,-0.11 -0.09,-0.199 -0.199,-0.199l-0.249,0c-0.11,0 -0.199,0.089 -0.199,0.199l0,0.159c0,1.136 0.856,2.073 2.142,2.073c1.125,0 2.141,-0.767 2.141,-2.073c0,-1.225 -0.747,-1.663 -1.823,-1.992c-0.687,-0.209 -1.624,-0.299 -1.624,-1.196c0,-0.617 0.419,-1.235 1.306,-1.235c0.747,0 1.305,0.518 1.305,1.235l0,0.13c0,0.11 0.089,0.199 0.199,0.199l0.239,0c0.11,0 0.199,-0.089 0.199,-0.199l0,-0.13c0,-1.026 -0.767,-1.873 -1.942,-1.873c-1.027,0 -1.953,0.678 -1.953,1.873c0,1.166 0.946,1.545 1.674,1.714c1.135,0.269 1.783,0.568 1.773,1.474Z" style="fill-rule:nonzero;"/><path d="M137.519,265.643c-1.196,0 -1.933,0.847 -2.012,1.893c-0.03,0.398 -0.03,0.996 0,1.395c0.079,1.046 0.816,1.893 2.012,1.893c1.195,0 1.933,-0.847 2.012,-1.893c0.03,-0.399 0.03,-0.997 0,-1.395c-0.079,-1.046 -0.817,-1.893 -2.012,-1.893Zm0,4.593c-0.996,0 -1.355,-0.777 -1.405,-1.305c-0.04,-0.409 -0.04,-0.987 0,-1.395c0.05,-0.528 0.409,-1.305 1.405,-1.305c0.996,0 1.355,0.777 1.405,1.305c0.04,0.408 0.04,0.986 0,1.395c-0.05,0.528 -0.409,1.305 -1.405,1.305Z" style="fill-rule:nonzero;"/><path d="M142.31,264.278c0.06,0 0.099,0.04 0.099,0.1l0,5.649c0,0.059 -0.059,0.099 -0.119,0.099l-1.385,0c-0.109,0 -0.199,0.09 -0.199,0.199l0,0.2c0,0.109 0.09,0.199 0.199,0.199l3.467,0c0.11,0 0.199,-0.09 0.199,-0.199l0,-0.2c0,-0.109 -0.089,-0.199 -0.199,-0.199l-1.265,0c-0.06,0 -0.1,-0.04 -0.1,-0.099l0,-6.147c0,-0.11 -0.089,-0.2 -0.199,-0.2l-1.704,0c-0.109,0 -0.199,0.09 -0.199,0.2l0,0.199c0,0.11 0.09,0.199 0.199,0.199l1.206,0Z" style="fill-rule:nonzero;"/><path d="M148.446,263.84c0,-0.08 -0.07,-0.16 -0.16,-0.16l-0.518,0c-0.089,0 -0.159,0.08 -0.159,0.16l0,0.528c0,0.09 0.07,0.159 0.159,0.159l0.518,0c0.09,0 0.16,-0.069 0.16,-0.159l0,-0.528Zm-0.757,2.5c0.059,0 0.099,0.04 0.099,0.1l0,3.587c0,0.059 -0.04,0.099 -0.099,0.099l-1.345,0c-0.11,0 -0.2,0.09 -0.2,0.199l0,0.2c0,0.109 0.09,0.199 0.2,0.199l3.447,0c0.109,0 0.199,-0.09 0.199,-0.199l0,-0.2c0,-0.109 -0.09,-0.199 -0.199,-0.199l-1.305,0c-0.06,0 -0.1,-0.04 -0.1,-0.099l0,-4.085c0,-0.11 -0.09,-0.199 -0.199,-0.199l-1.744,0c-0.109,0 -0.199,0.089 -0.199,0.199l0,0.199c0,0.11 0.09,0.199 0.199,0.199l1.246,0Z" style="fill-rule:nonzero;"/><path d="M153.127,270.236c-0.976,0 -1.275,-0.777 -1.335,-1.305c-0.05,-0.409 -0.05,-0.987 0,-1.395c0.06,-0.528 0.369,-1.305 1.335,-1.305c0.887,0 1.176,0.777 1.225,1.305c0.04,0.408 0.04,0.986 0,1.395c-0.049,0.528 -0.338,1.305 -1.225,1.305Zm-0.05,0.588c0.737,0 0.847,-0.329 1.136,-0.329c0.1,0 0.189,0.09 0.249,0.159c0.04,0.04 0.08,0.07 0.139,0.07l0.16,0c0.109,0 0.199,-0.09 0.199,-0.199l0,-6.645c0,-0.11 -0.09,-0.2 -0.199,-0.2l-0.189,0c-0.11,0 -0.2,0.09 -0.2,0.2l0,1.763c0,0.189 -0.099,0.249 -0.249,0.249c-0.199,0 -0.408,-0.249 -1.046,-0.249c-1.046,0 -1.813,0.847 -1.893,1.893c-0.03,0.398 -0.03,0.996 0,1.395c0.08,1.046 0.847,1.893 1.893,1.893Z" style="fill-rule:nonzero;"/></g><g><path d="M203.036,266.839c0,0.587 -0.478,1.434 -1.554,1.434c-1.076,0 -1.474,-0.857 -1.554,-1.434c-0.119,-0.817 -0.119,-2.172 0,-2.989c0.11,-0.727 0.608,-1.435 1.554,-1.435c0.947,0 1.554,0.698 1.554,1.435l0,0.04c0,0.109 0.09,0.199 0.2,0.199l0.269,0c0.109,0 0.199,-0.09 0.199,-0.199l0,-0.04c0,-1.096 -0.907,-2.072 -2.222,-2.072c-1.315,0 -2.072,0.986 -2.221,2.072c-0.11,0.797 -0.11,2.182 0,2.989c0.169,1.285 1.026,2.072 2.221,2.072c1.196,0 2.222,-0.777 2.222,-2.072l0,-0.04c0,-0.11 -0.09,-0.2 -0.199,-0.2l-0.269,0c-0.11,0 -0.2,0.09 -0.2,0.2l0,0.04Z" style="fill-rule:nonzero;"/><path d="M206.622,263.75c-1.196,0 -1.933,0.847 -2.013,1.893c-0.03,0.399 -0.03,0.996 0,1.395c0.08,1.046 0.817,1.893 2.013,1.893c1.195,0 1.933,-0.847 2.012,-1.893c0.03,-0.399 0.03,-0.996 0,-1.395c-0.079,-1.046 -0.817,-1.893 -2.012,-1.893Zm0,4.593c-0.996,0 -1.355,-0.777 -1.405,-1.305c-0.04,-0.409 -0.04,-0.986 0,-1.395c0.05,-0.528 0.409,-1.305 1.405,-1.305c0.996,0 1.355,0.777 1.405,1.305c0.039,0.409 0.039,0.986 0,1.395c-0.05,0.528 -0.409,1.305 -1.405,1.305Z" style="fill-rule:nonzero;"/><path d="M211.931,264.109c-0.03,0.04 -0.07,0.06 -0.11,0.06c-0.04,0 -0.08,-0.03 -0.099,-0.06c-0.13,-0.179 -0.329,-0.359 -0.688,-0.359c-0.468,0 -0.588,0.249 -0.697,0.249c-0.07,0 -0.09,-0.03 -0.13,-0.079c-0.04,-0.04 -0.079,-0.07 -0.139,-0.07l-0.06,0c-0.11,0 -0.199,0.089 -0.199,0.199l0,4.583c0,0.109 0.089,0.199 0.199,0.199l0.189,0c0.11,0 0.2,-0.09 0.2,-0.199l0,-3.816c0,-0.289 0.298,-0.478 0.557,-0.478c0.259,0 0.548,0.189 0.548,0.478l0,3.816c0,0.109 0.09,0.199 0.2,0.199l0.189,0c0.109,0 0.199,-0.09 0.199,-0.199l0,-3.816c0,-0.289 0.269,-0.478 0.528,-0.478c0.259,0 0.568,0.129 0.568,0.478l0,3.816c0,0.109 0.09,0.199 0.199,0.199l0.19,0c0.109,0 0.199,-0.09 0.199,-0.199l0,-3.686c0,-0.608 -0.289,-1.196 -0.986,-1.196c-0.499,0 -0.738,0.209 -0.857,0.359Z" style="fill-rule:nonzero;"/><path d="M216.911,264.338c0.976,0 1.275,0.777 1.335,1.305c0.05,0.409 0.05,0.986 0,1.395c-0.06,0.528 -0.369,1.305 -1.335,1.305c-0.887,0 -1.176,-0.777 -1.225,-1.305c-0.04,-0.409 -0.04,-0.986 0,-1.395c0.049,-0.528 0.338,-1.305 1.225,-1.305Zm0.05,-0.588c-0.737,0 -0.847,0.329 -1.136,0.329c-0.1,0 -0.189,-0.09 -0.249,-0.159c-0.04,-0.04 -0.08,-0.07 -0.14,-0.07l-0.159,0c-0.11,0 -0.199,0.089 -0.199,0.199l0,6.575c0,0.11 0.089,0.2 0.199,0.2l0.189,0c0.11,0 0.2,-0.09 0.2,-0.2l0,-1.693c0,-0.19 0.099,-0.249 0.229,-0.249c0.199,0 0.428,0.249 1.066,0.249c1.046,0 1.813,-0.847 1.893,-1.893c0.03,-0.399 0.03,-0.996 0,-1.395c-0.08,-1.046 -0.847,-1.893 -1.893,-1.893Z" style="fill-rule:nonzero;"/><path d="M222.16,263.75c-1.195,0 -1.933,0.847 -2.012,1.893c-0.03,0.399 -0.03,0.996 0,1.395c0.079,1.046 0.817,1.893 2.012,1.893c1.196,0 1.933,-0.847 2.013,-1.893c0.029,-0.399 0.029,-0.996 0,-1.395c-0.08,-1.046 -0.817,-1.893 -2.013,-1.893Zm0,4.593c-0.996,0 -1.355,-0.777 -1.405,-1.305c-0.039,-0.409 -0.039,-0.986 0,-1.395c0.05,-0.528 0.409,-1.305 1.405,-1.305c0.996,0 1.355,0.777 1.405,1.305c0.04,0.409 0.04,0.986 0,1.395c-0.05,0.528 -0.409,1.305 -1.405,1.305Z" style="fill-rule:nonzero;"/><path d="M225.417,267.207c0,1.126 0.926,1.724 1.923,1.724c1.155,0 1.912,-0.708 1.912,-1.544c0,-1.096 -1.125,-1.365 -1.962,-1.515c-0.488,-0.089 -1.106,-0.199 -1.106,-0.747c0,-0.418 0.458,-0.817 1.156,-0.817c0.697,0 1.135,0.428 1.135,0.937c0,0.109 0.09,0.199 0.2,0.199l0.189,0c0.109,0 0.199,-0.09 0.199,-0.199c0,-0.947 -0.827,-1.495 -1.723,-1.495c-0.907,0 -1.754,0.598 -1.754,1.375c0,0.917 0.827,1.215 1.704,1.345c0.607,0.09 1.375,0.289 1.375,0.917c0,0.538 -0.509,0.966 -1.325,0.966c-0.738,0 -1.335,-0.419 -1.335,-1.146c0,-0.109 -0.09,-0.199 -0.2,-0.199l-0.189,0c-0.11,0 -0.199,0.09 -0.199,0.199Z" style="fill-rule:nonzero;"/><path d="M233.087,261.947c0,-0.08 -0.07,-0.159 -0.16,-0.159l-0.518,0c-0.089,0 -0.159,0.079 -0.159,0.159l0,0.528c0,0.09 0.07,0.159 0.159,0.159l0.518,0c0.09,0 0.16,-0.069 0.16,-0.159l0,-0.528Zm-0.757,2.501c0.059,0 0.099,0.039 0.099,0.099l0,3.587c0,0.059 -0.04,0.099 -0.099,0.099l-1.345,0c-0.11,0 -0.2,0.09 -0.2,0.2l0,0.199c0,0.109 0.09,0.199 0.2,0.199l3.447,0c0.109,0 0.199,-0.09 0.199,-0.199l0,-0.199c0,-0.11 -0.09,-0.2 -0.199,-0.2l-1.305,0c-0.06,0 -0.1,-0.04 -0.1,-0.099l0,-4.085c0,-0.11 -0.09,-0.199 -0.199,-0.199l-1.744,0c-0.109,0 -0.199,0.089 -0.199,0.199l0,0.199c0,0.11 0.09,0.2 0.199,0.2l1.246,0Z" style="fill-rule:nonzero;"/><path d="M237.34,264.587c0,-0.06 0.04,-0.1 0.099,-0.1l1.654,0c0.11,0 0.199,-0.089 0.199,-0.199l0,-0.189c0,-0.11 -0.089,-0.199 -0.199,-0.199l-1.654,0c-0.059,0 -0.099,-0.04 -0.099,-0.1l0,-1.544c0,-0.11 -0.09,-0.199 -0.2,-0.199l-0.199,0c-0.109,0 -0.199,0.089 -0.199,0.199l0,1.544c0,0.06 -0.04,0.1 -0.1,0.1l-1.105,0c-0.11,0 -0.2,0.089 -0.2,0.199l0,0.189c0,0.11 0.09,0.199 0.2,0.199l1.105,0c0.06,0 0.1,0.04 0.1,0.1l0,2.75c0,0.876 0.667,1.594 1.544,1.594c0.877,0 1.524,-0.718 1.524,-1.594c0,-0.11 -0.089,-0.2 -0.199,-0.2l-0.209,0c-0.11,0 -0.199,0.09 -0.199,0.2c0,0.558 -0.349,0.996 -0.917,0.996c-0.508,0 -0.946,-0.399 -0.946,-1.096l0,-2.65Z" style="fill-rule:nonzero;"/><path d="M241.453,266.679c0,-0.06 0.04,-0.099 0.1,-0.099l3.158,0c0.11,0 0.199,-0.09 0.199,-0.2l0,-0.637c0,-1.096 -0.877,-1.993 -1.992,-1.993c-1.196,0 -1.963,0.847 -2.043,1.893c-0.03,0.399 -0.03,0.996 0,1.395c0.08,1.046 0.847,1.893 2.043,1.893c1.036,0 1.813,-0.628 1.932,-1.495c0.02,-0.139 -0.069,-0.199 -0.169,-0.199l-0.199,0c-0.09,0 -0.189,0.04 -0.229,0.169c-0.15,0.469 -0.568,0.937 -1.335,0.937c-1.026,0 -1.465,-0.707 -1.465,-1.664Zm0.02,-0.757c0,-1.016 0.568,-1.584 1.455,-1.584c0.817,0 1.434,0.568 1.434,1.584c0,0.06 -0.04,0.1 -0.099,0.1l-2.69,0c-0.06,0 -0.1,-0.04 -0.1,-0.1Z" style="fill-rule:nonzero;"/><path d="M249.552,266.839c-0.01,0.846 -0.588,1.434 -1.495,1.434c-0.986,0 -1.494,-0.737 -1.494,-1.434l0,-0.16c0,-0.109 -0.09,-0.199 -0.199,-0.199l-0.249,0c-0.11,0 -0.2,0.09 -0.2,0.199l0,0.16c0,1.135 0.857,2.072 2.142,2.072c1.126,0 2.142,-0.767 2.142,-2.072c0,-1.226 -0.747,-1.664 -1.823,-1.993c-0.687,-0.209 -1.624,-0.299 -1.624,-1.195c0,-0.618 0.419,-1.236 1.305,-1.236c0.747,0 1.305,0.518 1.305,1.236l0,0.129c0,0.11 0.09,0.199 0.2,0.199l0.239,0c0.109,0 0.199,-0.089 0.199,-0.199l0,-0.129c0,-1.027 -0.767,-1.873 -1.943,-1.873c-1.026,0 -1.952,0.677 -1.952,1.873c0,1.165 0.946,1.544 1.673,1.713c1.136,0.269 1.784,0.568 1.774,1.475Z" style="fill-rule:nonzero;"/><path d="M253.237,263.75c-1.196,0 -1.933,0.847 -2.013,1.893c-0.03,0.399 -0.03,0.996 0,1.395c0.08,1.046 0.817,1.893 2.013,1.893c1.195,0 1.932,-0.847 2.012,-1.893c0.03,-0.399 0.03,-0.996 0,-1.395c-0.08,-1.046 -0.817,-1.893 -2.012,-1.893Zm0,4.593c-0.997,0 -1.355,-0.777 -1.405,-1.305c-0.04,-0.409 -0.04,-0.986 0,-1.395c0.05,-0.528 0.408,-1.305 1.405,-1.305c0.996,0 1.355,0.777 1.404,1.305c0.04,0.409 0.04,0.986 0,1.395c-0.049,0.528 -0.408,1.305 -1.404,1.305Z" style="fill-rule:nonzero;"/><path d="M258.028,262.385c0.059,0 0.099,0.04 0.099,0.1l0,5.649c0,0.059 -0.06,0.099 -0.119,0.099l-1.385,0c-0.11,0 -0.199,0.09 -0.199,0.2l0,0.199c0,0.109 0.089,0.199 0.199,0.199l3.467,0c0.109,0 0.199,-0.09 0.199,-0.199l0,-0.199c0,-0.11 -0.09,-0.2 -0.199,-0.2l-1.265,0c-0.06,0 -0.1,-0.04 -0.1,-0.099l0,-6.147c0,-0.11 -0.09,-0.199 -0.199,-0.199l-1.704,0c-0.109,0 -0.199,0.089 -0.199,0.199l0,0.199c0,0.11 0.09,0.199 0.199,0.199l1.206,0Z" style="fill-rule:nonzero;"/><path d="M264.163,261.947c0,-0.08 -0.069,-0.159 -0.159,-0.159l-0.518,0c-0.09,0 -0.159,0.079 -0.159,0.159l0,0.528c0,0.09 0.069,0.159 0.159,0.159l0.518,0c0.09,0 0.159,-0.069 0.159,-0.159l0,-0.528Zm-0.757,2.501c0.06,0 0.1,0.039 0.1,0.099l0,3.587c0,0.059 -0.04,0.099 -0.1,0.099l-1.345,0c-0.109,0 -0.199,0.09 -0.199,0.2l0,0.199c0,0.109 0.09,0.199 0.199,0.199l3.447,0c0.11,0 0.2,-0.09 0.2,-0.199l0,-0.199c0,-0.11 -0.09,-0.2 -0.2,-0.2l-1.305,0c-0.06,0 -0.099,-0.04 -0.099,-0.099l0,-4.085c0,-0.11 -0.09,-0.199 -0.2,-0.199l-1.743,0c-0.11,0 -0.199,0.089 -0.199,0.199l0,0.199c0,0.11 0.089,0.2 0.199,0.2l1.245,0Z" style="fill-rule:nonzero;"/><path d="M268.845,268.343c-0.977,0 -1.276,-0.777 -1.335,-1.305c-0.05,-0.409 -0.05,-0.986 0,-1.395c0.059,-0.528 0.368,-1.305 1.335,-1.305c0.886,0 1.175,0.777 1.225,1.305c0.04,0.409 0.04,0.986 0,1.395c-0.05,0.528 -0.339,1.305 -1.225,1.305Zm-0.05,0.588c0.737,0 0.847,-0.329 1.136,-0.329c0.099,0 0.189,0.09 0.249,0.159c0.04,0.04 0.079,0.07 0.139,0.07l0.16,0c0.109,0 0.199,-0.09 0.199,-0.199l0,-6.645c0,-0.11 -0.09,-0.199 -0.199,-0.199l-0.19,0c-0.109,0 -0.199,0.089 -0.199,0.199l0,1.763c0,0.189 -0.1,0.249 -0.249,0.249c-0.199,0 -0.408,-0.249 -1.046,-0.249c-1.046,0 -1.813,0.847 -1.893,1.893c-0.03,0.399 -0.03,0.996 0,1.395c0.08,1.046 0.847,1.893 1.893,1.893Z" style="fill-rule:nonzero;"/></g><g><path d="M22.525,268.731c-0.01,0.847 -0.588,1.435 -1.494,1.435c-0.987,0 -1.495,-0.737 -1.495,-1.435l0,-0.159c0,-0.11 -0.089,-0.199 -0.199,-0.199l-0.249,0c-0.11,0 -0.199,0.089 -0.199,0.199l0,0.159c0,1.136 0.857,2.073 2.142,2.073c1.125,0 2.142,-0.767 2.142,-2.073c0,-1.225 -0.748,-1.663 -1.824,-1.992c-0.687,-0.209 -1.623,-0.299 -1.623,-1.196c0,-0.617 0.418,-1.235 1.305,-1.235c0.747,0 1.305,0.518 1.305,1.235l0,0.13c0,0.11 0.089,0.199 0.199,0.199l0.239,0c0.11,0 0.199,-0.089 0.199,-0.199l0,-0.13c0,-1.026 -0.767,-1.873 -1.942,-1.873c-1.026,0 -1.953,0.678 -1.953,1.873c0,1.166 0.946,1.545 1.674,1.714c1.135,0.269 1.783,0.568 1.773,1.474Z" style="fill-rule:nonzero;"/><path d="M26.21,265.643c-1.195,0 -1.933,0.847 -2.012,1.893c-0.03,0.398 -0.03,0.996 0,1.395c0.079,1.046 0.817,1.893 2.012,1.893c1.196,0 1.933,-0.847 2.013,-1.893c0.029,-0.399 0.029,-0.997 0,-1.395c-0.08,-1.046 -0.817,-1.893 -2.013,-1.893Zm0,4.593c-0.996,0 -1.355,-0.777 -1.405,-1.305c-0.039,-0.409 -0.039,-0.987 0,-1.395c0.05,-0.528 0.409,-1.305 1.405,-1.305c0.996,0 1.355,0.777 1.405,1.305c0.04,0.408 0.04,0.986 0,1.395c-0.05,0.528 -0.409,1.305 -1.405,1.305Z" style="fill-rule:nonzero;"/><path d="M31.001,264.278c0.06,0 0.1,0.04 0.1,0.1l0,5.649c0,0.059 -0.06,0.099 -0.12,0.099l-1.385,0c-0.109,0 -0.199,0.09 -0.199,0.199l0,0.2c0,0.109 0.09,0.199 0.199,0.199l3.467,0c0.11,0 0.2,-0.09 0.2,-0.199l0,-0.2c0,-0.109 -0.09,-0.199 -0.2,-0.199l-1.265,0c-0.06,0 -0.1,-0.04 -0.1,-0.099l0,-6.147c0,-0.11 -0.089,-0.2 -0.199,-0.2l-1.703,0c-0.11,0 -0.2,0.09 -0.2,0.2l0,0.199c0,0.11 0.09,0.199 0.2,0.199l1.205,0Z" style="fill-rule:nonzero;"/><path d="M37.137,263.84c0,-0.08 -0.07,-0.16 -0.16,-0.16l-0.518,0c-0.089,0 -0.159,0.08 -0.159,0.16l0,0.528c0,0.09 0.07,0.159 0.159,0.159l0.518,0c0.09,0 0.16,-0.069 0.16,-0.159l0,-0.528Zm-0.757,2.5c0.059,0 0.099,0.04 0.099,0.1l0,3.587c0,0.059 -0.04,0.099 -0.099,0.099l-1.345,0c-0.11,0 -0.2,0.09 -0.2,0.199l0,0.2c0,0.109 0.09,0.199 0.2,0.199l3.447,0c0.109,0 0.199,-0.09 0.199,-0.199l0,-0.2c0,-0.109 -0.09,-0.199 -0.199,-0.199l-1.305,0c-0.06,0 -0.1,-0.04 -0.1,-0.099l0,-4.085c0,-0.11 -0.09,-0.199 -0.199,-0.199l-1.744,0c-0.109,0 -0.199,0.089 -0.199,0.199l0,0.199c0,0.11 0.09,0.199 0.199,0.199l1.246,0Z" style="fill-rule:nonzero;"/><path d="M41.818,270.236c-0.976,0 -1.275,-0.777 -1.335,-1.305c-0.05,-0.409 -0.05,-0.987 0,-1.395c0.06,-0.528 0.369,-1.305 1.335,-1.305c0.887,0 1.176,0.777 1.226,1.305c0.039,0.408 0.039,0.986 0,1.395c-0.05,0.528 -0.339,1.305 -1.226,1.305Zm-0.05,0.588c0.738,0 0.847,-0.329 1.136,-0.329c0.1,0 0.189,0.09 0.249,0.159c0.04,0.04 0.08,0.07 0.14,0.07l0.159,0c0.11,0 0.199,-0.09 0.199,-0.199l0,-6.645c0,-0.11 -0.089,-0.2 -0.199,-0.2l-0.189,0c-0.11,0 -0.2,0.09 -0.2,0.2l0,1.763c0,0.189 -0.099,0.249 -0.249,0.249c-0.199,0 -0.408,-0.249 -1.046,-0.249c-1.046,0 -1.813,0.847 -1.893,1.893c-0.029,0.398 -0.029,0.996 0,1.395c0.08,1.046 0.847,1.893 1.893,1.893Z" style="fill-rule:nonzero;"/></g><g><path d="M141.286,176.839c0,0.587 -0.478,1.434 -1.554,1.434c-1.076,0 -1.475,-0.857 -1.554,-1.434c-0.12,-0.817 -0.12,-2.172 0,-2.989c0.109,-0.727 0.607,-1.435 1.554,-1.435c0.946,0 1.554,0.698 1.554,1.435l0,0.04c0,0.109 0.09,0.199 0.199,0.199l0.269,0c0.11,0 0.199,-0.09 0.199,-0.199l0,-0.04c0,-1.096 -0.906,-2.072 -2.221,-2.072c-1.315,0 -2.072,0.986 -2.222,2.072c-0.109,0.797 -0.109,2.182 0,2.989c0.169,1.285 1.026,2.072 2.222,2.072c1.195,0 2.221,-0.777 2.221,-2.072l0,-0.04c0,-0.11 -0.089,-0.2 -0.199,-0.2l-0.269,0c-0.109,0 -0.199,0.09 -0.199,0.2l0,0.04Z" style="fill-rule:nonzero;"/><path d="M144.871,173.75c-1.195,0 -1.932,0.847 -2.012,1.893c-0.03,0.399 -0.03,0.996 0,1.395c0.08,1.046 0.817,1.893 2.012,1.893c1.196,0 1.933,-0.847 2.013,-1.893c0.03,-0.399 0.03,-0.996 0,-1.395c-0.08,-1.046 -0.817,-1.893 -2.013,-1.893Zm0,4.593c-0.996,0 -1.355,-0.777 -1.404,-1.305c-0.04,-0.409 -0.04,-0.986 0,-1.395c0.049,-0.528 0.408,-1.305 1.404,-1.305c0.997,0 1.355,0.777 1.405,1.305c0.04,0.409 0.04,0.986 0,1.395c-0.05,0.528 -0.408,1.305 -1.405,1.305Z" style="fill-rule:nonzero;"/><path d="M150.18,174.109c-0.03,0.04 -0.069,0.06 -0.109,0.06c-0.04,0 -0.08,-0.03 -0.1,-0.06c-0.129,-0.179 -0.329,-0.359 -0.687,-0.359c-0.469,0 -0.588,0.249 -0.698,0.249c-0.069,0 -0.089,-0.03 -0.129,-0.079c-0.04,-0.04 -0.08,-0.07 -0.14,-0.07l-0.059,0c-0.11,0 -0.2,0.089 -0.2,0.199l0,4.583c0,0.109 0.09,0.199 0.2,0.199l0.189,0c0.109,0 0.199,-0.09 0.199,-0.199l0,-3.816c0,-0.289 0.299,-0.478 0.558,-0.478c0.259,0 0.548,0.189 0.548,0.478l0,3.816c0,0.109 0.09,0.199 0.199,0.199l0.189,0c0.11,0 0.2,-0.09 0.2,-0.199l0,-3.816c0,-0.289 0.269,-0.478 0.528,-0.478c0.259,0 0.568,0.129 0.568,0.478l0,3.816c0,0.109 0.089,0.199 0.199,0.199l0.189,0c0.11,0 0.199,-0.09 0.199,-0.199l0,-3.686c0,-0.608 -0.289,-1.196 -0.986,-1.196c-0.498,0 -0.737,0.209 -0.857,0.359Z" style="fill-rule:nonzero;"/><path d="M155.16,174.338c0.977,0 1.276,0.777 1.335,1.305c0.05,0.409 0.05,0.986 0,1.395c-0.059,0.528 -0.368,1.305 -1.335,1.305c-0.886,0 -1.175,-0.777 -1.225,-1.305c-0.04,-0.409 -0.04,-0.986 0,-1.395c0.05,-0.528 0.339,-1.305 1.225,-1.305Zm0.05,-0.588c-0.737,0 -0.847,0.329 -1.135,0.329c-0.1,0 -0.19,-0.09 -0.25,-0.159c-0.039,-0.04 -0.079,-0.07 -0.139,-0.07l-0.159,0c-0.11,0 -0.2,0.089 -0.2,0.199l0,6.575c0,0.11 0.09,0.2 0.2,0.2l0.189,0c0.109,0 0.199,-0.09 0.199,-0.2l0,-1.693c0,-0.19 0.1,-0.249 0.229,-0.249c0.2,0 0.429,0.249 1.066,0.249c1.046,0 1.813,-0.847 1.893,-1.893c0.03,-0.399 0.03,-0.996 0,-1.395c-0.08,-1.046 -0.847,-1.893 -1.893,-1.893Z" style="fill-rule:nonzero;"/><path d="M160.41,173.75c-1.196,0 -1.933,0.847 -2.013,1.893c-0.03,0.399 -0.03,0.996 0,1.395c0.08,1.046 0.817,1.893 2.013,1.893c1.195,0 1.932,-0.847 2.012,-1.893c0.03,-0.399 0.03,-0.996 0,-1.395c-0.08,-1.046 -0.817,-1.893 -2.012,-1.893Zm0,4.593c-0.997,0 -1.355,-0.777 -1.405,-1.305c-0.04,-0.409 -0.04,-0.986 0,-1.395c0.05,-0.528 0.408,-1.305 1.405,-1.305c0.996,0 1.355,0.777 1.404,1.305c0.04,0.409 0.04,0.986 0,1.395c-0.049,0.528 -0.408,1.305 -1.404,1.305Z" style="fill-rule:nonzero;"/><path d="M163.666,177.207c0,1.126 0.927,1.724 1.923,1.724c1.156,0 1.913,-0.708 1.913,-1.544c0,-1.096 -1.126,-1.365 -1.963,-1.515c-0.488,-0.089 -1.106,-0.199 -1.106,-0.747c0,-0.418 0.459,-0.817 1.156,-0.817c0.697,0 1.136,0.428 1.136,0.937c0,0.109 0.089,0.199 0.199,0.199l0.189,0c0.11,0 0.2,-0.09 0.2,-0.199c0,-0.947 -0.827,-1.495 -1.724,-1.495c-0.907,0 -1.753,0.598 -1.753,1.375c0,0.917 0.827,1.215 1.703,1.345c0.608,0.09 1.375,0.289 1.375,0.917c0,0.538 -0.508,0.966 -1.325,0.966c-0.737,0 -1.335,-0.419 -1.335,-1.146c0,-0.109 -0.09,-0.199 -0.199,-0.199l-0.189,0c-0.11,0 -0.2,0.09 -0.2,0.199Z" style="fill-rule:nonzero;"/><path d="M171.336,171.947c0,-0.08 -0.069,-0.159 -0.159,-0.159l-0.518,0c-0.09,0 -0.159,0.079 -0.159,0.159l0,0.528c0,0.09 0.069,0.159 0.159,0.159l0.518,0c0.09,0 0.159,-0.069 0.159,-0.159l0,-0.528Zm-0.757,2.501c0.06,0 0.1,0.039 0.1,0.099l0,3.587c0,0.059 -0.04,0.099 -0.1,0.099l-1.345,0c-0.109,0 -0.199,0.09 -0.199,0.2l0,0.199c0,0.109 0.09,0.199 0.199,0.199l3.447,0c0.11,0 0.2,-0.09 0.2,-0.199l0,-0.199c0,-0.11 -0.09,-0.2 -0.2,-0.2l-1.305,0c-0.06,0 -0.099,-0.04 -0.099,-0.099l0,-4.085c0,-0.11 -0.09,-0.199 -0.2,-0.199l-1.743,0c-0.11,0 -0.199,0.089 -0.199,0.199l0,0.199c0,0.11 0.089,0.2 0.199,0.2l1.245,0Z" style="fill-rule:nonzero;"/><path d="M175.589,174.587c0,-0.06 0.04,-0.1 0.1,-0.1l1.654,0c0.109,0 0.199,-0.089 0.199,-0.199l0,-0.189c0,-0.11 -0.09,-0.199 -0.199,-0.199l-1.654,0c-0.06,0 -0.1,-0.04 -0.1,-0.1l0,-1.544c0,-0.11 -0.089,-0.199 -0.199,-0.199l-0.199,0c-0.11,0 -0.199,0.089 -0.199,0.199l0,1.544c0,0.06 -0.04,0.1 -0.1,0.1l-1.106,0c-0.11,0 -0.199,0.089 -0.199,0.199l0,0.189c0,0.11 0.089,0.199 0.199,0.199l1.106,0c0.06,0 0.1,0.04 0.1,0.1l0,2.75c0,0.876 0.667,1.594 1.544,1.594c0.876,0 1.524,-0.718 1.524,-1.594c0,-0.11 -0.09,-0.2 -0.199,-0.2l-0.209,0c-0.11,0 -0.2,0.09 -0.2,0.2c0,0.558 -0.348,0.996 -0.916,0.996c-0.508,0 -0.947,-0.399 -0.947,-1.096l0,-2.65Z" style="fill-rule:nonzero;"/><path d="M179.703,176.679c0,-0.06 0.04,-0.099 0.099,-0.099l3.158,0c0.11,0 0.2,-0.09 0.2,-0.2l0,-0.637c0,-1.096 -0.877,-1.993 -1.993,-1.993c-1.195,0 -1.962,0.847 -2.042,1.893c-0.03,0.399 -0.03,0.996 0,1.395c0.08,1.046 0.847,1.893 2.042,1.893c1.036,0 1.813,-0.628 1.933,-1.495c0.02,-0.139 -0.07,-0.199 -0.169,-0.199l-0.2,0c-0.089,0 -0.189,0.04 -0.229,0.169c-0.149,0.469 -0.568,0.937 -1.335,0.937c-1.026,0 -1.464,-0.707 -1.464,-1.664Zm0.02,-0.757c0,-1.016 0.567,-1.584 1.454,-1.584c0.817,0 1.435,0.568 1.435,1.584c0,0.06 -0.04,0.1 -0.1,0.1l-2.69,0c-0.06,0 -0.099,-0.04 -0.099,-0.1Z" style="fill-rule:nonzero;"/><path d="M187.801,176.839c-0.01,0.846 -0.588,1.434 -1.494,1.434c-0.987,0 -1.495,-0.737 -1.495,-1.434l0,-0.16c0,-0.109 -0.089,-0.199 -0.199,-0.199l-0.249,0c-0.11,0 -0.199,0.09 -0.199,0.199l0,0.16c0,1.135 0.857,2.072 2.142,2.072c1.126,0 2.142,-0.767 2.142,-2.072c0,-1.226 -0.747,-1.664 -1.823,-1.993c-0.688,-0.209 -1.624,-0.299 -1.624,-1.195c0,-0.618 0.418,-1.236 1.305,-1.236c0.747,0 1.305,0.518 1.305,1.236l0,0.129c0,0.11 0.09,0.199 0.199,0.199l0.239,0c0.11,0 0.199,-0.089 0.199,-0.199l0,-0.129c0,-1.027 -0.767,-1.873 -1.942,-1.873c-1.026,0 -1.953,0.677 -1.953,1.873c0,1.165 0.947,1.544 1.674,1.713c1.136,0.269 1.783,0.568 1.773,1.475Z" style="fill-rule:nonzero;"/><path d="M192.602,178.602c0.12,0 0.179,0.09 0.239,0.159c0.04,0.04 0.08,0.07 0.14,0.07l0.159,0c0.11,0 0.199,-0.09 0.199,-0.199l0,-4.583c0,-0.11 -0.089,-0.199 -0.199,-0.199l-0.189,0c-0.11,0 -0.2,0.089 -0.2,0.199l0,3.198c0,0.618 -0.547,1.096 -1.265,1.096c-0.717,0 -1.265,-0.309 -1.265,-1.146l0,-3.148c0,-0.11 -0.09,-0.199 -0.199,-0.199l-0.19,0c-0.109,0 -0.199,0.089 -0.199,0.199l0,3.148c0,1.136 0.737,1.734 1.783,1.734c0.738,0 0.897,-0.329 1.186,-0.329Z" style="fill-rule:nonzero;"/><path d="M198.29,175.444c0,0.109 0.089,0.199 0.199,0.199l0.189,0c0.11,0 0.199,-0.09 0.199,-0.199c0,-1.036 -0.747,-1.694 -1.763,-1.694c-0.737,0 -0.927,0.329 -1.215,0.329c-0.1,0 -0.19,-0.09 -0.25,-0.159c-0.039,-0.04 -0.079,-0.07 -0.139,-0.07l-0.159,0c-0.11,0 -0.2,0.089 -0.2,0.199l0,4.583c0,0.109 0.09,0.199 0.2,0.199l0.189,0c0.109,0 0.199,-0.09 0.199,-0.199l0,-3.089c0,-0.697 0.558,-1.205 1.275,-1.205c0.797,0 1.276,0.478 1.276,1.106Z" style="fill-rule:nonzero;"/><path d="M201.307,174.487c0.06,0 0.1,0.04 0.1,0.1l0,4.045c0,0.109 0.089,0.199 0.199,0.199l0.199,0c0.11,0 0.199,-0.09 0.199,-0.199l0,-4.045c0,-0.06 0.04,-0.1 0.1,-0.1l1.634,0c0.11,0 0.199,-0.089 0.199,-0.199l0,-0.189c0,-0.11 -0.089,-0.199 -0.199,-0.199l-1.634,0c-0.06,0 -0.1,-0.04 -0.1,-0.1l0,-0.149c0,-0.698 0.339,-1.306 1.096,-1.306l0.449,0c0.109,0 0.199,-0.089 0.199,-0.199l0,-0.159c0,-0.11 -0.09,-0.199 -0.199,-0.199l-0.449,0c-0.996,0 -1.693,0.737 -1.693,1.863l0,0.149c0,0.06 -0.04,0.1 -0.1,0.1l-1.365,0c-0.109,0 -0.199,0.089 -0.199,0.199l0,0.189c0,0.11 0.09,0.199 0.199,0.199l1.365,0Z" style="fill-rule:nonzero;"/><path d="M208.24,176.43c0.06,0 0.1,0.04 0.1,0.1l0,0.598c0,0.806 -0.518,1.245 -1.435,1.245c-0.628,0 -1.176,-0.339 -1.176,-1.046c0,-0.588 0.498,-0.897 1.056,-0.897l1.455,0Zm-1.136,-2.132c0.698,0 1.206,0.448 1.206,1.096l0,0.389c0,0.059 -0.04,0.099 -0.1,0.099l-1.425,0c-1.046,0 -1.643,0.628 -1.643,1.455c0,0.847 0.587,1.594 1.813,1.594c0.737,0 1.135,-0.379 1.315,-0.379c0.129,0 0.149,0.13 0.199,0.209c0.03,0.05 0.08,0.07 0.14,0.07l0.089,0c0.11,0 0.199,-0.09 0.199,-0.199l0,-3.228c0,-1.136 -0.816,-1.654 -1.793,-1.654c-0.847,0 -1.733,0.468 -1.733,1.395c0,0.119 0.05,0.199 0.199,0.199l0.139,0c0.09,0 0.23,0 0.23,-0.169c0,-0.528 0.567,-0.877 1.165,-0.877Z" style="fill-rule:nonzero;"/><path d="M212.284,178.343c-0.997,0 -1.355,-0.777 -1.405,-1.305c-0.04,-0.409 -0.04,-0.986 0,-1.395c0.05,-0.528 0.408,-1.305 1.405,-1.305c0.817,0 1.285,0.548 1.285,1.146c0,0.109 0.099,0.159 0.189,0.159l0.229,0c0.11,0 0.17,-0.09 0.17,-0.199c0,-0.897 -0.758,-1.694 -1.873,-1.694c-1.196,0 -1.933,0.847 -2.013,1.893c-0.03,0.399 -0.03,0.996 0,1.395c0.08,1.046 0.817,1.893 2.013,1.893c1.115,0 1.873,-0.797 1.873,-1.694c0,-0.109 -0.09,-0.199 -0.2,-0.199l-0.209,0c-0.09,0 -0.189,0.04 -0.189,0.169c0,0.518 -0.399,1.136 -1.275,1.136Z" style="fill-rule:nonzero;"/><path d="M215.959,176.679c0,-0.06 0.04,-0.099 0.099,-0.099l3.158,0c0.11,0 0.2,-0.09 0.2,-0.2l0,-0.637c0,-1.096 -0.877,-1.993 -1.993,-1.993c-1.195,0 -1.962,0.847 -2.042,1.893c-0.03,0.399 -0.03,0.996 0,1.395c0.08,1.046 0.847,1.893 2.042,1.893c1.036,0 1.813,-0.628 1.933,-1.495c0.02,-0.139 -0.07,-0.199 -0.169,-0.199l-0.2,0c-0.089,0 -0.189,0.04 -0.229,0.169c-0.149,0.469 -0.568,0.937 -1.335,0.937c-1.026,0 -1.464,-0.707 -1.464,-1.664Zm0.02,-0.757c0,-1.016 0.568,-1.584 1.454,-1.584c0.817,0 1.435,0.568 1.435,1.584c0,0.06 -0.04,0.1 -0.1,0.1l-2.69,0c-0.06,0 -0.099,-0.04 -0.099,-0.1Z" style="fill-rule:nonzero;"/></g><path d="M201.226,111.617c0,-0.994 -0.806,-1.8 -1.8,-1.8c-0.994,0 -1.8,0.806 -1.8,1.8c0,0.995 0.806,1.8 1.8,1.8c0.994,0 1.8,-0.805 1.8,-1.8"/><rect x="147.512" y="127.531" width="32.349" height="31.566" style="fill:#bfbfbf;stroke:#000;stroke-width:1.2px;"/><path d="M167.077,143.183l-19.565,15.913" style="stroke:#000;stroke-width:0.4px;stroke-dasharray:1,3;"/><path d="M149.312,159.096c0,-0.994 -0.806,-1.8 -1.8,-1.8c-0.995,0 -1.8,0.806 -1.8,1.8c0,0.995 0.805,1.8 1.8,1.8c0.994,0 1.8,-0.805 1.8,-1.8"/><path d="M181.661,159.096c0,-0.994 -0.806,-1.8 -1.8,-1.8c-0.994,0 -1.8,0.806 -1.8,1.8c0,0.995 0.806,1.8 1.8,1.8c0.994,0 1.8,-0.805 1.8,-1.8"/><path d="M179.861,127.531l19.565,-15.913l0,31.566l-19.565,15.913l0,-31.566Z" style="fill:#bfbfbf;stroke:#000;stroke-width:1.2px;"/><path d="M199.426,143.183l-32.349,0" style="stroke:#000;stroke-width:0.4px;stroke-dasharray:1,3;"/><path d="M149.312,127.53c0,-0.994 -0.806,-1.8 -1.8,-1.8c-0.995,0 -1.8,0.806 -1.8,1.8c0,0.995 0.805,1.8 1.8,1.8c0.994,0 1.8,-0.805 1.8,-1.8"/><path d="M181.661,127.53c0,-0.994 -0.806,-1.8 -1.8,-1.8c-0.994,0 -1.8,0.806 -1.8,1.8c0,0.995 0.806,1.8 1.8,1.8c0.994,0 1.8,-0.805 1.8,-1.8"/><path d="M201.226,143.183c0,-0.994 -0.806,-1.8 -1.8,-1.8c-0.994,0 -1.8,0.806 -1.8,1.8c0,0.994 0.806,1.8 1.8,1.8c0.994,0 1.8,-0.806 1.8,-1.8"/><path d="M168.578,143.183c0,-0.828 -0.672,-1.5 -1.5,-1.5c-0.829,0 -1.5,0.672 -1.5,1.5c0,0.829 0.671,1.5 1.5,1.5c0.828,0 1.5,-0.671 1.5,-1.5" style="fill:#fff;"/><path d="M168.878,143.183c0,-0.994 -0.806,-1.8 -1.8,-1.8c-0.995,0 -1.8,0.806 -1.8,1.8c0,0.994 0.805,1.8 1.8,1.8c0.994,0 1.8,-0.806 1.8,-1.8m-0.6,0c0,-0.663 -0.538,-1.2 -1.2,-1.2c-0.663,0 -1.2,0.537 -1.2,1.2c0,0.663 0.537,1.2 1.2,1.2c0.662,0 1.2,-0.537 1.2,-1.2"/><path d="M188.27,126.631l-1.371,12.839l3.918,1.987l3.917,-7.336l-4.995,0.917l-1.469,-8.407Z" style="fill:#fff;stroke:#a2a2a2;stroke-width:1.2px;"/><g><path d="M172.059,68.03c0,-0.06 0.04,-0.1 0.1,-0.1l1.156,0c1.155,0 2.092,-0.936 2.092,-2.092c0,-1.155 -0.937,-2.092 -2.092,-2.092l-1.694,0c-0.11,0 -0.199,0.09 -0.199,0.199l0,6.576c0,0.109 0.089,0.199 0.199,0.199l0.239,0c0.11,0 0.199,-0.09 0.199,-0.199l0,-2.491Zm1.256,-3.646c0.797,0 1.454,0.657 1.454,1.454c0,0.797 -0.657,1.455 -1.454,1.455l-1.156,0c-0.06,0 -0.1,-0.04 -0.1,-0.1l0,-2.71c0,-0.059 0.04,-0.099 0.1,-0.099l1.156,0Z" style="fill-rule:nonzero;"/><path d="M178.494,65.639c-1.195,0 -1.933,0.847 -2.012,1.893c-0.03,0.398 -0.03,0.996 0,1.395c0.079,1.046 0.817,1.893 2.012,1.893c1.196,0 1.933,-0.847 2.013,-1.893c0.029,-0.399 0.029,-0.997 0,-1.395c-0.08,-1.046 -0.817,-1.893 -2.013,-1.893Zm0,4.593c-0.996,0 -1.355,-0.777 -1.405,-1.305c-0.039,-0.409 -0.039,-0.987 0,-1.395c0.05,-0.528 0.409,-1.305 1.405,-1.305c0.996,0 1.355,0.777 1.405,1.305c0.04,0.408 0.04,0.986 0,1.395c-0.05,0.528 -0.409,1.305 -1.405,1.305Z" style="fill-rule:nonzero;"/><path d="M183.285,64.274c0.06,0 0.1,0.04 0.1,0.1l0,5.649c0,0.059 -0.06,0.099 -0.12,0.099l-1.385,0c-0.109,0 -0.199,0.09 -0.199,0.199l0,0.2c0,0.109 0.09,0.199 0.199,0.199l3.467,0c0.11,0 0.2,-0.09 0.2,-0.199l0,-0.2c0,-0.109 -0.09,-0.199 -0.2,-0.199l-1.265,0c-0.06,0 -0.1,-0.04 -0.1,-0.099l0,-6.147c0,-0.11 -0.089,-0.2 -0.199,-0.2l-1.703,0c-0.11,0 -0.2,0.09 -0.2,0.2l0,0.199c0,0.11 0.09,0.199 0.2,0.199l1.205,0Z" style="fill-rule:nonzero;"/><path d="M187.379,65.888c-0.04,-0.109 -0.1,-0.149 -0.19,-0.149l-0.279,0c-0.159,0 -0.229,0.129 -0.189,0.229l1.883,4.383c0.02,0.05 0.01,0.08 -0.01,0.13l-0.737,2.002c-0.04,0.1 0.03,0.23 0.189,0.23l0.219,0c0.09,0 0.15,-0.04 0.19,-0.15l2.53,-6.595c0.04,-0.1 -0.03,-0.229 -0.189,-0.229l-0.279,0c-0.09,0 -0.15,0.04 -0.19,0.149l-1.335,3.666c-0.019,0.05 -0.059,0.05 -0.079,0l-1.534,-3.666Z" style="fill-rule:nonzero;"/><path d="M195.577,65.739c-0.06,0 -0.1,0.03 -0.14,0.069c-0.06,0.07 -0.149,0.16 -0.249,0.16c-0.289,0 -0.398,-0.329 -1.136,-0.329c-1.046,0 -1.813,0.847 -1.893,1.893c-0.029,0.398 -0.029,0.996 0,1.395c0.08,1.046 0.847,1.893 1.893,1.893c0.459,0 0.877,-0.249 1.076,-0.249c0.14,0 0.219,0.089 0.219,0.249l0,0.199c0,0.598 -0.438,1.205 -1.185,1.205c-0.697,0 -1.036,-0.438 -1.166,-0.807c-0.04,-0.109 -0.089,-0.199 -0.259,-0.199l-0.159,0c-0.15,0 -0.209,0.09 -0.179,0.229c0.189,0.897 0.966,1.365 1.763,1.365c1.056,0 1.773,-0.827 1.773,-1.793l0,-5.081c0,-0.11 -0.089,-0.199 -0.199,-0.199l-0.159,0Zm-1.475,0.488c0.887,0 1.176,0.777 1.226,1.305c0.039,0.408 0.039,0.986 0,1.395c-0.05,0.528 -0.339,1.305 -1.226,1.305c-0.966,0 -1.275,-0.777 -1.335,-1.305c-0.05,-0.409 -0.05,-0.987 0,-1.395c0.06,-0.528 0.359,-1.305 1.335,-1.305Z" style="fill-rule:nonzero;"/><path d="M199.212,65.639c-1.196,0 -1.933,0.847 -2.013,1.893c-0.029,0.398 -0.029,0.996 0,1.395c0.08,1.046 0.817,1.893 2.013,1.893c1.195,0 1.933,-0.847 2.012,-1.893c0.03,-0.399 0.03,-0.997 0,-1.395c-0.079,-1.046 -0.817,-1.893 -2.012,-1.893Zm0,4.593c-0.996,0 -1.355,-0.777 -1.405,-1.305c-0.04,-0.409 -0.04,-0.987 0,-1.395c0.05,-0.528 0.409,-1.305 1.405,-1.305c0.996,0 1.355,0.777 1.405,1.305c0.039,0.408 0.039,0.986 0,1.395c-0.05,0.528 -0.409,1.305 -1.405,1.305Z" style="fill-rule:nonzero;"/><path d="M203.275,65.968c-0.119,0 -0.179,-0.09 -0.239,-0.16c-0.039,-0.039 -0.079,-0.069 -0.139,-0.069l-0.159,0c-0.11,0 -0.2,0.089 -0.2,0.199l0,4.583c0,0.109 0.09,0.199 0.2,0.199l0.189,0c0.109,0 0.199,-0.09 0.199,-0.199l0,-3.198c0,-0.618 0.548,-1.096 1.265,-1.096c0.718,0 1.266,0.309 1.266,1.146l0,3.148c0,0.109 0.089,0.199 0.199,0.199l0.189,0c0.11,0 0.199,-0.09 0.199,-0.199l0,-3.148c0,-1.136 -0.737,-1.734 -1.783,-1.734c-0.737,0 -0.897,0.329 -1.186,0.329Z" style="fill-rule:nonzero;"/></g><g><path d="M38.196,68.034c0,-0.06 0.04,-0.1 0.1,-0.1l1.156,0c1.155,0 2.092,-0.936 2.092,-2.092c0,-1.155 -0.937,-2.092 -2.092,-2.092l-1.694,0c-0.11,0 -0.199,0.09 -0.199,0.199l0,6.576c0,0.109 0.089,0.199 0.199,0.199l0.239,0c0.11,0 0.199,-0.09 0.199,-0.199l0,-2.491Zm1.256,-3.646c0.797,0 1.454,0.657 1.454,1.454c0,0.797 -0.657,1.455 -1.454,1.455l-1.156,0c-0.06,0 -0.1,-0.04 -0.1,-0.1l0,-2.71c0,-0.059 0.04,-0.099 0.1,-0.099l1.156,0Z" style="fill-rule:nonzero;"/><path d="M43.531,65.643c-1.195,0 -1.933,0.847 -2.012,1.893c-0.03,0.398 -0.03,0.996 0,1.395c0.079,1.046 0.817,1.893 2.012,1.893c1.196,0 1.933,-0.847 2.013,-1.893c0.029,-0.399 0.029,-0.997 0,-1.395c-0.08,-1.046 -0.817,-1.893 -2.013,-1.893Zm0,4.593c-0.996,0 -1.355,-0.777 -1.405,-1.305c-0.039,-0.409 -0.039,-0.987 0,-1.395c0.05,-0.528 0.409,-1.305 1.405,-1.305c0.996,0 1.355,0.777 1.405,1.305c0.04,0.408 0.04,0.986 0,1.395c-0.05,0.528 -0.409,1.305 -1.405,1.305Z" style="fill-rule:nonzero;"/><path d="M49.278,63.84c0,-0.08 -0.069,-0.16 -0.159,-0.16l-0.518,0c-0.09,0 -0.159,0.08 -0.159,0.16l0,0.528c0,0.09 0.069,0.159 0.159,0.159l0.518,0c0.09,0 0.159,-0.069 0.159,-0.159l0,-0.528Zm-0.757,2.5c0.06,0 0.1,0.04 0.1,0.1l0,3.587c0,0.059 -0.04,0.099 -0.1,0.099l-1.345,0c-0.109,0 -0.199,0.09 -0.199,0.199l0,0.2c0,0.109 0.09,0.199 0.199,0.199l3.447,0c0.11,0 0.2,-0.09 0.2,-0.199l0,-0.2c0,-0.109 -0.09,-0.199 -0.2,-0.199l-1.305,0c-0.059,0 -0.099,-0.04 -0.099,-0.099l0,-4.085c0,-0.11 -0.09,-0.199 -0.2,-0.199l-1.743,0c-0.11,0 -0.199,0.089 -0.199,0.199l0,0.199c0,0.11 0.089,0.199 0.199,0.199l1.245,0Z" style="fill-rule:nonzero;"/><path d="M52.774,65.972c-0.119,0 -0.179,-0.09 -0.239,-0.16c-0.04,-0.039 -0.08,-0.069 -0.139,-0.069l-0.16,0c-0.109,0 -0.199,0.089 -0.199,0.199l0,4.583c0,0.109 0.09,0.199 0.199,0.199l0.19,0c0.109,0 0.199,-0.09 0.199,-0.199l0,-3.198c0,-0.618 0.548,-1.096 1.265,-1.096c0.717,0 1.265,0.309 1.265,1.146l0,3.148c0,0.109 0.09,0.199 0.2,0.199l0.189,0c0.109,0 0.199,-0.09 0.199,-0.199l0,-3.148c0,-1.136 -0.737,-1.734 -1.783,-1.734c-0.737,0 -0.897,0.329 -1.186,0.329Z" style="fill-rule:nonzero;"/><path d="M58.711,66.48c0,-0.06 0.04,-0.1 0.099,-0.1l1.654,0c0.11,0 0.199,-0.089 0.199,-0.199l0,-0.189c0,-0.11 -0.089,-0.199 -0.199,-0.199l-1.654,0c-0.059,0 -0.099,-0.04 -0.099,-0.1l0,-1.544c0,-0.11 -0.09,-0.2 -0.199,-0.2l-0.2,0c-0.109,0 -0.199,0.09 -0.199,0.2l0,1.544c0,0.06 -0.04,0.1 -0.1,0.1l-1.105,0c-0.11,0 -0.2,0.089 -0.2,0.199l0,0.189c0,0.11 0.09,0.199 0.2,0.199l1.105,0c0.06,0 0.1,0.04 0.1,0.1l0,2.75c0,0.876 0.668,1.594 1.544,1.594c0.877,0 1.525,-0.718 1.525,-1.594c0,-0.11 -0.09,-0.2 -0.2,-0.2l-0.209,0c-0.11,0 -0.199,0.09 -0.199,0.2c0,0.558 -0.349,0.996 -0.917,0.996c-0.508,0 -0.946,-0.399 -0.946,-1.096l0,-2.65Z" style="fill-rule:nonzero;"/></g><path d="M188.561,5.787l-17.866,10.581l11.795,16.653l-8.847,19.948l31.744,-1.214l5.551,-40.938l-22.377,-5.03Z" style="fill:#d4d4d4;stroke:#000;stroke-width:1.2px;"/><path d="M191.337,18.103l-2.429,14.57l6.939,2.256l6.938,-8.326l-8.846,1.041l-2.602,-9.541Z" style="fill:#fff;stroke:#a2a2a2;stroke-width:1.2px;"/><path d="M190.361,5.787c0,-0.994 -0.806,-1.8 -1.8,-1.8c-0.994,0 -1.8,0.806 -1.8,1.8c0,0.994 0.806,1.8 1.8,1.8c0.994,0 1.8,-0.806 1.8,-1.8"/><path d="M172.495,16.368c0,-0.994 -0.806,-1.8 -1.8,-1.8c-0.994,0 -1.8,0.806 -1.8,1.8c0,0.994 0.806,1.8 1.8,1.8c0.994,0 1.8,-0.806 1.8,-1.8"/><path d="M184.29,33.021c0,-0.994 -0.806,-1.8 -1.8,-1.8c-0.994,0 -1.8,0.806 -1.8,1.8c0,0.994 0.806,1.8 1.8,1.8c0.994,0 1.8,-0.806 1.8,-1.8"/><path d="M175.443,52.969c0,-0.994 -0.805,-1.8 -1.8,-1.8c-0.994,0 -1.8,0.806 -1.8,1.8c0,0.994 0.806,1.8 1.8,1.8c0.995,0 1.8,-0.806 1.8,-1.8"/><path d="M207.187,51.755c0,-0.994 -0.806,-1.8 -1.8,-1.8c-0.994,0 -1.8,0.806 -1.8,1.8c0,0.994 0.806,1.8 1.8,1.8c0.994,0 1.8,-0.806 1.8,-1.8"/><path d="M212.738,10.817c0,-0.994 -0.806,-1.8 -1.8,-1.8c-0.994,0 -1.8,0.806 -1.8,1.8c0,0.994 0.806,1.8 1.8,1.8c0.994,0 1.8,-0.806 1.8,-1.8"/><path d="M193.137,18.103c0,-0.994 -0.806,-1.8 -1.8,-1.8c-0.994,0 -1.8,0.806 -1.8,1.8c0,0.994 0.806,1.8 1.8,1.8c0.994,0 1.8,-0.806 1.8,-1.8" style="fill:#a2a2a2;"/><path d="M190.499,127.631c0,-0.994 -0.806,-1.8 -1.8,-1.8c-0.994,0 -1.8,0.806 -1.8,1.8c0,0.994 0.806,1.8 1.8,1.8c0.994,0 1.8,-0.806 1.8,-1.8" style="fill:#a2a2a2;"/><path d="M192.299,134.044c0,-0.994 -0.806,-1.8 -1.8,-1.8c-0.994,0 -1.8,0.806 -1.8,1.8c0,0.994 0.806,1.8 1.8,1.8c0.994,0 1.8,-0.806 1.8,-1.8" style="fill:#a2a2a2;"/><path d="M196.534,134.044c0,-0.994 -0.806,-1.8 -1.8,-1.8c-0.994,0 -1.8,0.806 -1.8,1.8c0,0.994 0.806,1.8 1.8,1.8c0.994,0 1.8,-0.806 1.8,-1.8" style="fill:#a2a2a2;"/><path d="M192.299,141.457c0,-0.994 -0.806,-1.8 -1.8,-1.8c-0.994,0 -1.8,0.806 -1.8,1.8c0,0.994 0.806,1.8 1.8,1.8c0.994,0 1.8,-0.806 1.8,-1.8" style="fill:#a2a2a2;"/><path d="M188.699,139.657c0,-0.994 -0.806,-1.8 -1.8,-1.8c-0.994,0 -1.8,0.806 -1.8,1.8c0,0.994 0.806,1.8 1.8,1.8c0.994,0 1.8,-0.806 1.8,-1.8" style="fill:#a2a2a2;"/><path d="M190.708,33.129c0,-0.994 -0.806,-1.8 -1.8,-1.8c-0.994,0 -1.8,0.806 -1.8,1.8c0,0.994 0.806,1.8 1.8,1.8c0.994,0 1.8,-0.806 1.8,-1.8" style="fill:#a2a2a2;"/><path d="M197.647,34.929c0,-0.994 -0.807,-1.8 -1.8,-1.8c-0.994,0 -1.8,0.806 -1.8,1.8c0,0.994 0.806,1.8 1.8,1.8c0.993,0 1.8,-0.806 1.8,-1.8" style="fill:#a2a2a2;"/><path d="M204.585,26.516c0,-0.994 -0.806,-1.8 -1.8,-1.8c-0.994,0 -1.8,0.806 -1.8,1.8c0,0.994 0.806,1.8 1.8,1.8c0.994,0 1.8,-0.806 1.8,-1.8" style="fill:#a2a2a2;"/><path d="M49.988,32.468c0,-2.175 -1.764,-3.939 -3.94,-3.939c-2.175,0 -3.939,1.764 -3.939,3.939c0,2.176 1.764,3.94 3.939,3.94c2.176,0 3.94,-1.764 3.94,-3.94" style="stroke:#000;stroke-width:0.4px;"/><path d="M151.97,220.974l-23.091,9.685l0,19.213l6.769,-2.839l16.322,-6.847l0,-19.212Z" style="fill:#d4d4d4;"/><path d="M113.792,220.974l-23.092,9.685l38.179,0l23.091,-9.685l-38.178,0Z" style="fill:#d4d4d4;stroke:#000;stroke-width:1.2px;"/><rect x="90.7" y="230.659" width="38.179" height="19.213" style="fill:#bfbfbf;stroke:#000;stroke-width:1.2px;"/><path d="M135.648,247.033l0,7.161l21.669,0l0,-18.888l13.106,-9.521l-18.453,0l0,14.401l-16.322,6.847Z" style="fill:#d4d4d4;"/><rect x="122.445" y="207.978" width="16.475" height="10.159" style="fill:#bfbfbf;stroke:#000;stroke-width:1.2px;"/><path d="M132.41,202.857l-9.965,5.121l16.475,0l9.965,-5.121l-16.475,0Z" style="fill:#d4d4d4;stroke:#000;stroke-width:1.2px;"/><path d="M138.92,207.978l9.965,-5.121l0,10.158l-9.965,5.122l0,-10.159Z" style="fill:#bfbfbf;stroke:#000;stroke-width:1.2px;"/><path d="M134.21,202.857c0,-0.994 -0.806,-1.8 -1.8,-1.8c-0.995,0 -1.8,0.806 -1.8,1.8c0,0.994 0.805,1.8 1.8,1.8c0.994,0 1.8,-0.806 1.8,-1.8"/><path d="M134.21,202.857c0,-0.994 -0.806,-1.8 -1.8,-1.8c-0.995,0 -1.8,0.806 -1.8,1.8c0,0.994 0.805,1.8 1.8,1.8c0.994,0 1.8,-0.806 1.8,-1.8"/><path d="M134.21,202.857c0,-0.994 -0.806,-1.8 -1.8,-1.8c-0.995,0 -1.8,0.806 -1.8,1.8c0,0.994 0.805,1.8 1.8,1.8c0.994,0 1.8,-0.806 1.8,-1.8"/><path d="M124.245,207.978c0,-0.994 -0.806,-1.8 -1.8,-1.8c-0.994,0 -1.8,0.806 -1.8,1.8c0,0.994 0.806,1.8 1.8,1.8c0.994,0 1.8,-0.806 1.8,-1.8"/><path d="M124.245,218.137c0,-0.995 -0.806,-1.8 -1.8,-1.8c-0.994,0 -1.8,0.805 -1.8,1.8c0,0.994 0.806,1.8 1.8,1.8c0.994,0 1.8,-0.806 1.8,-1.8"/><path d="M140.72,218.137c0,-0.995 -0.806,-1.8 -1.8,-1.8c-0.994,0 -1.8,0.805 -1.8,1.8c0,0.994 0.806,1.8 1.8,1.8c0.994,0 1.8,-0.806 1.8,-1.8"/><path d="M140.72,207.978c0,-0.994 -0.806,-1.8 -1.8,-1.8c-0.994,0 -1.8,0.806 -1.8,1.8c0,0.994 0.806,1.8 1.8,1.8c0.994,0 1.8,-0.806 1.8,-1.8"/><path d="M150.685,202.857c0,-0.994 -0.806,-1.8 -1.8,-1.8c-0.994,0 -1.8,0.806 -1.8,1.8c0,0.994 0.806,1.8 1.8,1.8c0.994,0 1.8,-0.806 1.8,-1.8"/><path d="M150.685,213.015c0,-0.994 -0.806,-1.8 -1.8,-1.8c-0.994,0 -1.8,0.806 -1.8,1.8c0,0.994 0.806,1.8 1.8,1.8c0.994,0 1.8,-0.806 1.8,-1.8"/><path d="M115.592,220.974c0,-0.994 -0.806,-1.8 -1.8,-1.8c-0.994,0 -1.8,0.806 -1.8,1.8c0,0.994 0.806,1.8 1.8,1.8c0.994,0 1.8,-0.806 1.8,-1.8"/><path d="M92.5,230.659c0,-0.994 -0.806,-1.8 -1.8,-1.8c-0.994,0 -1.8,0.806 -1.8,1.8c0,0.995 0.806,1.8 1.8,1.8c0.994,0 1.8,-0.805 1.8,-1.8"/><path d="M92.5,249.872c0,-0.994 -0.806,-1.8 -1.8,-1.8c-0.994,0 -1.8,0.806 -1.8,1.8c0,0.994 0.806,1.8 1.8,1.8c0.994,0 1.8,-0.806 1.8,-1.8"/><path d="M130.679,249.872c0,-0.994 -0.806,-1.8 -1.8,-1.8c-0.994,0 -1.8,0.806 -1.8,1.8c0,0.994 0.806,1.8 1.8,1.8c0.994,0 1.8,-0.806 1.8,-1.8"/><path d="M130.679,249.872c0,-0.994 -0.806,-1.8 -1.8,-1.8c-0.994,0 -1.8,0.806 -1.8,1.8c0,0.994 0.806,1.8 1.8,1.8c0.994,0 1.8,-0.806 1.8,-1.8"/><path d="M130.679,230.659c0,-0.994 -0.806,-1.8 -1.8,-1.8c-0.994,0 -1.8,0.806 -1.8,1.8c0,0.995 0.806,1.8 1.8,1.8c0.994,0 1.8,-0.805 1.8,-1.8"/><path d="M153.77,220.974c0,-0.994 -0.805,-1.8 -1.8,-1.8c-0.994,0 -1.8,0.806 -1.8,1.8c0,0.994 0.806,1.8 1.8,1.8c0.995,0 1.8,-0.806 1.8,-1.8"/><path d="M137.448,235.306c0,-0.994 -0.806,-1.8 -1.8,-1.8c-0.994,0 -1.8,0.806 -1.8,1.8c0,0.995 0.806,1.8 1.8,1.8c0.994,0 1.8,-0.805 1.8,-1.8"/><path d="M157.317,235.306l13.106,-9.521l0,18.887l-13.106,9.522l0,-18.888Z" style="fill:#bfbfbf;stroke:#000;stroke-width:1.2px;"/><path d="M137.448,254.194c0,-0.994 -0.806,-1.8 -1.8,-1.8c-0.994,0 -1.8,0.806 -1.8,1.8c0,0.994 0.806,1.8 1.8,1.8c0.994,0 1.8,-0.806 1.8,-1.8"/><path d="M159.117,254.194c0,-0.994 -0.806,-1.8 -1.8,-1.8c-0.994,0 -1.8,0.806 -1.8,1.8c0,0.994 0.806,1.8 1.8,1.8c0.994,0 1.8,-0.806 1.8,-1.8"/><path d="M159.117,235.306c0,-0.994 -0.806,-1.8 -1.8,-1.8c-0.994,0 -1.8,0.806 -1.8,1.8c0,0.995 0.806,1.8 1.8,1.8c0.994,0 1.8,-0.805 1.8,-1.8"/><path d="M172.223,225.785c0,-0.994 -0.805,-1.8 -1.8,-1.8c-0.994,0 -1.8,0.806 -1.8,1.8c0,0.994 0.806,1.8 1.8,1.8c0.995,0 1.8,-0.806 1.8,-1.8"/><path d="M172.223,244.672c0,-0.994 -0.805,-1.8 -1.8,-1.8c-0.994,0 -1.8,0.806 -1.8,1.8c0,0.994 0.806,1.8 1.8,1.8c0.995,0 1.8,-0.806 1.8,-1.8"/><path d="M157.317,254.194l-21.669,0" style="fill:none;stroke:#000;stroke-width:1.2px;"/><path d="M170.423,225.785l-18.453,0" style="fill:none;stroke:#000;stroke-width:1.2px;"/><path d="M170.423,244.672l-21.669,0" style="fill:none;stroke:#000;stroke-width:0.4px;stroke-dasharray:1,3;"/><path d="M148.754,225.785l0,18.887" style="fill:none;stroke:#000;stroke-width:0.4px;stroke-dasharray:1,3;"/><path d="M148.754,244.672l-13.106,9.522" style="fill:none;stroke:#000;stroke-width:0.4px;stroke-dasharray:1,3;"/><path d="M150.254,244.672c0,-0.828 -0.671,-1.5 -1.5,-1.5c-0.828,0 -1.5,0.672 -1.5,1.5c0,0.829 0.672,1.5 1.5,1.5c0.829,0 1.5,-0.671 1.5,-1.5" style="fill:#fff;"/><path d="M150.554,244.672c0,-0.994 -0.806,-1.8 -1.8,-1.8c-0.994,0 -1.8,0.806 -1.8,1.8c0,0.994 0.806,1.8 1.8,1.8c0.994,0 1.8,-0.806 1.8,-1.8m-0.6,0c0,-0.662 -0.537,-1.2 -1.2,-1.2c-0.662,0 -1.2,0.538 -1.2,1.2c0,0.663 0.538,1.2 1.2,1.2c0.663,0 1.2,-0.537 1.2,-1.2"/><path d="M128.879,249.872l6.769,-2.839" style="fill:none;stroke:#000;stroke-width:1.2px;"/><path d="M135.648,247.033l16.322,-6.847" style="fill:none;stroke:#000;stroke-width:0.4px;stroke-dasharray:1,3;"/><path d="M151.97,220.974l0,8.25" style="fill:none;stroke:#000;stroke-width:1.2px;"/><path d="M151.97,229.224l0,10.962" style="fill:none;stroke:#000;stroke-width:0.4px;stroke-dasharray:1,3;"/><path d="M135.648,235.306l13.106,-9.521" style="fill:none;stroke:#000;stroke-width:0.4px;stroke-dasharray:1,3;"/><path d="M135.648,235.306l0,18.888" style="fill:#d4d4d4;stroke:#000;stroke-width:1.2px;"/><path d="M135.648,235.306l21.669,0" style="fill:#d4d4d4;stroke:#000;stroke-width:1.2px;"/><path d="M135.648,235.306l6.553,-4.76" style="fill:#d4d4d4;stroke:#000;stroke-width:1.2px;"/><path d="M150.254,225.785c0,-0.828 -0.671,-1.5 -1.5,-1.5c-0.828,0 -1.5,0.672 -1.5,1.5c0,0.828 0.672,1.5 1.5,1.5c0.829,0 1.5,-0.672 1.5,-1.5" style="fill:#fff;"/><path d="M150.554,225.785c0,-0.994 -0.806,-1.8 -1.8,-1.8c-0.994,0 -1.8,0.806 -1.8,1.8c0,0.994 0.806,1.8 1.8,1.8c0.994,0 1.8,-0.806 1.8,-1.8m-0.6,0c0,-0.663 -0.537,-1.2 -1.2,-1.2c-0.662,0 -1.2,0.537 -1.2,1.2c0,0.663 0.538,1.2 1.2,1.2c0.663,0 1.2,-0.537 1.2,-1.2"/><path d="M153.47,240.186c0,-0.828 -0.671,-1.5 -1.5,-1.5c-0.828,0 -1.5,0.672 -1.5,1.5c0,0.829 0.672,1.5 1.5,1.5c0.829,0 1.5,-0.671 1.5,-1.5" style="fill:#fff;"/><path d="M153.77,240.186c0,-0.994 -0.805,-1.8 -1.8,-1.8c-0.994,0 -1.8,0.806 -1.8,1.8c0,0.995 0.806,1.8 1.8,1.8c0.995,0 1.8,-0.805 1.8,-1.8m-0.6,0c0,-0.662 -0.537,-1.2 -1.2,-1.2c-0.662,0 -1.2,0.538 -1.2,1.2c0,0.663 0.538,1.2 1.2,1.2c0.663,0 1.2,-0.537 1.2,-1.2"/><g><rect x="200.979" y="226.505" width="38.179" height="19.213" style="fill:#bfbfbf;stroke:#000;stroke-width:1.2px;"/><path d="M224.071,216.82l-23.092,9.685l38.179,0l23.091,-9.685l-38.178,0Z" style="fill:#d4d4d4;stroke:#000;stroke-width:1.2px;"/><path d="M239.158,226.505l23.091,-9.685l0,19.212l-23.091,9.686l0,-19.213Z" style="fill:#bfbfbf;stroke:#000;stroke-width:1.2px;"/><path d="M262.249,236.032l-38.179,0" style="stroke:#000;stroke-width:0.4px;stroke-dasharray:1,3;"/><path d="M224.07,216.82l0,19.212" style="stroke:#000;stroke-width:0.4px;stroke-dasharray:1,3;"/><path d="M224.07,236.032l-23.092,9.686" style="stroke:#000;stroke-width:0.4px;stroke-dasharray:1,3;"/><path d="M202.778,226.505c0,-0.994 -0.806,-1.8 -1.8,-1.8c-0.994,0 -1.8,0.806 -1.8,1.8c0,0.994 0.806,1.8 1.8,1.8c0.994,0 1.8,-0.806 1.8,-1.8"/><path d="M202.778,245.718c0,-0.994 -0.806,-1.8 -1.8,-1.8c-0.994,0 -1.8,0.806 -1.8,1.8c0,0.994 0.806,1.8 1.8,1.8c0.994,0 1.8,-0.806 1.8,-1.8"/><path d="M240.958,245.718c0,-0.994 -0.806,-1.8 -1.8,-1.8c-0.994,0 -1.8,0.806 -1.8,1.8c0,0.994 0.806,1.8 1.8,1.8c0.994,0 1.8,-0.806 1.8,-1.8"/><path d="M264.049,236.032c0,-0.994 -0.806,-1.8 -1.8,-1.8c-0.995,0 -1.8,0.806 -1.8,1.8c0,0.994 0.805,1.8 1.8,1.8c0.994,0 1.8,-0.806 1.8,-1.8"/><path d="M264.049,216.82c0,-0.994 -0.806,-1.8 -1.8,-1.8c-0.995,0 -1.8,0.806 -1.8,1.8c0,0.994 0.805,1.8 1.8,1.8c0.994,0 1.8,-0.806 1.8,-1.8"/><path d="M240.958,226.505c0,-0.994 -0.806,-1.8 -1.8,-1.8c-0.994,0 -1.8,0.806 -1.8,1.8c0,0.994 0.806,1.8 1.8,1.8c0.994,0 1.8,-0.806 1.8,-1.8"/><path d="M225.87,216.82c0,-0.994 -0.806,-1.8 -1.8,-1.8c-0.994,0 -1.8,0.806 -1.8,1.8c0,0.994 0.806,1.8 1.8,1.8c0.994,0 1.8,-0.806 1.8,-1.8"/><path d="M225.87,236.032c0,-0.994 -0.806,-1.8 -1.8,-1.8c-0.994,0 -1.8,0.806 -1.8,1.8c0,0.994 0.806,1.8 1.8,1.8c0.994,0 1.8,-0.806 1.8,-1.8" style="fill:#ababab;"/><path d="M225.785,226.505l0,19.213" style="fill:none;stroke:#000;stroke-width:1.2px;"/><path d="M225.785,226.505l22.584,-9.685" style="fill:none;stroke:#000;stroke-width:1.2px;"/><path d="M250.169,216.82c0,-0.994 -0.806,-1.8 -1.8,-1.8c-0.995,0 -1.8,0.806 -1.8,1.8c0,0.994 0.805,1.8 1.8,1.8c0.994,0 1.8,-0.806 1.8,-1.8"/><path d="M227.585,226.505c0,-0.994 -0.806,-1.8 -1.8,-1.8c-0.994,0 -1.8,0.806 -1.8,1.8c0,0.994 0.806,1.8 1.8,1.8c0.994,0 1.8,-0.806 1.8,-1.8"/><path d="M227.585,245.718c0,-0.994 -0.806,-1.8 -1.8,-1.8c-0.994,0 -1.8,0.806 -1.8,1.8c0,0.994 0.806,1.8 1.8,1.8c0.994,0 1.8,-0.806 1.8,-1.8"/><path d="M225.785,245.718l22.584,-9.685" style="fill:none;stroke:#000;stroke-width:0.4px;stroke-dasharray:1,3;"/><path d="M248.369,216.82l0.229,18.847" style="fill:none;stroke:#000;stroke-width:0.4px;stroke-dasharray:1,3;"/><path d="M225.57,236.032c0,-0.829 -0.671,-1.5 -1.5,-1.5c-0.828,0 -1.5,0.671 -1.5,1.5c0,0.828 0.672,1.5 1.5,1.5c0.829,0 1.5,-0.672 1.5,-1.5" style="fill:#fff;"/><path d="M225.87,236.032c0,-0.994 -0.806,-1.8 -1.8,-1.8c-0.994,0 -1.8,0.806 -1.8,1.8c0,0.994 0.806,1.8 1.8,1.8c0.994,0 1.8,-0.806 1.8,-1.8m-0.6,0c0,-0.663 -0.537,-1.2 -1.2,-1.2c-0.663,0 -1.2,0.537 -1.2,1.2c0,0.662 0.537,1.2 1.2,1.2c0.663,0 1.2,-0.538 1.2,-1.2"/><path d="M250.098,235.667c0,-0.829 -0.671,-1.5 -1.5,-1.5c-0.828,0 -1.5,0.671 -1.5,1.5c0,0.828 0.672,1.5 1.5,1.5c0.829,0 1.5,-0.672 1.5,-1.5" style="fill:#fff;"/><path d="M250.398,235.667c0,-0.994 -0.806,-1.8 -1.8,-1.8c-0.994,0 -1.8,0.806 -1.8,1.8c0,0.994 0.806,1.8 1.8,1.8c0.994,0 1.8,-0.806 1.8,-1.8m-0.6,0c0,-0.663 -0.537,-1.2 -1.2,-1.2c-0.663,0 -1.2,0.537 -1.2,1.2c0,0.663 0.537,1.2 1.2,1.2c0.663,0 1.2,-0.537 1.2,-1.2"/></g><rect x="5.543" y="220.484" width="33.036" height="32.237" style="fill:#bfbfbf;stroke:#000;stroke-width:1.2px;"/><path d="M25.524,204.233l-19.981,16.251l33.036,0l19.981,-16.251l-33.036,0Z" style="fill:#d4d4d4;stroke:#000;stroke-width:1.2px;"/><path d="M38.579,220.484l19.981,-16.251l0,32.236l-19.981,16.252l0,-32.237Z" style="fill:#bfbfbf;stroke:#000;stroke-width:1.2px;"/><path d="M58.56,236.469l-33.035,0" style="stroke:#000;stroke-width:0.4px;stroke-dasharray:1,3;"/><path d="M25.525,204.233l0,32.236" style="stroke:#000;stroke-width:0.4px;stroke-dasharray:1,3;"/><path d="M25.525,236.469l-19.981,16.252" style="stroke:#000;stroke-width:0.4px;stroke-dasharray:1,3;"/><path d="M7.344,220.484c0,-0.994 -0.806,-1.8 -1.8,-1.8c-0.994,0 -1.8,0.806 -1.8,1.8c0,0.994 0.806,1.8 1.8,1.8c0.994,0 1.8,-0.806 1.8,-1.8"/><path d="M7.344,252.721c0,-0.995 -0.806,-1.8 -1.8,-1.8c-0.994,0 -1.8,0.805 -1.8,1.8c0,0.994 0.806,1.8 1.8,1.8c0.994,0 1.8,-0.806 1.8,-1.8"/><path d="M40.38,252.721c0,-0.995 -0.806,-1.8 -1.8,-1.8c-0.994,0 -1.8,0.805 -1.8,1.8c0,0.994 0.806,1.8 1.8,1.8c0.994,0 1.8,-0.806 1.8,-1.8"/><path d="M60.36,236.469c0,-0.994 -0.806,-1.8 -1.8,-1.8c-0.994,0 -1.8,0.806 -1.8,1.8c0,0.994 0.806,1.8 1.8,1.8c0.994,0 1.8,-0.806 1.8,-1.8"/><path d="M60.36,204.233c0,-0.994 -0.806,-1.8 -1.8,-1.8c-0.994,0 -1.8,0.806 -1.8,1.8c0,0.994 0.806,1.8 1.8,1.8c0.994,0 1.8,-0.806 1.8,-1.8"/><path d="M40.38,220.484c0,-0.994 -0.806,-1.8 -1.8,-1.8c-0.994,0 -1.8,0.806 -1.8,1.8c0,0.994 0.806,1.8 1.8,1.8c0.994,0 1.8,-0.806 1.8,-1.8"/><path d="M27.325,204.233c0,-0.994 -0.806,-1.8 -1.8,-1.8c-0.994,0 -1.8,0.806 -1.8,1.8c0,0.994 0.806,1.8 1.8,1.8c0.994,0 1.8,-0.806 1.8,-1.8"/><path d="M27.325,236.469c0,-0.994 -0.806,-1.8 -1.8,-1.8c-0.994,0 -1.8,0.806 -1.8,1.8c0,0.994 0.806,1.8 1.8,1.8c0.994,0 1.8,-0.806 1.8,-1.8" style="fill:#ababab;"/><path d="M27.025,236.469c0,-0.829 -0.672,-1.5 -1.5,-1.5c-0.829,0 -1.5,0.671 -1.5,1.5c0,0.828 0.671,1.5 1.5,1.5c0.828,0 1.5,-0.672 1.5,-1.5" style="fill:#fff;"/><path d="M27.325,236.469c0,-0.994 -0.806,-1.8 -1.8,-1.8c-0.995,0 -1.8,0.806 -1.8,1.8c0,0.994 0.805,1.8 1.8,1.8c0.994,0 1.8,-0.806 1.8,-1.8m-0.6,0c0,-0.663 -0.538,-1.2 -1.2,-1.2c-0.663,0 -1.2,0.537 -1.2,1.2c0,0.662 0.537,1.2 1.2,1.2c0.662,0 1.2,-0.538 1.2,-1.2"/><rect x="22.896" y="226.633" width="8.374" height="8.172" style="fill:#fff;stroke:#acacac;stroke-width:1.2px;"/><path d="M27.961,222.514l-5.065,4.119l8.374,0l5.065,-4.119l-8.374,0Z" style="fill:#fff;stroke:#adadad;stroke-width:1.2px;"/><path d="M31.27,226.633l5.065,-4.119l0,8.172l-5.065,4.119l0,-8.172Z" style="fill:#fff;stroke:#acacac;stroke-width:1.2px;"/><path d="M36.335,230.686l-8.374,0" style="fill:#fff;stroke:#acacac;stroke-width:0.4px;stroke-dasharray:1,3;"/><path d="M27.961,222.514l0,8.172" style="fill:#a2a2a2;stroke:#acacac;stroke-width:0.4px;stroke-dasharray:1,3;"/><path d="M27.961,230.686l-5.065,4.12" style="fill:#a2a2a2;stroke:#acacac;stroke-width:0.4px;stroke-dasharray:1,3;"/><path d="M24.696,226.634c0,-0.995 -0.806,-1.8 -1.8,-1.8c-0.995,0 -1.8,0.805 -1.8,1.8c0,0.994 0.805,1.8 1.8,1.8c0.994,0 1.8,-0.806 1.8,-1.8" style="fill:#a2a2a2;"/><path d="M24.696,234.806c0,-0.995 -0.806,-1.8 -1.8,-1.8c-0.995,0 -1.8,0.805 -1.8,1.8c0,0.994 0.805,1.8 1.8,1.8c0.994,0 1.8,-0.806 1.8,-1.8" style="fill:#a2a2a2;"/><path d="M33.07,234.806c0,-0.995 -0.806,-1.8 -1.8,-1.8c-0.994,0 -1.8,0.805 -1.8,1.8c0,0.994 0.806,1.8 1.8,1.8c0.994,0 1.8,-0.806 1.8,-1.8" style="fill:#a2a2a2;"/><path d="M38.135,230.686c0,-0.994 -0.806,-1.8 -1.8,-1.8c-0.994,0 -1.8,0.806 -1.8,1.8c0,0.994 0.806,1.8 1.8,1.8c0.994,0 1.8,-0.806 1.8,-1.8" style="fill:#a2a2a2;"/><path d="M38.135,222.514c0,-0.994 -0.806,-1.8 -1.8,-1.8c-0.994,0 -1.8,0.806 -1.8,1.8c0,0.994 0.806,1.8 1.8,1.8c0.994,0 1.8,-0.806 1.8,-1.8" style="fill:#a2a2a2;"/><path d="M33.07,226.634c0,-0.995 -0.806,-1.8 -1.8,-1.8c-0.994,0 -1.8,0.805 -1.8,1.8c0,0.994 0.806,1.8 1.8,1.8c0.994,0 1.8,-0.806 1.8,-1.8" style="fill:#a2a2a2;"/><path d="M29.761,222.514c0,-0.994 -0.806,-1.8 -1.8,-1.8c-0.994,0 -1.8,0.806 -1.8,1.8c0,0.994 0.806,1.8 1.8,1.8c0.994,0 1.8,-0.806 1.8,-1.8" style="fill:#a2a2a2;"/><path d="M29.761,230.686c0,-0.994 -0.806,-1.8 -1.8,-1.8c-0.994,0 -1.8,0.806 -1.8,1.8c0,0.994 0.806,1.8 1.8,1.8c0.994,0 1.8,-0.806 1.8,-1.8" style="fill:#a2a2a2;"/><path d="M197.647,34.929c0,-0.994 -0.807,-1.8 -1.8,-1.8c-0.994,0 -1.8,0.806 -1.8,1.8c0,0.994 0.806,1.8 1.8,1.8c0.993,0 1.8,-0.806 1.8,-1.8" style="fill:#a2a2a2;"/></g></svg>