<?xml version="1.0" encoding="UTF-8" standalone="no"?><!DOCTYPE svg PUBLIC "-//W3C//DTD SVG 1.1//EN" "http://www.w3.org/Graphics/SVG/1.1/DTD/svg11.dtd"><svg width="100%" height="100%" viewBox="0 0 330 111" version="1.1" xmlns="http://www.w3.org/2000/svg" xmlns:xlink="http://www.w3.org/1999/xlink" xml:space="preserve" style="fill-rule:evenodd;clip-rule:evenodd;stroke-linejoin:round;stroke-miterlimit:10;"><g id="Trim"><path d="M34.691,37.4c0,-1.657 -1.343,-3 -3,-3c-1.656,0 -3,1.343 -3,3c0,1.657 1.344,3 3,3c1.657,0 3,-1.343 3,-3"/><path d="M70.529,63.362l4.246,-2.713c4.245,-2.712 12.736,-8.137 18.632,-8.609c5.897,-0.472 9.199,4.01 13.091,2.241c3.892,-1.769 8.373,-9.789 7.43,-16.393c-0.944,-6.604 -7.312,-11.793 -5.307,-15.331c2.004,-3.538 12.383,-5.424 17.572,-6.368c5.189,-0.943 5.189,-0.943 5.433,-1c0.244,-0.056 0.732,-0.168 0.977,-0.225l0.244,-0.056" style="fill:none;stroke:#000;stroke-width:1.2px;"/><path d="M164.998,50.776c3.925,10.705 18.436,18.079 29.855,17.722c11.418,-0.357 19.744,-8.445 25.572,-16.89c5.828,-8.445 9.158,-17.246 6.542,-21.885c-2.617,-4.639 -11.181,-5.114 -8.921,-9.753c2.26,-4.639 15.343,-13.44 12.965,-17.247c-2.379,-3.806 -20.221,-2.616 -29.141,5.709c-8.921,8.326 -8.921,23.789 -10.824,31.044c-1.903,7.256 -5.709,6.304 -7.612,5.829c-1.903,-0.476 -1.903,-0.476 -2.26,-3.687c-0.356,-3.212 -1.07,-9.635 -2.259,-15.106c-1.19,-5.472 -2.855,-9.992 -7.018,-5.234c-4.163,4.758 -10.824,18.793 -6.899,29.498Z" style="fill:#bfbfbf;stroke:#000;stroke-width:1.2px;"/><path d="M203.687,46.354c-1.57,2.888 -5.085,2.574 -6.435,0.063c-1.35,-2.511 -0.534,-7.22 1.287,-13.152c1.821,-5.933 4.646,-13.09 8.601,-12.211c3.955,0.879 9.04,9.794 10.202,15.193c1.161,5.399 -1.601,7.282 -2.982,8.224l-1.381,0.942l-1.413,-2.355c-1.413,-2.354 -4.238,-7.062 -5.462,-6.372c-1.225,0.691 -0.848,6.78 -2.417,9.668Z" style="fill:#fff;stroke:#000;stroke-width:1.2px;"/><rect x="259.214" y="27.38" width="40.933" height="39.943" style="fill:#bfbfbf;stroke:#000;stroke-width:1.2px;"/><path d="M283.972,7.244l-24.758,20.136l40.933,0l24.758,-20.136l-40.933,0Z" style="fill:#d4d4d4;stroke:#000;stroke-width:1.2px;"/><path d="M300.147,27.38l24.758,-20.136l0,39.943l-24.758,20.136l0,-39.943Z" style="fill:#bfbfbf;stroke:#000;stroke-width:1.2px;"/><g><path d="M24.68,86.484c-0.12,0.96 -0.12,2.628 0,3.6c0.192,1.548 1.08,2.496 2.52,2.496c1.584,0 2.376,-1.176 2.52,-2.496c0.108,-0.96 0.12,-2.64 0,-3.6c-0.192,-1.548 -1.08,-2.496 -2.52,-2.496c-1.584,0 -2.364,1.188 -2.52,2.496Zm2.52,-1.788c1.272,0 1.692,1.068 1.788,1.788c0.144,1.008 0.144,2.592 0,3.6c-0.132,0.876 -0.672,1.788 -1.788,1.788c-1.26,0 -1.692,-1.08 -1.788,-1.788c-0.132,-1.008 -0.132,-2.592 0,-3.6c0.108,-0.888 0.696,-1.788 1.788,-1.788Z" style="fill-rule:nonzero;"/><path d="M33.728,92.484c1.44,0 2.472,-0.852 2.676,-2.4c0.132,-0.972 0.132,-2.64 0,-3.6c-0.18,-1.308 -1.092,-2.4 -2.676,-2.4l-2.16,0c-0.132,0 -0.24,0.108 -0.24,0.24l0,7.92c0,0.132 0.108,0.24 0.24,0.24l2.16,0Zm-1.512,-0.768c-0.072,0 -0.12,-0.048 -0.12,-0.12l0,-6.624c0,-0.072 0.048,-0.12 0.12,-0.12l1.512,0c1.14,0 1.74,0.756 1.872,1.632c0.144,0.984 0.144,2.616 0,3.6c-0.096,0.696 -0.576,1.632 -1.872,1.632l-1.512,0Z" style="fill-rule:nonzero;"/><path d="M9.356,105.084c0,0.708 -0.612,1.728 -1.908,1.728c-1.296,0 -1.776,-1.032 -1.872,-1.728c-0.144,-0.984 -0.144,-2.616 0,-3.6c0.132,-0.876 0.732,-1.728 1.872,-1.728c1.14,0 1.872,0.732 1.872,1.728l0,0.048c0,0.132 0.108,0.24 0.24,0.24l0.324,0c0.132,0 0.24,-0.108 0.24,-0.24l0,-0.048c0,-1.38 -1.092,-2.496 -2.676,-2.496c-1.584,0 -2.496,1.188 -2.676,2.496c-0.132,0.96 -0.132,2.628 0,3.6c0.204,1.548 1.236,2.496 2.676,2.496c1.44,0 2.676,-0.936 2.676,-2.496l0,-1.944c0,-0.132 -0.108,-0.24 -0.24,-0.24l-2.112,0c-0.132,0 -0.24,0.108 -0.24,0.24l0,0.288c0,0.132 0.108,0.24 0.24,0.24l1.464,0c0.072,0 0.12,0.048 0.12,0.12l0,1.296Z" style="fill-rule:nonzero;"/><path d="M12.716,99.288c-0.048,-0.144 -0.12,-0.204 -0.252,-0.204l-0.72,0c-0.132,0 -0.24,0.108 -0.24,0.24l0,7.92c0,0.132 0.108,0.24 0.24,0.24l0.24,0c0.132,0 0.24,-0.108 0.24,-0.24l0,-6.876c0,-0.072 0.096,-0.096 0.12,-0.024l1.236,3.936c0.048,0.144 0.12,0.204 0.252,0.204l0.336,0c0.132,0 0.204,-0.06 0.252,-0.204l1.236,-3.936c0.024,-0.072 0.12,-0.048 0.12,0.024l0,6.876c0,0.132 0.108,0.24 0.24,0.24l0.24,0c0.132,0 0.24,-0.108 0.24,-0.24l0,-7.92c0,-0.132 -0.108,-0.24 -0.24,-0.24l-0.72,0c-0.132,0 -0.204,0.06 -0.252,0.204l-1.224,3.84c-0.024,0.06 -0.108,0.048 -0.12,0l-1.224,-3.84Z" style="fill-rule:nonzero;"/><path d="M17.42,107.484c-0.132,0 -0.24,0.108 -0.24,0.24l0,0.228c0,0.132 0.108,0.24 0.24,0.24l6.36,0c0.132,0 0.24,-0.108 0.24,-0.24l0,-0.228c0,-0.132 -0.108,-0.24 -0.24,-0.24l-6.36,0Z" style="fill-rule:nonzero;"/><path d="M25.688,104.244c0,-0.072 0.048,-0.12 0.12,-0.12l1.392,0c1.392,0 2.52,-1.128 2.52,-2.52c0,-1.392 -1.128,-2.52 -2.52,-2.52l-2.04,0c-0.132,0 -0.24,0.108 -0.24,0.24l0,7.92c0,0.132 0.108,0.24 0.24,0.24l0.288,0c0.132,0 0.24,-0.108 0.24,-0.24l0,-3Zm1.512,-4.392c0.96,0 1.752,0.792 1.752,1.752c0,0.96 -0.792,1.752 -1.752,1.752l-1.392,0c-0.072,0 -0.12,-0.048 -0.12,-0.12l0,-3.264c0,-0.072 0.048,-0.12 0.12,-0.12l1.392,0Z" style="fill-rule:nonzero;"/><path d="M33.8,101.364c-1.44,0 -2.328,1.02 -2.424,2.28c-0.036,0.48 -0.036,1.2 0,1.68c0.096,1.26 0.984,2.28 2.424,2.28c1.44,0 2.328,-1.02 2.424,-2.28c0.036,-0.48 0.036,-1.2 0,-1.68c-0.096,-1.26 -0.984,-2.28 -2.424,-2.28Zm0,5.532c-1.2,0 -1.632,-0.936 -1.692,-1.572c-0.048,-0.492 -0.048,-1.188 0,-1.68c0.06,-0.636 0.492,-1.572 1.692,-1.572c1.2,0 1.632,0.936 1.692,1.572c0.048,0.492 0.048,1.188 0,1.68c-0.06,0.636 -0.492,1.572 -1.692,1.572Z" style="fill-rule:nonzero;"/><path d="M41.084,99.192c0,-0.096 -0.084,-0.192 -0.192,-0.192l-0.624,0c-0.108,0 -0.192,0.096 -0.192,0.192l0,0.636c0,0.108 0.084,0.192 0.192,0.192l0.624,0c0.108,0 0.192,-0.084 0.192,-0.192l0,-0.636Zm-0.912,3.012c0.072,0 0.12,0.048 0.12,0.12l0,4.32c0,0.072 -0.048,0.12 -0.12,0.12l-1.62,0c-0.132,0 -0.24,0.108 -0.24,0.24l0,0.24c0,0.132 0.108,0.24 0.24,0.24l4.152,0c0.132,0 0.24,-0.108 0.24,-0.24l0,-0.24c0,-0.132 -0.108,-0.24 -0.24,-0.24l-1.572,0c-0.072,0 -0.12,-0.048 -0.12,-0.12l0,-4.92c0,-0.132 -0.108,-0.24 -0.24,-0.24l-2.1,0c-0.132,0 -0.24,0.108 -0.24,0.24l0,0.24c0,0.132 0.108,0.24 0.24,0.24l1.5,0Z" style="fill-rule:nonzero;"/><path d="M45.656,101.76c-0.144,0 -0.216,-0.108 -0.288,-0.192c-0.048,-0.048 -0.096,-0.084 -0.168,-0.084l-0.192,0c-0.132,0 -0.24,0.108 -0.24,0.24l0,5.52c0,0.132 0.108,0.24 0.24,0.24l0.228,0c0.132,0 0.24,-0.108 0.24,-0.24l0,-3.852c0,-0.744 0.66,-1.32 1.524,-1.32c0.864,0 1.524,0.372 1.524,1.38l0,3.792c0,0.132 0.108,0.24 0.24,0.24l0.228,0c0.132,0 0.24,-0.108 0.24,-0.24l0,-3.792c0,-1.368 -0.888,-2.088 -2.148,-2.088c-0.888,0 -1.08,0.396 -1.428,0.396Z" style="fill-rule:nonzero;"/><path d="M53.168,102.372c0,-0.072 0.048,-0.12 0.12,-0.12l1.992,0c0.132,0 0.24,-0.108 0.24,-0.24l0,-0.228c0,-0.132 -0.108,-0.24 -0.24,-0.24l-1.992,0c-0.072,0 -0.12,-0.048 -0.12,-0.12l0,-1.86c0,-0.132 -0.108,-0.24 -0.24,-0.24l-0.24,0c-0.132,0 -0.24,0.108 -0.24,0.24l0,1.86c0,0.072 -0.048,0.12 -0.12,0.12l-1.332,0c-0.132,0 -0.24,0.108 -0.24,0.24l0,0.228c0,0.132 0.108,0.24 0.24,0.24l1.332,0c0.072,0 0.12,0.048 0.12,0.12l0,3.312c0,1.056 0.804,1.92 1.86,1.92c1.056,0 1.836,-0.864 1.836,-1.92c0,-0.132 -0.108,-0.24 -0.24,-0.24l-0.252,0c-0.132,0 -0.24,0.108 -0.24,0.24c0,0.672 -0.42,1.2 -1.104,1.2c-0.612,0 -1.14,-0.48 -1.14,-1.32l0,-3.192Z" style="fill-rule:nonzero;"/></g><g><path d="M98.316,91.632c0,0.072 -0.048,0.12 -0.12,0.12l-1.8,0c-0.132,0 -0.24,0.108 -0.24,0.24l0,0.252c0,0.132 0.108,0.24 0.24,0.24l4.212,0c0.132,0 0.24,-0.108 0.24,-0.24l0,-0.252c0,-0.132 -0.108,-0.24 -0.24,-0.24l-1.452,0c-0.072,0 -0.12,-0.048 -0.12,-0.12l0,-7.308c0,-0.132 -0.108,-0.24 -0.24,-0.24l-0.372,0c-0.084,0 -0.192,0.036 -0.24,0.108l-1.68,2.112c-0.084,0.096 -0.24,0.288 -0.24,0.492l0,0.504c0,0.132 0.168,0.204 0.264,0.096l1.68,-2.112c0.036,-0.036 0.108,-0.024 0.108,0.048l0,6.3Z" style="fill-rule:nonzero;"/><path d="M104.916,92.484c1.44,0 2.472,-0.852 2.676,-2.4c0.132,-0.972 0.132,-2.64 0,-3.6c-0.18,-1.308 -1.092,-2.4 -2.676,-2.4l-2.16,0c-0.132,0 -0.24,0.108 -0.24,0.24l0,7.92c0,0.132 0.108,0.24 0.24,0.24l2.16,0Zm-1.512,-0.768c-0.072,0 -0.12,-0.048 -0.12,-0.12l0,-6.624c0,-0.072 0.048,-0.12 0.12,-0.12l1.512,0c1.14,0 1.74,0.756 1.872,1.632c0.144,0.984 0.144,2.616 0,3.6c-0.096,0.696 -0.576,1.632 -1.872,1.632l-1.512,0Z" style="fill-rule:nonzero;"/><path d="M80.544,105.084c0,0.708 -0.612,1.728 -1.908,1.728c-1.296,0 -1.776,-1.032 -1.872,-1.728c-0.144,-0.984 -0.144,-2.616 0,-3.6c0.132,-0.876 0.732,-1.728 1.872,-1.728c1.14,0 1.872,0.732 1.872,1.728l0,0.048c0,0.132 0.108,0.24 0.24,0.24l0.324,0c0.132,0 0.24,-0.108 0.24,-0.24l0,-0.048c0,-1.38 -1.092,-2.496 -2.676,-2.496c-1.584,0 -2.496,1.188 -2.676,2.496c-0.132,0.96 -0.132,2.628 0,3.6c0.204,1.548 1.236,2.496 2.676,2.496c1.44,0 2.676,-0.936 2.676,-2.496l0,-1.944c0,-0.132 -0.108,-0.24 -0.24,-0.24l-2.112,0c-0.132,0 -0.24,0.108 -0.24,0.24l0,0.288c0,0.132 0.108,0.24 0.24,0.24l1.464,0c0.072,0 0.12,0.048 0.12,0.12l0,1.296Z" style="fill-rule:nonzero;"/><path d="M83.904,99.288c-0.048,-0.144 -0.12,-0.204 -0.252,-0.204l-0.72,0c-0.132,0 -0.24,0.108 -0.24,0.24l0,7.92c0,0.132 0.108,0.24 0.24,0.24l0.24,0c0.132,0 0.24,-0.108 0.24,-0.24l0,-6.876c0,-0.072 0.096,-0.096 0.12,-0.024l1.236,3.936c0.048,0.144 0.12,0.204 0.252,0.204l0.336,0c0.132,0 0.204,-0.06 0.252,-0.204l1.236,-3.936c0.024,-0.072 0.12,-0.048 0.12,0.024l0,6.876c0,0.132 0.108,0.24 0.24,0.24l0.24,0c0.132,0 0.24,-0.108 0.24,-0.24l0,-7.92c0,-0.132 -0.108,-0.24 -0.24,-0.24l-0.72,0c-0.132,0 -0.204,0.06 -0.252,0.204l-1.224,3.84c-0.024,0.06 -0.108,0.048 -0.12,0l-1.224,-3.84Z" style="fill-rule:nonzero;"/><path d="M88.608,107.484c-0.132,0 -0.24,0.108 -0.24,0.24l0,0.228c0,0.132 0.108,0.24 0.24,0.24l6.36,0c0.132,0 0.24,-0.108 0.24,-0.24l0,-0.228c0,-0.132 -0.108,-0.24 -0.24,-0.24l-6.36,0Z" style="fill-rule:nonzero;"/><path d="M100.308,105.084c0,0.708 -0.576,1.728 -1.872,1.728c-1.296,0 -1.776,-1.032 -1.872,-1.728c-0.144,-0.984 -0.144,-2.616 0,-3.6c0.132,-0.876 0.732,-1.728 1.872,-1.728c1.14,0 1.872,0.84 1.872,1.728l0,0.048c0,0.132 0.108,0.24 0.24,0.24l0.324,0c0.132,0 0.24,-0.108 0.24,-0.24l0,-0.048c0,-1.32 -1.092,-2.496 -2.676,-2.496c-1.584,0 -2.496,1.188 -2.676,2.496c-0.132,0.96 -0.132,2.628 0,3.6c0.204,1.548 1.236,2.496 2.676,2.496c1.44,0 2.676,-0.936 2.676,-2.496l0,-0.048c0,-0.132 -0.108,-0.24 -0.24,-0.24l-0.324,0c-0.132,0 -0.24,0.108 -0.24,0.24l0,0.048Z" style="fill-rule:nonzero;"/><path d="M106.332,107.208c0.144,0 0.216,0.108 0.288,0.192c0.048,0.048 0.096,0.084 0.168,0.084l0.192,0c0.132,0 0.24,-0.108 0.24,-0.24l0,-5.52c0,-0.132 -0.108,-0.24 -0.24,-0.24l-0.228,0c-0.132,0 -0.24,0.108 -0.24,0.24l0,3.852c0,0.744 -0.66,1.32 -1.524,1.32c-0.864,0 -1.524,-0.372 -1.524,-1.38l0,-3.792c0,-0.132 -0.108,-0.24 -0.24,-0.24l-0.228,0c-0.132,0 -0.24,0.108 -0.24,0.24l0,3.792c0,1.368 0.888,2.088 2.148,2.088c0.888,0 1.08,-0.396 1.428,-0.396Z" style="fill-rule:nonzero;"/><path d="M113.544,103.404c0,0.132 0.108,0.24 0.24,0.24l0.228,0c0.132,0 0.24,-0.108 0.24,-0.24c0,-1.248 -0.9,-2.04 -2.124,-2.04c-0.888,0 -1.116,0.396 -1.464,0.396c-0.12,0 -0.228,-0.108 -0.3,-0.192c-0.048,-0.048 -0.096,-0.084 -0.168,-0.084l-0.192,0c-0.132,0 -0.24,0.108 -0.24,0.24l0,5.52c0,0.132 0.108,0.24 0.24,0.24l0.228,0c0.132,0 0.24,-0.108 0.24,-0.24l0,-3.72c0,-0.84 0.672,-1.452 1.536,-1.452c0.96,0 1.536,0.576 1.536,1.332Z" style="fill-rule:nonzero;"/><path d="M118.272,106.524c-0.036,0.096 -0.144,0.096 -0.18,0l-1.8,-4.86c-0.048,-0.132 -0.12,-0.18 -0.228,-0.18l-0.312,0c-0.192,0 -0.276,0.156 -0.228,0.276l2.124,5.544c0.048,0.12 0.12,0.18 0.228,0.18l0.612,0c0.108,0 0.18,-0.06 0.228,-0.18l2.124,-5.544c0.048,-0.12 -0.036,-0.276 -0.228,-0.276l-0.312,0c-0.108,0 -0.18,0.048 -0.228,0.18l-1.8,4.86Z" style="fill-rule:nonzero;"/><path d="M123.072,104.892c0,-0.072 0.048,-0.12 0.12,-0.12l3.804,0c0.132,0 0.24,-0.108 0.24,-0.24l0,-0.768c0,-1.32 -1.056,-2.4 -2.4,-2.4c-1.44,0 -2.364,1.02 -2.46,2.28c-0.036,0.48 -0.036,1.2 0,1.68c0.096,1.26 1.02,2.28 2.46,2.28c1.248,0 2.184,-0.756 2.328,-1.8c0.024,-0.168 -0.084,-0.24 -0.204,-0.24l-0.24,0c-0.108,0 -0.228,0.048 -0.276,0.204c-0.18,0.564 -0.684,1.128 -1.608,1.128c-1.236,0 -1.764,-0.852 -1.764,-2.004Zm0.024,-0.912c0,-1.224 0.684,-1.908 1.752,-1.908c0.984,0 1.728,0.684 1.728,1.908c0,0.072 -0.048,0.12 -0.12,0.12l-3.24,0c-0.072,0 -0.12,-0.048 -0.12,-0.12Z" style="fill-rule:nonzero;"/></g><g><path d="M194.876,86.28c0,0.924 -0.384,1.392 -0.9,1.968l-2.892,3.252c-0.048,0.048 -0.108,0.12 -0.108,0.3l0,0.444c0,0.132 0.108,0.24 0.24,0.24l4.344,0c0.132,0 0.24,-0.108 0.24,-0.24l0,-0.252c0,-0.132 -0.108,-0.24 -0.24,-0.24l-3.492,0c-0.12,0 -0.156,-0.12 -0.096,-0.192l2.628,-2.916c0.624,-0.696 1.008,-1.44 1.008,-2.364c0,-1.392 -0.972,-2.292 -2.256,-2.292c-1.284,0 -2.28,1.008 -2.28,2.292l0,0.18c0,0.132 0.108,0.24 0.24,0.24l0.276,0c0.132,0 0.24,-0.108 0.24,-0.24l0,-0.18c0,-0.756 0.588,-1.584 1.524,-1.584c1.044,0 1.524,0.78 1.524,1.584Z" style="fill-rule:nonzero;"/><path d="M199.916,92.484c1.44,0 2.472,-0.852 2.676,-2.4c0.132,-0.972 0.132,-2.64 0,-3.6c-0.18,-1.308 -1.092,-2.4 -2.676,-2.4l-2.16,0c-0.132,0 -0.24,0.108 -0.24,0.24l0,7.92c0,0.132 0.108,0.24 0.24,0.24l2.16,0Zm-1.512,-0.768c-0.072,0 -0.12,-0.048 -0.12,-0.12l0,-6.624c0,-0.072 0.048,-0.12 0.12,-0.12l1.512,0c1.14,0 1.74,0.756 1.872,1.632c0.144,0.984 0.144,2.616 0,3.6c-0.096,0.696 -0.576,1.632 -1.872,1.632l-1.512,0Z" style="fill-rule:nonzero;"/><path d="M168.944,105.084c0,0.708 -0.612,1.728 -1.908,1.728c-1.296,0 -1.776,-1.032 -1.872,-1.728c-0.144,-0.984 -0.144,-2.616 0,-3.6c0.132,-0.876 0.732,-1.728 1.872,-1.728c1.14,0 1.872,0.732 1.872,1.728l0,0.048c0,0.132 0.108,0.24 0.24,0.24l0.324,0c0.132,0 0.24,-0.108 0.24,-0.24l0,-0.048c0,-1.38 -1.092,-2.496 -2.676,-2.496c-1.584,0 -2.496,1.188 -2.676,2.496c-0.132,0.96 -0.132,2.628 0,3.6c0.204,1.548 1.236,2.496 2.676,2.496c1.44,0 2.676,-0.936 2.676,-2.496l0,-1.944c0,-0.132 -0.108,-0.24 -0.24,-0.24l-2.112,0c-0.132,0 -0.24,0.108 -0.24,0.24l0,0.288c0,0.132 0.108,0.24 0.24,0.24l1.464,0c0.072,0 0.12,0.048 0.12,0.12l0,1.296Z" style="fill-rule:nonzero;"/><path d="M172.304,99.288c-0.048,-0.144 -0.12,-0.204 -0.252,-0.204l-0.72,0c-0.132,0 -0.24,0.108 -0.24,0.24l0,7.92c0,0.132 0.108,0.24 0.24,0.24l0.24,0c0.132,0 0.24,-0.108 0.24,-0.24l0,-6.876c0,-0.072 0.096,-0.096 0.12,-0.024l1.236,3.936c0.048,0.144 0.12,0.204 0.252,0.204l0.336,0c0.132,0 0.204,-0.06 0.252,-0.204l1.236,-3.936c0.024,-0.072 0.12,-0.048 0.12,0.024l0,6.876c0,0.132 0.108,0.24 0.24,0.24l0.24,0c0.132,0 0.24,-0.108 0.24,-0.24l0,-7.92c0,-0.132 -0.108,-0.24 -0.24,-0.24l-0.72,0c-0.132,0 -0.204,0.06 -0.252,0.204l-1.224,3.84c-0.024,0.06 -0.108,0.048 -0.12,0l-1.224,-3.84Z" style="fill-rule:nonzero;"/><path d="M177.008,107.484c-0.132,0 -0.24,0.108 -0.24,0.24l0,0.228c0,0.132 0.108,0.24 0.24,0.24l6.36,0c0.132,0 0.24,-0.108 0.24,-0.24l0,-0.228c0,-0.132 -0.108,-0.24 -0.24,-0.24l-6.36,0Z" style="fill-rule:nonzero;"/><path d="M188.588,105.084c-0.012,1.02 -0.708,1.728 -1.8,1.728c-1.188,0 -1.8,-0.888 -1.8,-1.728l0,-0.192c0,-0.132 -0.108,-0.24 -0.24,-0.24l-0.3,0c-0.132,0 -0.24,0.108 -0.24,0.24l0,0.192c0,1.368 1.032,2.496 2.58,2.496c1.356,0 2.58,-0.924 2.58,-2.496c0,-1.476 -0.9,-2.004 -2.196,-2.4c-0.828,-0.252 -1.956,-0.36 -1.956,-1.44c0,-0.744 0.504,-1.488 1.572,-1.488c0.9,0 1.572,0.624 1.572,1.488l0,0.156c0,0.132 0.108,0.24 0.24,0.24l0.288,0c0.132,0 0.24,-0.108 0.24,-0.24l0,-0.156c0,-1.236 -0.924,-2.256 -2.34,-2.256c-1.236,0 -2.352,0.816 -2.352,2.256c0,1.404 1.14,1.86 2.016,2.064c1.368,0.324 2.148,0.684 2.136,1.776Z" style="fill-rule:nonzero;"/><path d="M194.732,107.208c0.144,0 0.216,0.108 0.288,0.192c0.048,0.048 0.096,0.084 0.168,0.084l0.192,0c0.132,0 0.24,-0.108 0.24,-0.24l0,-5.52c0,-0.132 -0.108,-0.24 -0.24,-0.24l-0.228,0c-0.132,0 -0.24,0.108 -0.24,0.24l0,3.852c0,0.744 -0.66,1.32 -1.524,1.32c-0.864,0 -1.524,-0.372 -1.524,-1.38l0,-3.792c0,-0.132 -0.108,-0.24 -0.24,-0.24l-0.228,0c-0.132,0 -0.24,0.108 -0.24,0.24l0,3.792c0,1.368 0.888,2.088 2.148,2.088c0.888,0 1.08,-0.396 1.428,-0.396Z" style="fill-rule:nonzero;"/><path d="M201.944,103.404c0,0.132 0.108,0.24 0.24,0.24l0.228,0c0.132,0 0.24,-0.108 0.24,-0.24c0,-1.248 -0.9,-2.04 -2.124,-2.04c-0.888,0 -1.116,0.396 -1.464,0.396c-0.12,0 -0.228,-0.108 -0.3,-0.192c-0.048,-0.048 -0.096,-0.084 -0.168,-0.084l-0.192,0c-0.132,0 -0.24,0.108 -0.24,0.24l0,5.52c0,0.132 0.108,0.24 0.24,0.24l0.228,0c0.132,0 0.24,-0.108 0.24,-0.24l0,-3.72c0,-0.84 0.672,-1.452 1.536,-1.452c0.96,0 1.536,0.576 1.536,1.332Z" style="fill-rule:nonzero;"/><path d="M205.94,102.252c0.072,0 0.12,0.048 0.12,0.12l0,4.872c0,0.132 0.108,0.24 0.24,0.24l0.24,0c0.132,0 0.24,-0.108 0.24,-0.24l0,-4.872c0,-0.072 0.048,-0.12 0.12,-0.12l1.968,0c0.132,0 0.24,-0.108 0.24,-0.24l0,-0.228c0,-0.132 -0.108,-0.24 -0.24,-0.24l-1.968,0c-0.072,0 -0.12,-0.048 -0.12,-0.12l0,-0.18c0,-0.84 0.408,-1.572 1.32,-1.572l0.54,0c0.132,0 0.24,-0.108 0.24,-0.24l0,-0.192c0,-0.132 -0.108,-0.24 -0.24,-0.24l-0.54,0c-1.2,0 -2.04,0.888 -2.04,2.244l0,0.18c0,0.072 -0.048,0.12 -0.12,0.12l-1.644,0c-0.132,0 -0.24,0.108 -0.24,0.24l0,0.228c0,0.132 0.108,0.24 0.24,0.24l1.644,0Z" style="fill-rule:nonzero;"/><path d="M214.652,104.592c0.072,0 0.12,0.048 0.12,0.12l0,0.72c0,0.972 -0.624,1.5 -1.728,1.5c-0.756,0 -1.416,-0.408 -1.416,-1.26c0,-0.708 0.6,-1.08 1.272,-1.08l1.752,0Zm-1.368,-2.568c0.84,0 1.452,0.54 1.452,1.32l0,0.468c0,0.072 -0.048,0.12 -0.12,0.12l-1.716,0c-1.26,0 -1.98,0.756 -1.98,1.752c0,1.02 0.708,1.92 2.184,1.92c0.888,0 1.368,-0.456 1.584,-0.456c0.156,0 0.18,0.156 0.24,0.252c0.036,0.06 0.096,0.084 0.168,0.084l0.108,0c0.132,0 0.24,-0.108 0.24,-0.24l0,-3.888c0,-1.368 -0.984,-1.992 -2.16,-1.992c-1.02,0 -2.088,0.564 -2.088,1.68c0,0.144 0.06,0.24 0.24,0.24l0.168,0c0.108,0 0.276,0 0.276,-0.204c0,-0.636 0.684,-1.056 1.404,-1.056Z" style="fill-rule:nonzero;"/><path d="M219.884,106.896c-1.2,0 -1.632,-0.936 -1.692,-1.572c-0.048,-0.492 -0.048,-1.188 0,-1.68c0.06,-0.636 0.492,-1.572 1.692,-1.572c0.984,0 1.548,0.66 1.548,1.38c0,0.132 0.12,0.192 0.228,0.192l0.276,0c0.132,0 0.204,-0.108 0.204,-0.24c0,-1.08 -0.912,-2.04 -2.256,-2.04c-1.44,0 -2.328,1.02 -2.424,2.28c-0.036,0.48 -0.036,1.2 0,1.68c0.096,1.26 0.984,2.28 2.424,2.28c1.344,0 2.256,-0.96 2.256,-2.04c0,-0.132 -0.108,-0.24 -0.24,-0.24l-0.252,0c-0.108,0 -0.228,0.048 -0.228,0.204c0,0.624 -0.48,1.368 -1.536,1.368Z" style="fill-rule:nonzero;"/><path d="M224.672,104.892c0,-0.072 0.048,-0.12 0.12,-0.12l3.804,0c0.132,0 0.24,-0.108 0.24,-0.24l0,-0.768c0,-1.32 -1.056,-2.4 -2.4,-2.4c-1.44,0 -2.364,1.02 -2.46,2.28c-0.036,0.48 -0.036,1.2 0,1.68c0.096,1.26 1.02,2.28 2.46,2.28c1.248,0 2.184,-0.756 2.328,-1.8c0.024,-0.168 -0.084,-0.24 -0.204,-0.24l-0.24,0c-0.108,0 -0.228,0.048 -0.276,0.204c-0.18,0.564 -0.684,1.128 -1.608,1.128c-1.236,0 -1.764,-0.852 -1.764,-2.004Zm0.024,-0.912c0,-1.224 0.684,-1.908 1.752,-1.908c0.984,0 1.728,0.684 1.728,1.908c0,0.072 -0.048,0.12 -0.12,0.12l-3.24,0c-0.072,0 -0.12,-0.048 -0.12,-0.12Z" style="fill-rule:nonzero;"/></g><g><path d="M293.104,90.108c0,0.936 -0.636,1.704 -1.692,1.704c-1.008,0 -1.764,-0.768 -1.764,-1.704l0,-0.084c0,-0.132 -0.108,-0.24 -0.24,-0.24l-0.276,0c-0.132,0 -0.24,0.108 -0.24,0.24l0,0.084c0,1.38 1.104,2.472 2.52,2.472c1.392,0 2.46,-1.092 2.46,-2.472c0,-0.756 -0.36,-1.44 -0.888,-1.896c-0.108,-0.096 -0.084,-0.204 0.012,-0.288c0.444,-0.396 0.696,-0.984 0.696,-1.644c0,-1.284 -0.972,-2.292 -2.28,-2.292c-1.32,0 -2.34,1.008 -2.34,2.292l0,0.18c0,0.132 0.108,0.24 0.24,0.24l0.276,0c0.132,0 0.24,-0.108 0.24,-0.24l0,-0.18c0,-0.732 0.552,-1.524 1.584,-1.524c1.008,0 1.512,0.732 1.512,1.524c0,0.792 -0.552,1.44 -1.488,1.44l-0.084,0c-0.132,0 -0.24,0.108 -0.24,0.24l0,0.264c0,0.132 0.108,0.24 0.24,0.24l0.084,0c1.176,0 1.668,0.792 1.668,1.644Z" style="fill-rule:nonzero;"/><path d="M297.916,92.484c1.44,0 2.472,-0.852 2.676,-2.4c0.132,-0.972 0.132,-2.64 0,-3.6c-0.18,-1.308 -1.092,-2.4 -2.676,-2.4l-2.16,0c-0.132,0 -0.24,0.108 -0.24,0.24l0,7.92c0,0.132 0.108,0.24 0.24,0.24l2.16,0Zm-1.512,-0.768c-0.072,0 -0.12,-0.048 -0.12,-0.12l0,-6.624c0,-0.072 0.048,-0.12 0.12,-0.12l1.512,0c1.14,0 1.74,0.756 1.872,1.632c0.144,0.984 0.144,2.616 0,3.6c-0.096,0.696 -0.576,1.632 -1.872,1.632l-1.512,0Z" style="fill-rule:nonzero;"/><path d="M273.544,105.084c0,0.708 -0.612,1.728 -1.908,1.728c-1.296,0 -1.776,-1.032 -1.872,-1.728c-0.144,-0.984 -0.144,-2.616 0,-3.6c0.132,-0.876 0.732,-1.728 1.872,-1.728c1.14,0 1.872,0.732 1.872,1.728l0,0.048c0,0.132 0.108,0.24 0.24,0.24l0.324,0c0.132,0 0.24,-0.108 0.24,-0.24l0,-0.048c0,-1.38 -1.092,-2.496 -2.676,-2.496c-1.584,0 -2.496,1.188 -2.676,2.496c-0.132,0.96 -0.132,2.628 0,3.6c0.204,1.548 1.236,2.496 2.676,2.496c1.44,0 2.676,-0.936 2.676,-2.496l0,-1.944c0,-0.132 -0.108,-0.24 -0.24,-0.24l-2.112,0c-0.132,0 -0.24,0.108 -0.24,0.24l0,0.288c0,0.132 0.108,0.24 0.24,0.24l1.464,0c0.072,0 0.12,0.048 0.12,0.12l0,1.296Z" style="fill-rule:nonzero;"/><path d="M276.904,99.288c-0.048,-0.144 -0.12,-0.204 -0.252,-0.204l-0.72,0c-0.132,0 -0.24,0.108 -0.24,0.24l0,7.92c0,0.132 0.108,0.24 0.24,0.24l0.24,0c0.132,0 0.24,-0.108 0.24,-0.24l0,-6.876c0,-0.072 0.096,-0.096 0.12,-0.024l1.236,3.936c0.048,0.144 0.12,0.204 0.252,0.204l0.336,0c0.132,0 0.204,-0.06 0.252,-0.204l1.236,-3.936c0.024,-0.072 0.12,-0.048 0.12,0.024l0,6.876c0,0.132 0.108,0.24 0.24,0.24l0.24,0c0.132,0 0.24,-0.108 0.24,-0.24l0,-7.92c0,-0.132 -0.108,-0.24 -0.24,-0.24l-0.72,0c-0.132,0 -0.204,0.06 -0.252,0.204l-1.224,3.84c-0.024,0.06 -0.108,0.048 -0.12,0l-1.224,-3.84Z" style="fill-rule:nonzero;"/><path d="M281.608,107.484c-0.132,0 -0.24,0.108 -0.24,0.24l0,0.228c0,0.132 0.108,0.24 0.24,0.24l6.36,0c0.132,0 0.24,-0.108 0.24,-0.24l0,-0.228c0,-0.132 -0.108,-0.24 -0.24,-0.24l-6.36,0Z" style="fill-rule:nonzero;"/><path d="M293.188,105.084c-0.012,1.02 -0.708,1.728 -1.8,1.728c-1.188,0 -1.8,-0.888 -1.8,-1.728l0,-0.192c0,-0.132 -0.108,-0.24 -0.24,-0.24l-0.3,0c-0.132,0 -0.24,0.108 -0.24,0.24l0,0.192c0,1.368 1.032,2.496 2.58,2.496c1.356,0 2.58,-0.924 2.58,-2.496c0,-1.476 -0.9,-2.004 -2.196,-2.4c-0.828,-0.252 -1.956,-0.36 -1.956,-1.44c0,-0.744 0.504,-1.488 1.572,-1.488c0.9,0 1.572,0.624 1.572,1.488l0,0.156c0,0.132 0.108,0.24 0.24,0.24l0.288,0c0.132,0 0.24,-0.108 0.24,-0.24l0,-0.156c0,-1.236 -0.924,-2.256 -2.34,-2.256c-1.236,0 -2.352,0.816 -2.352,2.256c0,1.404 1.14,1.86 2.016,2.064c1.368,0.324 2.148,0.684 2.136,1.776Z" style="fill-rule:nonzero;"/><path d="M297.988,101.364c-1.44,0 -2.328,1.02 -2.424,2.28c-0.036,0.48 -0.036,1.2 0,1.68c0.096,1.26 0.984,2.28 2.424,2.28c1.44,0 2.328,-1.02 2.424,-2.28c0.036,-0.48 0.036,-1.2 0,-1.68c-0.096,-1.26 -0.984,-2.28 -2.424,-2.28Zm0,5.532c-1.2,0 -1.632,-0.936 -1.692,-1.572c-0.048,-0.492 -0.048,-1.188 0,-1.68c0.06,-0.636 0.492,-1.572 1.692,-1.572c1.2,0 1.632,0.936 1.692,1.572c0.048,0.492 0.048,1.188 0,1.68c-0.06,0.636 -0.492,1.572 -1.692,1.572Z" style="fill-rule:nonzero;"/><path d="M304.12,99.72c0.072,0 0.12,0.048 0.12,0.12l0,6.804c0,0.072 -0.072,0.12 -0.144,0.12l-1.668,0c-0.132,0 -0.24,0.108 -0.24,0.24l0,0.24c0,0.132 0.108,0.24 0.24,0.24l4.176,0c0.132,0 0.24,-0.108 0.24,-0.24l0,-0.24c0,-0.132 -0.108,-0.24 -0.24,-0.24l-1.524,0c-0.072,0 -0.12,-0.048 -0.12,-0.12l0,-7.404c0,-0.132 -0.108,-0.24 -0.24,-0.24l-2.052,0c-0.132,0 -0.24,0.108 -0.24,0.24l0,0.24c0,0.132 0.108,0.24 0.24,0.24l1.452,0Z" style="fill-rule:nonzero;"/><path d="M311.872,99.192c0,-0.096 -0.084,-0.192 -0.192,-0.192l-0.624,0c-0.108,0 -0.192,0.096 -0.192,0.192l0,0.636c0,0.108 0.084,0.192 0.192,0.192l0.624,0c0.108,0 0.192,-0.084 0.192,-0.192l0,-0.636Zm-0.912,3.012c0.072,0 0.12,0.048 0.12,0.12l0,4.32c0,0.072 -0.048,0.12 -0.12,0.12l-1.62,0c-0.132,0 -0.24,0.108 -0.24,0.24l0,0.24c0,0.132 0.108,0.24 0.24,0.24l4.152,0c0.132,0 0.24,-0.108 0.24,-0.24l0,-0.24c0,-0.132 -0.108,-0.24 -0.24,-0.24l-1.572,0c-0.072,0 -0.12,-0.048 -0.12,-0.12l0,-4.92c0,-0.132 -0.108,-0.24 -0.24,-0.24l-2.1,0c-0.132,0 -0.24,0.108 -0.24,0.24l0,0.24c0,0.132 0.108,0.24 0.24,0.24l1.5,0Z" style="fill-rule:nonzero;"/><path d="M317.872,106.896c-1.176,0 -1.536,-0.936 -1.608,-1.572c-0.06,-0.492 -0.06,-1.188 0,-1.68c0.072,-0.636 0.444,-1.572 1.608,-1.572c1.068,0 1.416,0.936 1.476,1.572c0.048,0.492 0.048,1.188 0,1.68c-0.06,0.636 -0.408,1.572 -1.476,1.572Zm-0.06,0.708c0.888,0 1.02,-0.396 1.368,-0.396c0.12,0 0.228,0.108 0.3,0.192c0.048,0.048 0.096,0.084 0.168,0.084l0.192,0c0.132,0 0.24,-0.108 0.24,-0.24l0,-8.004c0,-0.132 -0.108,-0.24 -0.24,-0.24l-0.228,0c-0.132,0 -0.24,0.108 -0.24,0.24l0,2.124c0,0.228 -0.12,0.3 -0.3,0.3c-0.24,0 -0.492,-0.3 -1.26,-0.3c-1.26,0 -2.184,1.02 -2.28,2.28c-0.036,0.48 -0.036,1.2 0,1.68c0.096,1.26 1.02,2.28 2.28,2.28Z" style="fill-rule:nonzero;"/></g></g></svg>