<?xml version="1.0" encoding="UTF-8" standalone="no"?><!DOCTYPE svg PUBLIC "-//W3C//DTD SVG 1.1//EN" "http://www.w3.org/Graphics/SVG/1.1/DTD/svg11.dtd"><svg width="100%" height="100%" viewBox="0 0 330 111" version="1.1" xmlns="http://www.w3.org/2000/svg" xmlns:xlink="http://www.w3.org/1999/xlink" xml:space="preserve" style="fill-rule:evenodd;clip-rule:evenodd;stroke-linejoin:round;stroke-miterlimit:10;"><g id="Trim"><path d="M34.691,37.4c0,-1.657 -1.343,-3 -3,-3c-1.656,0 -3,1.343 -3,3c0,1.657 1.344,3 3,3c1.657,0 3,-1.343 3,-3"/><path d="M70.529,63.362l4.246,-2.713c4.245,-2.712 12.736,-8.137 18.632,-8.609c5.897,-0.472 9.199,4.01 13.091,2.241c3.892,-1.769 8.373,-9.789 7.43,-16.393c-0.944,-6.604 -7.312,-11.793 -5.307,-15.331c2.004,-3.538 12.383,-5.424 17.572,-6.368c5.189,-0.943 5.189,-0.943 5.433,-1c0.244,-0.056 0.732,-0.168 0.977,-0.225l0.244,-0.056" style="fill:none;stroke:#000;stroke-width:1.2px;"/><path d="M164.998,50.776c3.925,10.705 18.436,18.079 29.855,17.722c11.418,-0.357 19.744,-8.445 25.572,-16.89c5.828,-8.445 9.158,-17.246 6.542,-21.885c-2.617,-4.639 -11.181,-5.114 -8.921,-9.753c2.26,-4.639 15.343,-13.44 12.965,-17.247c-2.379,-3.806 -20.221,-2.616 -29.141,5.709c-8.921,8.326 -8.921,23.789 -10.824,31.044c-1.903,7.256 -5.709,6.304 -7.612,5.829c-1.903,-0.476 -1.903,-0.476 -2.26,-3.687c-0.356,-3.212 -1.07,-9.635 -2.259,-15.106c-1.19,-5.472 -2.855,-9.992 -7.018,-5.234c-4.163,4.758 -10.824,18.793 -6.899,29.498Z" style="fill:#bfbfbf;stroke:#000;stroke-width:1.2px;"/><path d="M203.687,46.354c-1.57,2.888 -5.085,2.574 -6.435,0.063c-1.35,-2.511 -0.534,-7.22 1.287,-13.152c1.821,-5.933 4.646,-13.09 8.601,-12.211c3.955,0.879 9.04,9.794 10.202,15.193c1.161,5.399 -1.601,7.282 -2.982,8.224l-1.381,0.942l-1.413,-2.355c-1.413,-2.354 -4.238,-7.062 -5.462,-6.372c-1.225,0.691 -0.848,6.78 -2.417,9.668Z" style="fill:#fff;stroke:#000;stroke-width:1.2px;"/><rect x="259.214" y="27.38" width="40.933" height="39.943" style="fill:#bfbfbf;stroke:#000;stroke-width:1.2px;"/><path d="M283.972,7.244l-24.758,20.136l40.933,0l24.758,-20.136l-40.933,0Z" style="fill:#d4d4d4;stroke:#000;stroke-width:1.2px;"/><path d="M300.147,27.38l24.758,-20.136l0,39.943l-24.758,20.136l0,-39.943Z" style="fill:#bfbfbf;stroke:#000;stroke-width:1.2px;"/><g transform="matrix(1,0,0,1,-57,-45)"><text x="80.9px" y="137.484px" style="font-family:'GTPressuraMono-Light', 'GT Pressura Mono';font-weight:300;font-size:12px;">0D</text><text x="61.1px" y="152.484px" style="font-family:'GTPressuraMono-Light', 'GT Pressura Mono';font-weight:300;font-size:12px;">GM_Point</text></g><g transform="matrix(1,0,0,1,14.188,-45)"><text x="80.9px" y="137.484px" style="font-family:'GTPressuraMono-Light', 'GT Pressura Mono';font-weight:300;font-size:12px;">1D</text><text x="61.1px" y="152.484px" style="font-family:'GTPressuraMono-Light', 'GT Pressura Mono';font-weight:300;font-size:12px;">GM_Curve</text></g><g transform="matrix(1,0,0,1,109.188,-45)"><text x="80.9px" y="137.484px" style="font-family:'GTPressuraMono-Light', 'GT Pressura Mono';font-weight:300;font-size:12px;">2D</text><text x="54.5px" y="152.484px" style="font-family:'GTPressuraMono-Light', 'GT Pressura Mono';font-weight:300;font-size:12px;">GM_Surface</text></g><g transform="matrix(1,0,0,1,207.188,-45)"><text x="80.9px" y="137.484px" style="font-family:'GTPressuraMono-Light', 'GT Pressura Mono';font-weight:300;font-size:12px;">3D</text><text x="61.1px" y="152.484px" style="font-family:'GTPressuraMono-Light', 'GT Pressura Mono';font-weight:300;font-size:12px;">GM_Solid</text></g></g></svg>