<svg xmlns="http://www.w3.org/2000/svg" xmlns:xlink="http://www.w3.org/1999/xlink" contentStyleType="text/css" height="934px" preserveAspectRatio="none" style="width:1506px;height:934px;background:#FFFFFF;" version="1.1" viewBox="0 0 1506 934" width="1506px" zoomAndPan="magnify"><defs/><g><rect fill="#F1F1F1" height="243.5625" rx="5" ry="5" style="stroke:#F1F1F1;stroke-width:1.5;" width="382.2773" x="10" y="89.5938"/><text fill="#000000" font-family="sans-serif" font-size="14" font-weight="bold" lengthAdjust="spacing" textLength="35.335" x="15" y="104.5889">type</text><text fill="#000000" font-family="sans-serif" font-size="14" lengthAdjust="spacing" textLength="106.2783" x="183.0537" y="104.5889">val3dity_report</text><line style="stroke:#000000;stroke-width:1.0;" x1="178.0537" x2="178.0537" y1="89.5938" y2="109.8906"/><line style="stroke:#000000;stroke-width:1.0;" x1="10" x2="392.2773" y1="109.8906" y2="109.8906"/><text fill="#000000" font-family="sans-serif" font-size="14" font-weight="bold" lengthAdjust="spacing" textLength="35.5742" x="15" y="124.8857">time</text><text fill="#000000" font-family="sans-serif" font-size="14" lengthAdjust="spacing" textLength="204.2236" x="183.0537" y="124.8857">2024-05-21T12:16:50 (CEST)</text><line style="stroke:#000000;stroke-width:1.0;" x1="178.0537" x2="178.0537" y1="109.8906" y2="130.1875"/><line style="stroke:#000000;stroke-width:1.0;" x1="10" x2="392.2773" y1="130.1875" y2="130.1875"/><text fill="#000000" font-family="sans-serif" font-size="14" font-weight="bold" lengthAdjust="spacing" textLength="73.6299" x="15" y="145.1826">input_file</text><text fill="#000000" font-family="sans-serif" font-size="14" lengthAdjust="spacing" textLength="191.9395" x="183.0537" y="145.1826">/home/elvis/myfile.city.json</text><line style="stroke:#000000;stroke-width:1.0;" x1="178.0537" x2="178.0537" y1="130.1875" y2="150.4844"/><line style="stroke:#000000;stroke-width:1.0;" x1="10" x2="392.2773" y1="150.4844" y2="150.4844"/><text fill="#000000" font-family="sans-serif" font-size="14" font-weight="bold" lengthAdjust="spacing" textLength="115.9648" x="15" y="165.4795">input_file_type</text><text fill="#000000" font-family="sans-serif" font-size="14" lengthAdjust="spacing" textLength="61.9473" x="183.0537" y="165.4795">CityJSON</text><line style="stroke:#000000;stroke-width:1.0;" x1="178.0537" x2="178.0537" y1="150.4844" y2="170.7813"/><line style="stroke:#000000;stroke-width:1.0;" x1="10" x2="392.2773" y1="170.7813" y2="170.7813"/><text fill="#000000" font-family="sans-serif" font-size="14" font-weight="bold" lengthAdjust="spacing" textLength="128.9941" x="15" y="185.7764">val3dity_version</text><text fill="#000000" font-family="sans-serif" font-size="14" lengthAdjust="spacing" textLength="35.6221" x="183.0537" y="185.7764">2.5.0</text><line style="stroke:#000000;stroke-width:1.0;" x1="178.0537" x2="178.0537" y1="170.7813" y2="191.0781"/><line style="stroke:#000000;stroke-width:1.0;" x1="10" x2="392.2773" y1="191.0781" y2="191.0781"/><text fill="#000000" font-family="sans-serif" font-size="14" font-weight="bold" lengthAdjust="spacing" textLength="58.8096" x="15" y="206.0732">validity</text><text fill="#000000" font-family="sans-serif" font-size="14" lengthAdjust="spacing" textLength="50.3057" x="183.0537" y="206.0732">&#9744; false</text><line style="stroke:#000000;stroke-width:1.0;" x1="178.0537" x2="178.0537" y1="191.0781" y2="211.375"/><line style="stroke:#000000;stroke-width:1.0;" x1="10" x2="392.2773" y1="211.375" y2="211.375"/><text fill="#000000" font-family="sans-serif" font-size="14" font-weight="bold" lengthAdjust="spacing" textLength="91.3281" x="15" y="226.3701">parameters</text><text fill="#000000" font-family="sans-serif" font-size="14" lengthAdjust="spacing" textLength="13.3506" x="183.0537" y="226.3701">&#160;&#160;&#160;</text><line style="stroke:#000000;stroke-width:1.0;" x1="178.0537" x2="178.0537" y1="211.375" y2="231.6719"/><line style="stroke:#000000;stroke-width:1.0;" x1="10" x2="392.2773" y1="231.6719" y2="231.6719"/><text fill="#000000" font-family="sans-serif" font-size="14" font-weight="bold" lengthAdjust="spacing" textLength="74.2041" x="15" y="246.667">all_errors</text><text fill="#000000" font-family="sans-serif" font-size="14" lengthAdjust="spacing" textLength="13.3506" x="183.0537" y="246.667">&#160;&#160;&#160;</text><line style="stroke:#000000;stroke-width:1.0;" x1="178.0537" x2="178.0537" y1="231.6719" y2="251.9688"/><line style="stroke:#000000;stroke-width:1.0;" x1="10" x2="392.2773" y1="251.9688" y2="251.9688"/><text fill="#000000" font-family="sans-serif" font-size="14" font-weight="bold" lengthAdjust="spacing" textLength="115.2881" x="15" y="266.9639">dataset_errors</text><text fill="#000000" font-family="sans-serif" font-size="14" lengthAdjust="spacing" textLength="13.3506" x="183.0537" y="266.9639">&#160;&#160;&#160;</text><line style="stroke:#000000;stroke-width:1.0;" x1="178.0537" x2="178.0537" y1="251.9688" y2="272.2656"/><line style="stroke:#000000;stroke-width:1.0;" x1="10" x2="392.2773" y1="272.2656" y2="272.2656"/><text fill="#000000" font-family="sans-serif" font-size="14" font-weight="bold" lengthAdjust="spacing" textLength="144.9219" x="15" y="287.2607">features_overview</text><text fill="#000000" font-family="sans-serif" font-size="14" lengthAdjust="spacing" textLength="13.3506" x="183.0537" y="287.2607">&#160;&#160;&#160;</text><line style="stroke:#000000;stroke-width:1.0;" x1="178.0537" x2="178.0537" y1="272.2656" y2="292.5625"/><line style="stroke:#000000;stroke-width:1.0;" x1="10" x2="392.2773" y1="292.5625" y2="292.5625"/><text fill="#000000" font-family="sans-serif" font-size="14" font-weight="bold" lengthAdjust="spacing" textLength="158.0537" x="15" y="307.5576">primitives_overview</text><text fill="#000000" font-family="sans-serif" font-size="14" lengthAdjust="spacing" textLength="13.3506" x="183.0537" y="307.5576">&#160;&#160;&#160;</text><line style="stroke:#000000;stroke-width:1.0;" x1="178.0537" x2="178.0537" y1="292.5625" y2="312.8594"/><line style="stroke:#000000;stroke-width:1.0;" x1="10" x2="392.2773" y1="312.8594" y2="312.8594"/><text fill="#000000" font-family="sans-serif" font-size="14" font-weight="bold" lengthAdjust="spacing" textLength="66.4248" x="15" y="327.8545">features</text><text fill="#000000" font-family="sans-serif" font-size="14" lengthAdjust="spacing" textLength="13.3506" x="183.0537" y="327.8545">&#160;&#160;&#160;</text><line style="stroke:#000000;stroke-width:1.0;" x1="178.0537" x2="178.0537" y1="312.8594" y2="333.1563"/><rect fill="none" height="243.5625" rx="5" ry="5" style="stroke:#000000;stroke-width:1.5;" width="382.2773" x="10" y="89.5938"/><rect fill="#F1F1F1" height="81.1875" rx="5" ry="5" style="stroke:#F1F1F1;stroke-width:1.5;" width="196.1758" x="429" y="10"/><text fill="#000000" font-family="sans-serif" font-size="14" font-weight="bold" lengthAdjust="spacing" textLength="87.5205" x="434" y="24.9951">overlap_tol</text><text fill="#000000" font-family="sans-serif" font-size="14" lengthAdjust="spacing" textLength="27.3164" x="580.0967" y="24.9951">-1.0</text><line style="stroke:#000000;stroke-width:1.0;" x1="575.0967" x2="575.0967" y1="10" y2="30.2969"/><line style="stroke:#000000;stroke-width:1.0;" x1="429" x2="625.1758" y1="30.2969" y2="30.2969"/><text fill="#000000" font-family="sans-serif" font-size="14" font-weight="bold" lengthAdjust="spacing" textLength="136.0967" x="434" y="45.292">planarity_d2p_tol</text><text fill="#000000" font-family="sans-serif" font-size="14" lengthAdjust="spacing" textLength="31.1719" x="580.0967" y="45.292">0.01</text><line style="stroke:#000000;stroke-width:1.0;" x1="575.0967" x2="575.0967" y1="30.2969" y2="50.5938"/><line style="stroke:#000000;stroke-width:1.0;" x1="429" x2="625.1758" y1="50.5938" y2="50.5938"/><text fill="#000000" font-family="sans-serif" font-size="14" font-weight="bold" lengthAdjust="spacing" textLength="116.2793" x="434" y="65.5889">planarity_n_tol</text><text fill="#000000" font-family="sans-serif" font-size="14" lengthAdjust="spacing" textLength="31.1719" x="580.0967" y="65.5889">20.0</text><line style="stroke:#000000;stroke-width:1.0;" x1="575.0967" x2="575.0967" y1="50.5938" y2="70.8906"/><line style="stroke:#000000;stroke-width:1.0;" x1="429" x2="625.1758" y1="70.8906" y2="70.8906"/><text fill="#000000" font-family="sans-serif" font-size="14" font-weight="bold" lengthAdjust="spacing" textLength="65.8779" x="434" y="85.8857">snap_tol</text><text fill="#000000" font-family="sans-serif" font-size="14" lengthAdjust="spacing" textLength="40.0791" x="580.0967" y="85.8857">0.001</text><line style="stroke:#000000;stroke-width:1.0;" x1="575.0967" x2="575.0967" y1="70.8906" y2="91.1875"/><rect fill="none" height="81.1875" rx="5" ry="5" style="stroke:#000000;stroke-width:1.5;" width="196.1758" x="429" y="10"/><rect fill="#F1F1F1" height="81.1875" rx="5" ry="5" style="stroke:#F1F1F1;stroke-width:1.5;" width="36.7217" x="508.5" y="109"/><text fill="#000000" font-family="sans-serif" font-size="14" lengthAdjust="spacing" textLength="26.7217" x="513.5" y="123.9951">103</text><line style="stroke:#000000;stroke-width:1.0;" x1="508.5" x2="545.2217" y1="129.2969" y2="129.2969"/><text fill="#000000" font-family="sans-serif" font-size="14" lengthAdjust="spacing" textLength="26.7217" x="513.5" y="144.292">204</text><line style="stroke:#000000;stroke-width:1.0;" x1="508.5" x2="545.2217" y1="149.5938" y2="149.5938"/><text fill="#000000" font-family="sans-serif" font-size="14" lengthAdjust="spacing" textLength="25.4775" x="513.5" y="164.5889">5xx</text><line style="stroke:#000000;stroke-width:1.0;" x1="508.5" x2="545.2217" y1="169.8906" y2="169.8906"/><text fill="#000000" font-family="sans-serif" font-size="14" lengthAdjust="spacing" textLength="25.4775" x="513.5" y="184.8857">6xx</text><rect fill="none" height="81.1875" rx="5" ry="5" style="stroke:#000000;stroke-width:1.5;" width="36.7217" x="508.5" y="109"/><rect fill="#F1F1F1" height="60.8906" rx="5" ry="5" style="stroke:#F1F1F1;stroke-width:1.5;" width="36.7217" x="508.5" y="208.0938"/><text fill="#000000" font-family="sans-serif" font-size="14" lengthAdjust="spacing" textLength="26.7217" x="513.5" y="223.0889">901</text><line style="stroke:#000000;stroke-width:1.0;" x1="508.5" x2="545.2217" y1="228.3906" y2="228.3906"/><text fill="#000000" font-family="sans-serif" font-size="14" lengthAdjust="spacing" textLength="26.7217" x="513.5" y="243.3857">902</text><line style="stroke:#000000;stroke-width:1.0;" x1="508.5" x2="545.2217" y1="248.6875" y2="248.6875"/><text fill="#000000" font-family="sans-serif" font-size="14" lengthAdjust="spacing" textLength="25.4775" x="513.5" y="263.6826">9xx</text><rect fill="none" height="60.8906" rx="5" ry="5" style="stroke:#000000;stroke-width:1.5;" width="36.7217" x="508.5" y="208.0938"/><rect fill="#F1F1F1" height="40.5938" rx="5" ry="5" style="stroke:#F1F1F1;stroke-width:1.5;" width="23.3506" x="515.5" y="287.0938"/><text fill="#000000" font-family="sans-serif" font-size="14" lengthAdjust="spacing" textLength="13.3506" x="520.5" y="302.0889">&#160;&#160;&#160;</text><line style="stroke:#000000;stroke-width:1.0;" x1="515.5" x2="538.8506" y1="307.3906" y2="307.3906"/><text fill="#000000" font-family="sans-serif" font-size="14" lengthAdjust="spacing" textLength="13.3506" x="520.5" y="322.3857">&#160;&#160;&#160;</text><rect fill="none" height="40.5938" rx="5" ry="5" style="stroke:#000000;stroke-width:1.5;" width="23.3506" x="515.5" y="287.0938"/><rect fill="#F1F1F1" height="60.8906" rx="5" ry="5" style="stroke:#F1F1F1;stroke-width:1.5;" width="114.9854" x="731.5" y="188.0938"/><text fill="#000000" font-family="sans-serif" font-size="14" font-weight="bold" lengthAdjust="spacing" textLength="37.249" x="736.5" y="203.0889">total</text><text fill="#000000" font-family="sans-serif" font-size="14" lengthAdjust="spacing" textLength="26.7217" x="784.6924" y="203.0889">644</text><line style="stroke:#000000;stroke-width:1.0;" x1="779.6924" x2="779.6924" y1="188.0938" y2="208.3906"/><line style="stroke:#000000;stroke-width:1.0;" x1="731.5" x2="846.4854" y1="208.3906" y2="208.3906"/><text fill="#000000" font-family="sans-serif" font-size="14" font-weight="bold" lengthAdjust="spacing" textLength="35.335" x="736.5" y="223.3857">type</text><text fill="#000000" font-family="sans-serif" font-size="14" lengthAdjust="spacing" textLength="56.793" x="784.6924" y="223.3857">Building</text><line style="stroke:#000000;stroke-width:1.0;" x1="779.6924" x2="779.6924" y1="208.3906" y2="228.6875"/><line style="stroke:#000000;stroke-width:1.0;" x1="731.5" x2="846.4854" y1="228.6875" y2="228.6875"/><text fill="#000000" font-family="sans-serif" font-size="14" font-weight="bold" lengthAdjust="spacing" textLength="38.1924" x="736.5" y="243.6826">valid</text><text fill="#000000" font-family="sans-serif" font-size="14" lengthAdjust="spacing" textLength="26.7217" x="784.6924" y="243.6826">324</text><line style="stroke:#000000;stroke-width:1.0;" x1="779.6924" x2="779.6924" y1="228.6875" y2="248.9844"/><rect fill="none" height="60.8906" rx="5" ry="5" style="stroke:#000000;stroke-width:1.5;" width="114.9854" x="731.5" y="188.0938"/><rect fill="#F1F1F1" height="60.8906" rx="5" ry="5" style="stroke:#F1F1F1;stroke-width:1.5;" width="233.7051" x="672" y="267.0938"/><text fill="#000000" font-family="sans-serif" font-size="14" font-weight="bold" lengthAdjust="spacing" textLength="37.249" x="677" y="282.0889">total</text><text fill="#000000" font-family="sans-serif" font-size="14" lengthAdjust="spacing" textLength="8.9072" x="725.1924" y="282.0889">1</text><line style="stroke:#000000;stroke-width:1.0;" x1="720.1924" x2="720.1924" y1="267.0938" y2="287.3906"/><line style="stroke:#000000;stroke-width:1.0;" x1="672" x2="905.7051" y1="287.3906" y2="287.3906"/><text fill="#000000" font-family="sans-serif" font-size="14" font-weight="bold" lengthAdjust="spacing" textLength="35.335" x="677" y="302.3857">type</text><text fill="#000000" font-family="sans-serif" font-size="14" lengthAdjust="spacing" textLength="175.5127" x="725.1924" y="302.3857">SolitaryVegetationObject</text><line style="stroke:#000000;stroke-width:1.0;" x1="720.1924" x2="720.1924" y1="287.3906" y2="307.6875"/><line style="stroke:#000000;stroke-width:1.0;" x1="672" x2="905.7051" y1="307.6875" y2="307.6875"/><text fill="#000000" font-family="sans-serif" font-size="14" font-weight="bold" lengthAdjust="spacing" textLength="38.1924" x="677" y="322.6826">valid</text><text fill="#000000" font-family="sans-serif" font-size="14" lengthAdjust="spacing" textLength="17.8145" x="725.1924" y="322.6826">12</text><line style="stroke:#000000;stroke-width:1.0;" x1="720.1924" x2="720.1924" y1="307.6875" y2="327.9844"/><rect fill="none" height="60.8906" rx="5" ry="5" style="stroke:#000000;stroke-width:1.5;" width="233.7051" x="672" y="267.0938"/><rect fill="#F1F1F1" height="40.5938" rx="5" ry="5" style="stroke:#F1F1F1;stroke-width:1.5;" width="23.3506" x="515.5" y="366.0938"/><text fill="#000000" font-family="sans-serif" font-size="14" lengthAdjust="spacing" textLength="13.3506" x="520.5" y="381.0889">&#160;&#160;&#160;</text><line style="stroke:#000000;stroke-width:1.0;" x1="515.5" x2="538.8506" y1="386.3906" y2="386.3906"/><text fill="#000000" font-family="sans-serif" font-size="14" lengthAdjust="spacing" textLength="13.3506" x="520.5" y="401.3857">&#160;&#160;&#160;</text><rect fill="none" height="40.5938" rx="5" ry="5" style="stroke:#000000;stroke-width:1.5;" width="23.3506" x="515.5" y="366.0938"/><rect fill="#F1F1F1" height="60.8906" rx="5" ry="5" style="stroke:#F1F1F1;stroke-width:1.5;" width="93.8213" x="742" y="346.0938"/><text fill="#000000" font-family="sans-serif" font-size="14" font-weight="bold" lengthAdjust="spacing" textLength="37.249" x="747" y="361.0889">total</text><text fill="#000000" font-family="sans-serif" font-size="14" lengthAdjust="spacing" textLength="35.6289" x="795.1924" y="361.0889">1490</text><line style="stroke:#000000;stroke-width:1.0;" x1="790.1924" x2="790.1924" y1="346.0938" y2="366.3906"/><line style="stroke:#000000;stroke-width:1.0;" x1="742" x2="835.8213" y1="366.3906" y2="366.3906"/><text fill="#000000" font-family="sans-serif" font-size="14" font-weight="bold" lengthAdjust="spacing" textLength="35.335" x="747" y="381.3857">type</text><text fill="#000000" font-family="sans-serif" font-size="14" lengthAdjust="spacing" textLength="34.1182" x="795.1924" y="381.3857">Solid</text><line style="stroke:#000000;stroke-width:1.0;" x1="790.1924" x2="790.1924" y1="366.3906" y2="386.6875"/><line style="stroke:#000000;stroke-width:1.0;" x1="742" x2="835.8213" y1="386.6875" y2="386.6875"/><text fill="#000000" font-family="sans-serif" font-size="14" font-weight="bold" lengthAdjust="spacing" textLength="38.1924" x="747" y="401.6826">valid</text><text fill="#000000" font-family="sans-serif" font-size="14" lengthAdjust="spacing" textLength="35.6289" x="795.1924" y="401.6826">1305</text><line style="stroke:#000000;stroke-width:1.0;" x1="790.1924" x2="790.1924" y1="386.6875" y2="406.9844"/><rect fill="none" height="60.8906" rx="5" ry="5" style="stroke:#000000;stroke-width:1.5;" width="93.8213" x="742" y="346.0938"/><rect fill="#F1F1F1" height="60.8906" rx="5" ry="5" style="stroke:#F1F1F1;stroke-width:1.5;" width="186.2432" x="696" y="425.0938"/><text fill="#000000" font-family="sans-serif" font-size="14" font-weight="bold" lengthAdjust="spacing" textLength="37.249" x="701" y="440.0889">total</text><text fill="#000000" font-family="sans-serif" font-size="14" lengthAdjust="spacing" textLength="17.8145" x="749.1924" y="440.0889">34</text><line style="stroke:#000000;stroke-width:1.0;" x1="744.1924" x2="744.1924" y1="425.0938" y2="445.3906"/><line style="stroke:#000000;stroke-width:1.0;" x1="696" x2="882.2432" y1="445.3906" y2="445.3906"/><text fill="#000000" font-family="sans-serif" font-size="14" font-weight="bold" lengthAdjust="spacing" textLength="35.335" x="701" y="460.3857">type</text><text fill="#000000" font-family="sans-serif" font-size="14" lengthAdjust="spacing" textLength="128.0508" x="749.1924" y="460.3857">CompositeSurface</text><line style="stroke:#000000;stroke-width:1.0;" x1="744.1924" x2="744.1924" y1="445.3906" y2="465.6875"/><line style="stroke:#000000;stroke-width:1.0;" x1="696" x2="882.2432" y1="465.6875" y2="465.6875"/><text fill="#000000" font-family="sans-serif" font-size="14" font-weight="bold" lengthAdjust="spacing" textLength="38.1924" x="701" y="480.6826">valid</text><text fill="#000000" font-family="sans-serif" font-size="14" lengthAdjust="spacing" textLength="17.8145" x="749.1924" y="480.6826">33</text><line style="stroke:#000000;stroke-width:1.0;" x1="744.1924" x2="744.1924" y1="465.6875" y2="485.9844"/><rect fill="none" height="60.8906" rx="5" ry="5" style="stroke:#000000;stroke-width:1.5;" width="186.2432" x="696" y="425.0938"/><rect fill="#F1F1F1" height="81.1875" rx="5" ry="5" style="stroke:#F1F1F1;stroke-width:1.5;" width="23.3506" x="515.5" y="613"/><text fill="#000000" font-family="sans-serif" font-size="14" lengthAdjust="spacing" textLength="13.3506" x="520.5" y="627.9951">&#160;&#160;&#160;</text><line style="stroke:#000000;stroke-width:1.0;" x1="515.5" x2="538.8506" y1="633.2969" y2="633.2969"/><text fill="#000000" font-family="sans-serif" font-size="14" lengthAdjust="spacing" textLength="13.3506" x="520.5" y="648.292">&#160;&#160;&#160;</text><line style="stroke:#000000;stroke-width:1.0;" x1="515.5" x2="538.8506" y1="653.5938" y2="653.5938"/><text fill="#000000" font-family="sans-serif" font-size="14" lengthAdjust="spacing" textLength="13.3506" x="520.5" y="668.5889">&#160;&#160;&#160;</text><line style="stroke:#000000;stroke-width:1.0;" x1="515.5" x2="538.8506" y1="673.8906" y2="673.8906"/><text fill="#000000" font-family="sans-serif" font-size="14" lengthAdjust="spacing" textLength="13.3506" x="520.5" y="688.8857">&#160;&#160;&#160;</text><rect fill="none" height="81.1875" rx="5" ry="5" style="stroke:#000000;stroke-width:1.5;" width="23.3506" x="515.5" y="613"/><rect fill="#F1F1F1" height="81.1875" rx="5" ry="5" style="stroke:#F1F1F1;stroke-width:1.5;" width="167.7178" x="705" y="504"/><text fill="#000000" font-family="sans-serif" font-size="14" font-weight="bold" lengthAdjust="spacing" textLength="14.8203" x="710" y="518.9951">id</text><text fill="#000000" font-family="sans-serif" font-size="14" lengthAdjust="spacing" textLength="88.9082" x="778.8096" y="518.9951">GUID_B3A15</text><line style="stroke:#000000;stroke-width:1.0;" x1="773.8096" x2="773.8096" y1="504" y2="524.2969"/><line style="stroke:#000000;stroke-width:1.0;" x1="705" x2="872.7178" y1="524.2969" y2="524.2969"/><text fill="#000000" font-family="sans-serif" font-size="14" font-weight="bold" lengthAdjust="spacing" textLength="35.335" x="710" y="539.292">type</text><text fill="#000000" font-family="sans-serif" font-size="14" lengthAdjust="spacing" textLength="56.793" x="778.8096" y="539.292">Building</text><line style="stroke:#000000;stroke-width:1.0;" x1="773.8096" x2="773.8096" y1="524.2969" y2="544.5938"/><line style="stroke:#000000;stroke-width:1.0;" x1="705" x2="872.7178" y1="544.5938" y2="544.5938"/><text fill="#000000" font-family="sans-serif" font-size="14" font-weight="bold" lengthAdjust="spacing" textLength="58.8096" x="710" y="559.5889">validity</text><text fill="#000000" font-family="sans-serif" font-size="14" lengthAdjust="spacing" textLength="45.7324" x="778.8096" y="559.5889">&#9745; true</text><line style="stroke:#000000;stroke-width:1.0;" x1="773.8096" x2="773.8096" y1="544.5938" y2="564.8906"/><line style="stroke:#000000;stroke-width:1.0;" x1="705" x2="872.7178" y1="564.8906" y2="564.8906"/><text fill="#000000" font-family="sans-serif" font-size="14" font-weight="bold" lengthAdjust="spacing" textLength="48.1592" x="710" y="579.8857">errors</text><text fill="#000000" font-family="sans-serif" font-size="14" lengthAdjust="spacing" textLength="13.3506" x="778.8096" y="579.8857">&#160;&#160;&#160;</text><line style="stroke:#000000;stroke-width:1.0;" x1="773.8096" x2="773.8096" y1="564.8906" y2="585.1875"/><rect fill="none" height="81.1875" rx="5" ry="5" style="stroke:#000000;stroke-width:1.5;" width="167.7178" x="705" y="504"/><rect fill="#F1F1F1" height="15" rx="5" ry="5" style="stroke:#F1F1F1;stroke-width:1.5;" width="30" x="956.5" y="567.0938"/><rect fill="none" height="15" rx="5" ry="5" style="stroke:#000000;stroke-width:1.5;" width="30" x="956.5" y="567.0938"/><rect fill="#F1F1F1" height="81.1875" rx="5" ry="5" style="stroke:#F1F1F1;stroke-width:1.5;" width="207.7012" x="685" y="603"/><text fill="#000000" font-family="sans-serif" font-size="14" font-weight="bold" lengthAdjust="spacing" textLength="14.8203" x="690" y="617.9951">id</text><text fill="#000000" font-family="sans-serif" font-size="14" lengthAdjust="spacing" textLength="79.3037" x="758.8096" y="617.9951">GUID_A782</text><line style="stroke:#000000;stroke-width:1.0;" x1="753.8096" x2="753.8096" y1="603" y2="623.2969"/><line style="stroke:#000000;stroke-width:1.0;" x1="685" x2="892.7012" y1="623.2969" y2="623.2969"/><text fill="#000000" font-family="sans-serif" font-size="14" font-weight="bold" lengthAdjust="spacing" textLength="35.335" x="690" y="638.292">type</text><text fill="#000000" font-family="sans-serif" font-size="14" lengthAdjust="spacing" textLength="128.8916" x="758.8096" y="638.292">OtherConstruction</text><line style="stroke:#000000;stroke-width:1.0;" x1="753.8096" x2="753.8096" y1="623.2969" y2="643.5938"/><line style="stroke:#000000;stroke-width:1.0;" x1="685" x2="892.7012" y1="643.5938" y2="643.5938"/><text fill="#000000" font-family="sans-serif" font-size="14" font-weight="bold" lengthAdjust="spacing" textLength="58.8096" x="690" y="658.5889">validity</text><text fill="#000000" font-family="sans-serif" font-size="14" lengthAdjust="spacing" textLength="50.3057" x="758.8096" y="658.5889">&#9744; false</text><line style="stroke:#000000;stroke-width:1.0;" x1="753.8096" x2="753.8096" y1="643.5938" y2="663.8906"/><line style="stroke:#000000;stroke-width:1.0;" x1="685" x2="892.7012" y1="663.8906" y2="663.8906"/><text fill="#000000" font-family="sans-serif" font-size="14" font-weight="bold" lengthAdjust="spacing" textLength="48.1592" x="690" y="678.8857">errors</text><text fill="#000000" font-family="sans-serif" font-size="14" lengthAdjust="spacing" textLength="13.3506" x="758.8096" y="678.8857">&#160;&#160;&#160;</text><line style="stroke:#000000;stroke-width:1.0;" x1="753.8096" x2="753.8096" y1="663.8906" y2="684.1875"/><rect fill="none" height="81.1875" rx="5" ry="5" style="stroke:#000000;stroke-width:1.5;" width="207.7012" x="685" y="603"/><rect fill="#F1F1F1" height="20.2969" rx="5" ry="5" style="stroke:#F1F1F1;stroke-width:1.5;" width="23.3506" x="953" y="663.4453"/><text fill="#000000" font-family="sans-serif" font-size="14" lengthAdjust="spacing" textLength="13.3506" x="958" y="678.4404">&#160;&#160;&#160;</text><rect fill="none" height="20.2969" rx="5" ry="5" style="stroke:#000000;stroke-width:1.5;" width="23.3506" x="953" y="663.4453"/><rect fill="#F1F1F1" height="81.1875" rx="5" ry="5" style="stroke:#F1F1F1;stroke-width:1.5;" width="481.043" x="1013" y="633"/><text fill="#000000" font-family="sans-serif" font-size="14" font-weight="bold" lengthAdjust="spacing" textLength="37.4336" x="1018" y="647.9951">code</text><text fill="#000000" font-family="sans-serif" font-size="14" lengthAdjust="spacing" textLength="26.7217" x="1116.9492" y="647.9951">203</text><line style="stroke:#000000;stroke-width:1.0;" x1="1111.9492" x2="1111.9492" y1="633" y2="653.2969"/><line style="stroke:#000000;stroke-width:1.0;" x1="1013" x2="1494.043" y1="653.2969" y2="653.2969"/><text fill="#000000" font-family="sans-serif" font-size="14" font-weight="bold" lengthAdjust="spacing" textLength="88.9492" x="1018" y="668.292">description</text><text fill="#000000" font-family="sans-serif" font-size="14" lengthAdjust="spacing" textLength="299.8721" x="1116.9492" y="668.292">NON_PLANAR_POLYGON_DISTANCE_PLANE</text><line style="stroke:#000000;stroke-width:1.0;" x1="1111.9492" x2="1111.9492" y1="653.2969" y2="673.5938"/><line style="stroke:#000000;stroke-width:1.0;" x1="1013" x2="1494.043" y1="673.5938" y2="673.5938"/><text fill="#000000" font-family="sans-serif" font-size="14" font-weight="bold" lengthAdjust="spacing" textLength="14.8203" x="1018" y="688.5889">id</text><text fill="#000000" font-family="sans-serif" font-size="14" lengthAdjust="spacing" textLength="332.6367" x="1116.9492" y="688.5889">coid=GUID_8BA782_1|geom=0|shell=0|face=4</text><line style="stroke:#000000;stroke-width:1.0;" x1="1111.9492" x2="1111.9492" y1="673.5938" y2="693.8906"/><line style="stroke:#000000;stroke-width:1.0;" x1="1013" x2="1494.043" y1="693.8906" y2="693.8906"/><text fill="#000000" font-family="sans-serif" font-size="14" font-weight="bold" lengthAdjust="spacing" textLength="30.4746" x="1018" y="708.8857">info</text><text fill="#000000" font-family="sans-serif" font-size="14" lengthAdjust="spacing" textLength="372.0938" x="1116.9492" y="708.8857">distance to fitted plane: 0.0122035 (tolerance=0.01)</text><line style="stroke:#000000;stroke-width:1.0;" x1="1111.9492" x2="1111.9492" y1="693.8906" y2="714.1875"/><rect fill="none" height="81.1875" rx="5" ry="5" style="stroke:#000000;stroke-width:1.5;" width="481.043" x="1013" y="633"/><rect fill="#F1F1F1" height="81.1875" rx="5" ry="5" style="stroke:#F1F1F1;stroke-width:1.5;" width="254.3223" x="662" y="702"/><text fill="#000000" font-family="sans-serif" font-size="14" font-weight="bold" lengthAdjust="spacing" textLength="14.8203" x="667" y="716.9951">id</text><text fill="#000000" font-family="sans-serif" font-size="14" lengthAdjust="spacing" textLength="88.4092" x="735.8096" y="716.9951">GUID_C7224</text><line style="stroke:#000000;stroke-width:1.0;" x1="730.8096" x2="730.8096" y1="702" y2="722.2969"/><line style="stroke:#000000;stroke-width:1.0;" x1="662" x2="916.3223" y1="722.2969" y2="722.2969"/><text fill="#000000" font-family="sans-serif" font-size="14" font-weight="bold" lengthAdjust="spacing" textLength="35.335" x="667" y="737.292">type</text><text fill="#000000" font-family="sans-serif" font-size="14" lengthAdjust="spacing" textLength="175.5127" x="735.8096" y="737.292">SolitaryVegetationObject</text><line style="stroke:#000000;stroke-width:1.0;" x1="730.8096" x2="730.8096" y1="722.2969" y2="742.5938"/><line style="stroke:#000000;stroke-width:1.0;" x1="662" x2="916.3223" y1="742.5938" y2="742.5938"/><text fill="#000000" font-family="sans-serif" font-size="14" font-weight="bold" lengthAdjust="spacing" textLength="58.8096" x="667" y="757.5889">validity</text><text fill="#000000" font-family="sans-serif" font-size="14" lengthAdjust="spacing" textLength="45.7324" x="735.8096" y="757.5889">&#9745; true</text><line style="stroke:#000000;stroke-width:1.0;" x1="730.8096" x2="730.8096" y1="742.5938" y2="762.8906"/><line style="stroke:#000000;stroke-width:1.0;" x1="662" x2="916.3223" y1="762.8906" y2="762.8906"/><text fill="#000000" font-family="sans-serif" font-size="14" font-weight="bold" lengthAdjust="spacing" textLength="48.1592" x="667" y="777.8857">errors</text><text fill="#000000" font-family="sans-serif" font-size="14" lengthAdjust="spacing" textLength="13.3506" x="735.8096" y="777.8857">&#160;&#160;&#160;</text><line style="stroke:#000000;stroke-width:1.0;" x1="730.8096" x2="730.8096" y1="762.8906" y2="783.1875"/><rect fill="none" height="81.1875" rx="5" ry="5" style="stroke:#000000;stroke-width:1.5;" width="254.3223" x="662" y="702"/><rect fill="#F1F1F1" height="15" rx="5" ry="5" style="stroke:#F1F1F1;stroke-width:1.5;" width="30" x="956.5" y="765.0938"/><rect fill="none" height="15" rx="5" ry="5" style="stroke:#000000;stroke-width:1.5;" width="30" x="956.5" y="765.0938"/><rect fill="#F1F1F1" height="81.1875" rx="5" ry="5" style="stroke:#F1F1F1;stroke-width:1.5;" width="166.3506" x="706" y="801"/><text fill="#000000" font-family="sans-serif" font-size="14" font-weight="bold" lengthAdjust="spacing" textLength="14.8203" x="711" y="815.9951">id</text><text fill="#000000" font-family="sans-serif" font-size="14" lengthAdjust="spacing" textLength="87.541" x="779.8096" y="815.9951">GUID_65725</text><line style="stroke:#000000;stroke-width:1.0;" x1="774.8096" x2="774.8096" y1="801" y2="821.2969"/><line style="stroke:#000000;stroke-width:1.0;" x1="706" x2="872.3506" y1="821.2969" y2="821.2969"/><text fill="#000000" font-family="sans-serif" font-size="14" font-weight="bold" lengthAdjust="spacing" textLength="35.335" x="711" y="836.292">type</text><text fill="#000000" font-family="sans-serif" font-size="14" lengthAdjust="spacing" textLength="56.793" x="779.8096" y="836.292">Building</text><line style="stroke:#000000;stroke-width:1.0;" x1="774.8096" x2="774.8096" y1="821.2969" y2="841.5938"/><line style="stroke:#000000;stroke-width:1.0;" x1="706" x2="872.3506" y1="841.5938" y2="841.5938"/><text fill="#000000" font-family="sans-serif" font-size="14" font-weight="bold" lengthAdjust="spacing" textLength="58.8096" x="711" y="856.5889">validity</text><text fill="#000000" font-family="sans-serif" font-size="14" lengthAdjust="spacing" textLength="50.3057" x="779.8096" y="856.5889">&#9744; false</text><line style="stroke:#000000;stroke-width:1.0;" x1="774.8096" x2="774.8096" y1="841.5938" y2="861.8906"/><line style="stroke:#000000;stroke-width:1.0;" x1="706" x2="872.3506" y1="861.8906" y2="861.8906"/><text fill="#000000" font-family="sans-serif" font-size="14" font-weight="bold" lengthAdjust="spacing" textLength="48.1592" x="711" y="876.8857">errors</text><text fill="#000000" font-family="sans-serif" font-size="14" lengthAdjust="spacing" textLength="13.3506" x="779.8096" y="876.8857">&#160;&#160;&#160;</text><line style="stroke:#000000;stroke-width:1.0;" x1="774.8096" x2="774.8096" y1="861.8906" y2="882.1875"/><rect fill="none" height="81.1875" rx="5" ry="5" style="stroke:#000000;stroke-width:1.5;" width="166.3506" x="706" y="801"/><rect fill="#F1F1F1" height="20.2969" rx="5" ry="5" style="stroke:#F1F1F1;stroke-width:1.5;" width="23.3506" x="953" y="861.4453"/><text fill="#000000" font-family="sans-serif" font-size="14" lengthAdjust="spacing" textLength="13.3506" x="958" y="876.4404">&#160;&#160;&#160;</text><rect fill="none" height="20.2969" rx="5" ry="5" style="stroke:#000000;stroke-width:1.5;" width="23.3506" x="953" y="861.4453"/><rect fill="#F1F1F1" height="101.4844" rx="5" ry="5" style="stroke:#F1F1F1;stroke-width:1.5;" width="454.417" x="1026.5" y="820.8516"/><text fill="#000000" font-family="sans-serif" font-size="14" font-weight="bold" lengthAdjust="spacing" textLength="37.4336" x="1031.5" y="835.8467">code</text><text fill="#000000" font-family="sans-serif" font-size="14" lengthAdjust="spacing" textLength="26.7217" x="1130.4492" y="835.8467">601</text><line style="stroke:#000000;stroke-width:1.0;" x1="1125.4492" x2="1125.4492" y1="820.8516" y2="841.1484"/><line style="stroke:#000000;stroke-width:1.0;" x1="1026.5" x2="1480.917" y1="841.1484" y2="841.1484"/><text fill="#000000" font-family="sans-serif" font-size="14" font-weight="bold" lengthAdjust="spacing" textLength="88.9492" x="1031.5" y="856.1436">description</text><text fill="#000000" font-family="sans-serif" font-size="14" lengthAdjust="spacing" textLength="185.1855" x="1130.4492" y="856.1436">BUILDINGPARTS_OVERLAP</text><line style="stroke:#000000;stroke-width:1.0;" x1="1125.4492" x2="1125.4492" y1="841.1484" y2="861.4453"/><line style="stroke:#000000;stroke-width:1.0;" x1="1026.5" x2="1480.917" y1="861.4453" y2="861.4453"/><text fill="#000000" font-family="sans-serif" font-size="14" font-weight="bold" lengthAdjust="spacing" textLength="14.8203" x="1031.5" y="876.4404">id</text><text fill="#000000" font-family="sans-serif" font-size="14" lengthAdjust="spacing" textLength="345.4678" x="1130.4492" y="876.4404">coid=5725_1|geom=0&amp;&amp;coid=65725_2|geom=0</text><line style="stroke:#000000;stroke-width:1.0;" x1="1125.4492" x2="1125.4492" y1="861.4453" y2="881.7422"/><line style="stroke:#000000;stroke-width:1.0;" x1="1026.5" x2="1480.917" y1="881.7422" y2="881.7422"/><text fill="#000000" font-family="sans-serif" font-size="14" font-weight="bold" lengthAdjust="spacing" textLength="30.4746" x="1031.5" y="896.7373">info</text><text fill="#000000" font-family="sans-serif" font-size="14" lengthAdjust="spacing" textLength="153.1865" x="1130.4492" y="896.7373">geometries are lod=2</text><line style="stroke:#000000;stroke-width:1.0;" x1="1125.4492" x2="1125.4492" y1="881.7422" y2="902.0391"/><line style="stroke:#000000;stroke-width:1.0;" x1="1026.5" x2="1480.917" y1="902.0391" y2="902.0391"/><text fill="#000000" font-family="sans-serif" font-size="14" font-weight="bold" lengthAdjust="spacing" textLength="35.335" x="1031.5" y="917.0342">type</text><text fill="#000000" font-family="sans-serif" font-size="14" lengthAdjust="spacing" textLength="34.6787" x="1130.4492" y="917.0342">Error</text><line style="stroke:#000000;stroke-width:1.0;" x1="1125.4492" x2="1125.4492" y1="902.0391" y2="922.3359"/><rect fill="none" height="101.4844" rx="5" ry="5" style="stroke:#000000;stroke-width:1.5;" width="454.417" x="1026.5" y="820.8516"/><path d="M379.5,221.5938 L392.5,221.5938 C449.0969,221.5938 392.6302,142.9578 429,99.5938 C429.837,98.5958 430.6993,97.6162 431.585,96.6545 " fill="none" style="stroke:#000000;stroke-width:1.0;stroke-dasharray:3.0,3.0;"/><path d="M433.7101,98.7805 L433.1795,95.0607 L429.4599,94.5285 L436.8999,91.3418 L433.7101,98.7805 " fill="#000000" style="stroke:#000000;stroke-width:1.0;"/><ellipse cx="379.5" cy="221.5938" fill="#000000" rx="3" ry="3" style="stroke:#000000;stroke-width:1.0;"/><path d="M379.5,241.5938 L392.5,241.5938 C417.5678,241.5938 409.2944,214.0884 429,198.5938 C451.2823,181.073 480.8246,167.2942 501.5286,158.8685 " fill="none" style="stroke:#000000;stroke-width:1.0;stroke-dasharray:3.0,3.0;"/><path d="M502.6722,161.7477 L503.688,158.0108 L500.385,155.9893 L508.7266,156.0095 L502.6722,161.7477 " fill="#000000" style="stroke:#000000;stroke-width:1.0;"/><ellipse cx="379.5" cy="241.5938" fill="#000000" rx="3" ry="3" style="stroke:#000000;stroke-width:1.0;"/><path d="M379.5,262.5938 L392.5,262.5938 C431.0042,262.5938 474.7707,252.8737 501.5074,245.8052 " fill="none" style="stroke:#000000;stroke-width:1.0;stroke-dasharray:3.0,3.0;"/><path d="M502.309,248.7646 L503.727,245.2041 L500.7059,242.8458 L508.9059,243.8014 L502.309,248.7646 " fill="#000000" style="stroke:#000000;stroke-width:1.0;"/><ellipse cx="379.5" cy="262.5938" fill="#000000" rx="3" ry="3" style="stroke:#000000;stroke-width:1.0;"/><path d="M527.5,297.5938 L540.5,297.5938 C579.5258,297.5938 589.5933,291.6494 626,277.5938 C643.075,271.0016 645.1635,264.7732 662,257.5938 C681.8634,249.1235 704.1871,241.6172 724.4891,235.5082 " fill="none" style="stroke:#000000;stroke-width:1.0;stroke-dasharray:3.0,3.0;"/><path d="M725.3638,238.4602 L726.7031,234.8522 L723.6145,232.5562 L731.869,233.3215 L725.3638,238.4602 " fill="#000000" style="stroke:#000000;stroke-width:1.0;"/><ellipse cx="527.5" cy="297.5938" fill="#000000" rx="3" ry="3" style="stroke:#000000;stroke-width:1.0;"/><path d="M527.5,317.5938 L540.5,317.5938 C580.8944,317.5938 624.8703,314.9249 664.4209,311.5371 " fill="none" style="stroke:#000000;stroke-width:1.0;stroke-dasharray:3.0,3.0;"/><path d="M664.6955,314.6766 L666.7755,311.3311 L664.1462,308.3976 L672.2696,310.8505 L664.6955,314.6766 " fill="#000000" style="stroke:#000000;stroke-width:1.0;"/><ellipse cx="527.5" cy="317.5938" fill="#000000" rx="3" ry="3" style="stroke:#000000;stroke-width:1.0;"/><path d="M379.5,282.5938 L392.5,282.5938 C434.5678,282.5938 482.8236,294.6479 508.3901,302.0158 " fill="none" style="stroke:#000000;stroke-width:1.0;stroke-dasharray:3.0,3.0;"/><path d="M507.5076,305.0026 L510.6302,302.6777 L509.2726,299.0291 L515.857,304.2221 L507.5076,305.0026 " fill="#000000" style="stroke:#000000;stroke-width:1.0;"/><ellipse cx="379.5" cy="282.5938" fill="#000000" rx="3" ry="3" style="stroke:#000000;stroke-width:1.0;"/><path d="M527.5,376.5938 L540.5,376.5938 C607.4585,376.5938 684.5862,376.5938 734.8173,376.5938 " fill="none" style="stroke:#000000;stroke-width:1.0;stroke-dasharray:3.0,3.0;"/><path d="M734.8173,379.601 L737.0728,376.5938 L734.8173,373.5865 L742.3355,376.5938 L734.8173,379.601 " fill="#000000" style="stroke:#000000;stroke-width:1.0;"/><ellipse cx="527.5" cy="376.5938" fill="#000000" rx="3" ry="3" style="stroke:#000000;stroke-width:1.0;"/><path d="M527.5,396.5938 L540.5,396.5938 C569.3547,396.5938 633.1571,411.901 688.8192,426.9218 " fill="none" style="stroke:#000000;stroke-width:1.0;stroke-dasharray:3.0,3.0;"/><path d="M688.0111,429.8995 L691.0524,427.5278 L689.6272,423.9441 L696.2634,428.9419 L688.0111,429.8995 " fill="#000000" style="stroke:#000000;stroke-width:1.0;"/><ellipse cx="527.5" cy="396.5938" fill="#000000" rx="3" ry="3" style="stroke:#000000;stroke-width:1.0;"/><path d="M379.5,302.5938 L392.5,302.5938 C414.6699,302.5938 410.8526,323.8588 429,336.5938 C454.9582,354.81 488.4532,370.504 508.662,379.2362 " fill="none" style="stroke:#000000;stroke-width:1.0;stroke-dasharray:3.0,3.0;"/><path d="M507.4634,382.0568 L510.7774,380.1352 L509.8607,376.4157 L515.7133,382.2328 L507.4634,382.0568 " fill="#000000" style="stroke:#000000;stroke-width:1.0;"/><ellipse cx="379.5" cy="302.5938" fill="#000000" rx="3" ry="3" style="stroke:#000000;stroke-width:1.0;"/><path d="M861.5,574.5938 L874.5,574.5938 C900.6721,574.5938 931.1493,574.5938 948.9363,574.5938 " fill="none" style="stroke:#000000;stroke-width:1.0;stroke-dasharray:3.0,3.0;"/><path d="M948.9363,577.6489 L951.2277,574.5938 L948.9363,571.5386 L956.5742,574.5938 L948.9363,577.6489 " fill="#000000" style="stroke:#000000;stroke-width:1.0;"/><ellipse cx="861.5" cy="574.5938" fill="#000000" rx="3" ry="3" style="stroke:#000000;stroke-width:1.0;"/><path d="M527.5,623.5938 L540.5,623.5938 C571.5379,623.5938 640.6789,600.8449 698.0915,579.7621 " fill="none" style="stroke:#000000;stroke-width:1.0;stroke-dasharray:3.0,3.0;"/><path d="M699.1691,582.6815 L700.281,578.9539 L697.0139,576.8428 L705.3899,577.0681 L699.1691,582.6815 " fill="#000000" style="stroke:#000000;stroke-width:1.0;"/><ellipse cx="527.5" cy="623.5938" fill="#000000" rx="3" ry="3" style="stroke:#000000;stroke-width:1.0;"/><path d="M963.6466,673.5938 L976.6466,673.5938 C983.7056,673.5938 993.6583,673.5938 1005.6254,673.5938 " fill="none" style="stroke:#000000;stroke-width:1.0;stroke-dasharray:3.0,3.0;"/><path d="M1005.6254,676.6752 L1007.9365,673.5938 L1005.6254,670.5123 L1013.329,673.5938 L1005.6254,676.6752 " fill="#000000" style="stroke:#000000;stroke-width:1.0;"/><ellipse cx="963.6466" cy="673.5938" fill="#000000" rx="3" ry="3" style="stroke:#000000;stroke-width:1.0;"/><path d="M881.5,673.5938 L894.5,673.5938 C911.8486,673.5938 931.6332,673.5938 945.6448,673.5938 " fill="none" style="stroke:#000000;stroke-width:1.0;stroke-dasharray:3.0,3.0;"/><path d="M945.6448,676.602 L947.901,673.5938 L945.6448,670.5855 L953.1655,673.5938 L945.6448,676.602 " fill="#000000" style="stroke:#000000;stroke-width:1.0;"/><ellipse cx="881.5" cy="673.5938" fill="#000000" rx="3" ry="3" style="stroke:#000000;stroke-width:1.0;"/><path d="M527.5,643.5938 L540.5,643.5938 C585.3816,643.5938 634.8321,643.5938 677.6891,643.5938 " fill="none" style="stroke:#000000;stroke-width:1.0;stroke-dasharray:3.0,3.0;"/><path d="M677.6891,646.6521 L679.9828,643.5938 L677.6891,640.5354 L685.3349,643.5938 L677.6891,646.6521 " fill="#000000" style="stroke:#000000;stroke-width:1.0;"/><ellipse cx="527.5" cy="643.5938" fill="#000000" rx="3" ry="3" style="stroke:#000000;stroke-width:1.0;"/><path d="M903.5,772.5938 L916.5,772.5938 C927.4859,772.5938 939.9011,772.5938 949.2829,772.5938 " fill="none" style="stroke:#000000;stroke-width:1.0;stroke-dasharray:3.0,3.0;"/><path d="M949.2829,775.6478 L951.5735,772.5938 L949.2829,769.5397 L956.9182,772.5938 L949.2829,775.6478 " fill="#000000" style="stroke:#000000;stroke-width:1.0;"/><ellipse cx="903.5" cy="772.5938" fill="#000000" rx="3" ry="3" style="stroke:#000000;stroke-width:1.0;"/><path d="M527.5,663.5938 L540.5,663.5938 C567.5813,663.5938 623.6702,680.9123 675.6664,699.332 " fill="none" style="stroke:#000000;stroke-width:1.0;stroke-dasharray:3.0,3.0;"/><path d="M674.6246,702.2545 L677.8583,700.1134 L676.7083,696.4094 L682.9727,701.9367 L674.6246,702.2545 " fill="#000000" style="stroke:#000000;stroke-width:1.0;"/><ellipse cx="527.5" cy="663.5938" fill="#000000" rx="3" ry="3" style="stroke:#000000;stroke-width:1.0;"/><path d="M963.6466,871.5938 L976.6466,871.5938 C986.177,871.5938 1000.982,871.5938 1018.8975,871.5938 " fill="none" style="stroke:#000000;stroke-width:1.0;stroke-dasharray:3.0,3.0;"/><path d="M1018.8975,874.7386 L1021.2562,871.5938 L1018.8975,868.4489 L1026.7597,871.5938 L1018.8975,874.7386 " fill="#000000" style="stroke:#000000;stroke-width:1.0;"/><ellipse cx="963.6466" cy="871.5938" fill="#000000" rx="3" ry="3" style="stroke:#000000;stroke-width:1.0;"/><path d="M859.5,871.5938 L872.5,871.5938 C897.8472,871.5938 927.144,871.5938 945.6198,871.5938 " fill="none" style="stroke:#000000;stroke-width:1.0;stroke-dasharray:3.0,3.0;"/><path d="M945.6198,874.6635 L947.9221,871.5938 L945.6198,868.524 L953.2941,871.5938 L945.6198,874.6635 " fill="#000000" style="stroke:#000000;stroke-width:1.0;"/><ellipse cx="859.5" cy="871.5938" fill="#000000" rx="3" ry="3" style="stroke:#000000;stroke-width:1.0;"/><path d="M527.5,683.5938 L540.5,683.5938 C613.0456,683.5938 600.1678,754.6511 662,792.5938 C673.602,799.7132 686.4132,806.1155 699.2961,811.7617 " fill="none" style="stroke:#000000;stroke-width:1.0;stroke-dasharray:3.0,3.0;"/><path d="M698.0727,814.6247 L701.4433,812.6793 L700.5196,808.8988 L706.4535,814.8204 L698.0727,814.6247 " fill="#000000" style="stroke:#000000;stroke-width:1.0;"/><ellipse cx="527.5" cy="683.5938" fill="#000000" rx="3" ry="3" style="stroke:#000000;stroke-width:1.0;"/><path d="M379.5,322.5938 L392.5,322.5938 C436.9028,322.5938 412.4722,374.3817 429,415.5938 C458.5812,489.3545 494.157,575.5897 513.0942,621.3024 " fill="none" style="stroke:#000000;stroke-width:1.0;stroke-dasharray:3.0,3.0;"/><path d="M510.302,622.4596 L513.9621,623.3966 L515.8864,620.1452 L515.9872,628.283 L510.302,622.4596 " fill="#000000" style="stroke:#000000;stroke-width:1.0;"/><ellipse cx="379.5" cy="322.5938" fill="#000000" rx="3" ry="3" style="stroke:#000000;stroke-width:1.0;"/><!--SRC=[fLLRRzfA47xthrZveKea8EiB920XbTk9GWcWc4IggihQue5iPNQjzPeMdUQ_dzarE6cWr_E2yJVVtFQRyRxDDLFwSow5ywz3YAjt6RWTucvP6YHSxs85cLJQhLaZtrYZJ_smJfjrtrjuViThTPgKd0r6qUAyv76H5JfUyTIoBnxb1YuWtVByOhCpQ6E9aHicwMj-VCW_GCOucarBGbND5bJEqSqKqMWsQ6NcnepmYgKvM31ZYcr0emF2fZV49FgdB8krJ16iUmrQAmrPoWHJ9aFY7yoqGRqZizWRVLhvveAzSA4Uea-s0fQcCIWbRGKVF1hKq2si4RVvzQkBZnO-FbfcmZJBGRzWjp4tQLCVQUsAjWAc2mLvRFhOSlXYcBQ8iZyZaTJCLD8Amrg5xS-qN_0quMBjLXPxS6WA_D12JxNJqRoZM95CEKxExW7Me9b6JMQVFiDI7yVs_38q_fPTP8flkERRt-h32zlqPFBaHAQ0Dd_QHd1y9WEvoMJEDKI5Mh4bd3YRu5Nz1nMEYxPyz_h-PXZtWvxNT7zNWd9sjIgWmfz7uUF9dbxawbrU-SUfPleHr42A7CCkZK0dSrRxyYhf7dbEQErBcO0T_g3s4auWNogUwVrcJcVJU3xfJNjtyNmsUN-DhyERQD6R3aOM7xdVUPUTB2LFkhQTgxvfAFQ-hK5kklHR_WXfYayZJpTyvIjMqdWd7BzZOWb4IxBYMaD2pCv2kSK-5jmaPxYZe0ohQy1pjmhqjF_tovCUNFf-wFxjClm_bLlDI_zF9-glr6rHxsVgzkzl9iERwVMyTxU8ujd3w6xIc_zGKLDq9UMRDnQpdSJ-7ZmjgB61LXnomXIGL2PT_tlcuG16fgiVQccsrdbodBSW4dlBENES2tr_Eo7xkuHu3NEVDLfd4TDaNAI4jWXjTxom4roH-yM06FEvStOzdv1S5Wgdp8oRufyASoRdpfXj6RahXBaUEsIMWHWFtnq0CX9RhgJOWD3E-E7scT0AwtskIOIVG53auTOPmeeLgKOFL08bxM3sV-fNpeI9TS7M61k4Cv0OL-tG5lq7]--></g></svg>