<?xml version="1.0" encoding="UTF-8" standalone="no"?><!DOCTYPE svg PUBLIC "-//W3C//DTD SVG 1.1//EN" "http://www.w3.org/Graphics/SVG/1.1/DTD/svg11.dtd"><svg width="100%" height="100%" viewBox="0 0 233 360" version="1.1" xmlns="http://www.w3.org/2000/svg" xmlns:xlink="http://www.w3.org/1999/xlink" xml:space="preserve" style="fill-rule:evenodd;clip-rule:evenodd;stroke-linejoin:round;stroke-miterlimit:10;"><g id="Trim"><path d="M13.066,56.96l-1.711,50.753l51.894,2.851l-3.422,-40.488l-26.074,-13.884l16,16l-16,0l0,-16l-20.688,0.768" style="fill:#e6e6e6;stroke:#000;stroke-width:0.8px;"/><path d="M88.527,56.86l-1.711,50.754l51.894,2.851l-3.422,-40.489l-46.761,-13.116Z" style="fill:#e6e6e6;"/><path d="M88.527,56.86l-1.711,50.753l51.894,2.851l-3.422,-40.488l-46.761,-13.116Z" style="fill:none;stroke:#000;stroke-width:0.8px;"/><path d="M90.327,56.86c0,-0.994 -0.806,-1.8 -1.8,-1.8c-0.994,0 -1.8,0.806 -1.8,1.8c0,0.994 0.806,1.8 1.8,1.8c0.994,0 1.8,-0.806 1.8,-1.8"/><path d="M88.616,107.613c0,-0.994 -0.806,-1.8 -1.8,-1.8c-0.994,0 -1.8,0.806 -1.8,1.8c0,0.994 0.806,1.8 1.8,1.8c0.994,0 1.8,-0.806 1.8,-1.8"/><path d="M140.51,110.464c0,-0.994 -0.806,-1.8 -1.8,-1.8c-0.994,0 -1.8,0.806 -1.8,1.8c0,0.994 0.806,1.8 1.8,1.8c0.994,0 1.8,-0.806 1.8,-1.8"/><path d="M137.088,69.976c0,-0.994 -0.806,-1.8 -1.8,-1.8c-0.994,0 -1.8,0.806 -1.8,1.8c0,0.994 0.806,1.8 1.8,1.8c0.994,0 1.8,-0.806 1.8,-1.8"/><path d="M146.241,59.914l-9.569,-8.637l-10.486,10.218l20.055,-1.581Z" style="fill:none;stroke:#ababab;stroke-width:0.8px;"/><path d="M138.472,51.277c0,-0.994 -0.806,-1.8 -1.8,-1.8c-0.994,0 -1.8,0.806 -1.8,1.8c0,0.994 0.806,1.8 1.8,1.8c0.994,0 1.8,-0.806 1.8,-1.8" style="fill:#ababab;"/><path d="M127.986,61.495c0,-0.994 -0.806,-1.8 -1.8,-1.8c-0.994,0 -1.8,0.806 -1.8,1.8c0,0.994 0.806,1.8 1.8,1.8c0.994,0 1.8,-0.806 1.8,-1.8" style="fill:#ababab;"/><path d="M148.041,59.914c0,-0.994 -0.806,-1.8 -1.8,-1.8c-0.994,0 -1.8,0.806 -1.8,1.8c0,0.994 0.806,1.8 1.8,1.8c0.994,0 1.8,-0.806 1.8,-1.8" style="fill:#ababab;"/><path d="M12.388,136.448l-1.711,50.754l51.894,2.851l-3.422,-40.489l-46.761,-13.116Z" style="fill:#e6e6e6;"/><path d="M12.388,136.449l-1.711,50.753l51.894,2.851l-3.422,-40.488l-46.761,-13.116Z" style="fill:none;stroke:#000;stroke-width:0.8px;"/><path d="M14.188,136.449c0,-0.995 -0.806,-1.8 -1.8,-1.8c-0.994,0 -1.8,0.805 -1.8,1.8c0,0.994 0.806,1.8 1.8,1.8c0.994,0 1.8,-0.806 1.8,-1.8"/><path d="M12.477,187.202c0,-0.995 -0.806,-1.8 -1.8,-1.8c-0.994,0 -1.8,0.805 -1.8,1.8c0,0.994 0.806,1.8 1.8,1.8c0.994,0 1.8,-0.806 1.8,-1.8"/><path d="M64.371,190.053c0,-0.995 -0.806,-1.8 -1.8,-1.8c-0.994,0 -1.8,0.805 -1.8,1.8c0,0.994 0.806,1.8 1.8,1.8c0.994,0 1.8,-0.806 1.8,-1.8"/><path d="M60.949,149.565c0,-0.995 -0.806,-1.8 -1.8,-1.8c-0.994,0 -1.8,0.805 -1.8,1.8c0,0.994 0.806,1.8 1.8,1.8c0.994,0 1.8,-0.806 1.8,-1.8"/><path d="M11.497,162.881l26.103,-19.361l6.465,16.972l-8.071,13.051l-24.497,-10.662Z" style="fill:#fff;stroke:#ababab;stroke-width:0.8px;"/><path d="M39.4,143.52c0,-0.994 -0.806,-1.8 -1.8,-1.8c-0.994,0 -1.8,0.806 -1.8,1.8c0,0.994 0.806,1.8 1.8,1.8c0.994,0 1.8,-0.806 1.8,-1.8" style="fill:#ababab;"/><path d="M13.297,162.881c0,-0.994 -0.806,-1.8 -1.8,-1.8c-0.994,0 -1.8,0.806 -1.8,1.8c0,0.994 0.806,1.8 1.8,1.8c0.994,0 1.8,-0.806 1.8,-1.8" style="fill:#ababab;"/><path d="M37.794,173.543c0,-0.994 -0.806,-1.8 -1.8,-1.8c-0.994,0 -1.8,0.806 -1.8,1.8c0,0.994 0.806,1.8 1.8,1.8c0.994,0 1.8,-0.806 1.8,-1.8" style="fill:#ababab;"/><path d="M45.865,160.492c0,-0.994 -0.806,-1.8 -1.8,-1.8c-0.994,0 -1.8,0.806 -1.8,1.8c0,0.994 0.806,1.8 1.8,1.8c0.994,0 1.8,-0.806 1.8,-1.8" style="fill:#ababab;"/><path d="M89.271,137.293l-1.711,50.754l51.894,2.851l-3.422,-40.489l-46.761,-13.116Z" style="fill:#e6e6e6;"/><path d="M89.271,137.294l-1.711,50.753l51.894,2.851l-3.422,-40.488l-46.761,-13.116Z" style="fill:none;stroke:#000;stroke-width:0.8px;"/><path d="M91.071,137.294c0,-0.994 -0.806,-1.8 -1.8,-1.8c-0.994,0 -1.8,0.806 -1.8,1.8c0,0.994 0.806,1.8 1.8,1.8c0.994,0 1.8,-0.806 1.8,-1.8"/><path d="M89.36,188.047c0,-0.994 -0.806,-1.8 -1.8,-1.8c-0.994,0 -1.8,0.806 -1.8,1.8c0,0.994 0.806,1.8 1.8,1.8c0.994,0 1.8,-0.806 1.8,-1.8"/><path d="M141.254,190.898c0,-0.994 -0.806,-1.8 -1.8,-1.8c-0.994,0 -1.8,0.806 -1.8,1.8c0,0.994 0.806,1.8 1.8,1.8c0.994,0 1.8,-0.806 1.8,-1.8"/><path d="M137.832,150.41c0,-0.994 -0.806,-1.8 -1.8,-1.8c-0.994,0 -1.8,0.806 -1.8,1.8c0,0.994 0.806,1.8 1.8,1.8c0.994,0 1.8,-0.806 1.8,-1.8"/><path d="M136.032,150.409l-9.331,-14.515" style="fill:#fff;stroke:#000;stroke-width:0.8px;"/><path d="M128.501,135.894c0,-0.994 -0.806,-1.8 -1.8,-1.8c-0.994,0 -1.8,0.806 -1.8,1.8c0,0.994 0.806,1.8 1.8,1.8c0.994,0 1.8,-0.806 1.8,-1.8"/><path d="M167.058,137.931l-1.711,50.754l51.894,2.851l-3.422,-40.489l-46.761,-13.116Z" style="fill:#e6e6e6;"/><path d="M167.058,137.931l-1.711,50.753l51.894,2.851l-3.422,-40.488l-46.761,-13.116Z" style="fill:none;stroke:#000;stroke-width:0.8px;"/><path d="M168.858,137.931c0,-0.994 -0.806,-1.8 -1.8,-1.8c-0.994,0 -1.8,0.806 -1.8,1.8c0,0.994 0.806,1.8 1.8,1.8c0.994,0 1.8,-0.806 1.8,-1.8"/><path d="M167.147,188.684c0,-0.994 -0.806,-1.8 -1.8,-1.8c-0.994,0 -1.8,0.806 -1.8,1.8c0,0.994 0.806,1.8 1.8,1.8c0.994,0 1.8,-0.806 1.8,-1.8"/><path d="M219.041,191.535c0,-0.994 -0.806,-1.8 -1.8,-1.8c-0.994,0 -1.8,0.806 -1.8,1.8c0,0.994 0.806,1.8 1.8,1.8c0.994,0 1.8,-0.806 1.8,-1.8"/><path d="M215.619,151.047c0,-0.994 -0.806,-1.8 -1.8,-1.8c-0.994,0 -1.8,0.806 -1.8,1.8c0,0.994 0.806,1.8 1.8,1.8c0.994,0 1.8,-0.806 1.8,-1.8"/><path d="M174.796,168.755l27.819,-6.869" style="fill:#fff;stroke:#ababab;stroke-width:0.8px;"/><path d="M176.596,168.755c0,-0.994 -0.806,-1.8 -1.8,-1.8c-0.994,0 -1.8,0.806 -1.8,1.8c0,0.994 0.806,1.8 1.8,1.8c0.994,0 1.8,-0.806 1.8,-1.8" style="fill:#ababab;"/><path d="M204.415,161.886c0,-0.994 -0.806,-1.8 -1.8,-1.8c-0.994,0 -1.8,0.806 -1.8,1.8c0,0.994 0.806,1.8 1.8,1.8c0.994,0 1.8,-0.806 1.8,-1.8" style="fill:#ababab;"/><path d="M11.254,217.513l-1.711,50.753l51.893,2.851l-3.421,-40.489l-46.761,-13.115Z" style="fill:#e6e6e6;stroke:#000;stroke-width:0.8px;"/><path d="M25.991,252.587l9.158,-6.547l5.715,1.263l3.717,-3.052l2.7,6.831l-5.277,8.223l-16.013,-6.718Z" style="fill:#fff;"/><path d="M13.054,217.513c0,-0.994 -0.806,-1.8 -1.8,-1.8c-0.994,0 -1.8,0.806 -1.8,1.8c0,0.995 0.806,1.8 1.8,1.8c0.994,0 1.8,-0.805 1.8,-1.8"/><path d="M11.343,268.266c0,-0.994 -0.806,-1.8 -1.8,-1.8c-0.994,0 -1.8,0.806 -1.8,1.8c0,0.995 0.806,1.8 1.8,1.8c0.994,0 1.8,-0.805 1.8,-1.8"/><path d="M63.237,271.117c0,-0.994 -0.806,-1.8 -1.8,-1.8c-0.994,0 -1.8,0.806 -1.8,1.8c0,0.995 0.806,1.8 1.8,1.8c0.994,0 1.8,-0.805 1.8,-1.8"/><path d="M59.815,230.629c0,-0.994 -0.806,-1.8 -1.8,-1.8c-0.994,0 -1.8,0.806 -1.8,1.8c0,0.995 0.806,1.8 1.8,1.8c0.994,0 1.8,-0.805 1.8,-1.8"/><path d="M19.145,242.503l23.143,-8.719l5.732,7.643l-7.156,5.877l-21.719,-4.801Z" style="fill:#fff;stroke:#ababab;stroke-width:0.8px;"/><path d="M44.088,233.784c0,-0.994 -0.806,-1.8 -1.8,-1.8c-0.994,0 -1.8,0.806 -1.8,1.8c0,0.995 0.806,1.8 1.8,1.8c0.994,0 1.8,-0.805 1.8,-1.8" style="fill:#ababab;"/><path d="M20.945,242.503c0,-0.994 -0.806,-1.8 -1.8,-1.8c-0.994,0 -1.8,0.806 -1.8,1.8c0,0.994 0.806,1.8 1.8,1.8c0.994,0 1.8,-0.806 1.8,-1.8" style="fill:#ababab;"/><path d="M42.664,247.304c0,-0.994 -0.806,-1.8 -1.8,-1.8c-0.994,0 -1.8,0.806 -1.8,1.8c0,0.995 0.806,1.8 1.8,1.8c0.994,0 1.8,-0.805 1.8,-1.8" style="fill:#ababab;"/><path d="M49.82,241.427c0,-0.994 -0.806,-1.8 -1.8,-1.8c-0.994,0 -1.8,0.806 -1.8,1.8c0,0.994 0.806,1.8 1.8,1.8c0.994,0 1.8,-0.806 1.8,-1.8" style="fill:#ababab;"/><path d="M25.991,252.589l17.064,-12.2l4.226,10.694l-5.276,8.224l-16.014,-6.718Z" style="fill:none;stroke:#ababab;stroke-width:0.8px;"/><path d="M44.855,240.389c0,-0.994 -0.806,-1.8 -1.8,-1.8c-0.994,0 -1.8,0.806 -1.8,1.8c0,0.994 0.806,1.8 1.8,1.8c0.994,0 1.8,-0.806 1.8,-1.8" style="fill:#ababab;"/><path d="M27.791,252.589c0,-0.995 -0.806,-1.8 -1.8,-1.8c-0.994,0 -1.8,0.805 -1.8,1.8c0,0.994 0.806,1.8 1.8,1.8c0.994,0 1.8,-0.806 1.8,-1.8" style="fill:#ababab;"/><path d="M43.805,259.307c0,-0.995 -0.806,-1.8 -1.8,-1.8c-0.994,0 -1.8,0.805 -1.8,1.8c0,0.994 0.806,1.8 1.8,1.8c0.994,0 1.8,-0.806 1.8,-1.8" style="fill:#ababab;"/><path d="M49.081,251.083c0,-0.994 -0.806,-1.8 -1.8,-1.8c-0.994,0 -1.8,0.806 -1.8,1.8c0,0.994 0.806,1.8 1.8,1.8c0.994,0 1.8,-0.806 1.8,-1.8" style="fill:#ababab;"/><path d="M42.664,247.303c0,-0.994 -0.806,-1.8 -1.8,-1.8c-0.994,0 -1.8,0.806 -1.8,1.8c0,0.995 0.806,1.8 1.8,1.8c0.994,0 1.8,-0.805 1.8,-1.8" style="fill:#ababab;"/><path d="M90.531,217.461l-1.711,50.753l51.894,2.851l-3.422,-40.489l-46.761,-13.115Z" style="fill:#e6e6e6;stroke:#000;stroke-width:0.8px;"/><path d="M92.331,217.46c0,-0.994 -0.806,-1.8 -1.8,-1.8c-0.994,0 -1.8,0.806 -1.8,1.8c0,0.994 0.806,1.8 1.8,1.8c0.994,0 1.8,-0.806 1.8,-1.8"/><path d="M90.62,268.213c0,-0.994 -0.806,-1.8 -1.8,-1.8c-0.994,0 -1.8,0.806 -1.8,1.8c0,0.994 0.806,1.8 1.8,1.8c0.994,0 1.8,-0.806 1.8,-1.8"/><path d="M142.514,271.064c0,-0.994 -0.806,-1.8 -1.8,-1.8c-0.994,0 -1.8,0.806 -1.8,1.8c0,0.994 0.806,1.8 1.8,1.8c0.994,0 1.8,-0.806 1.8,-1.8"/><path d="M139.092,230.576c0,-0.994 -0.806,-1.8 -1.8,-1.8c-0.994,0 -1.8,0.806 -1.8,1.8c0,0.994 0.806,1.8 1.8,1.8c0.994,0 1.8,-0.806 1.8,-1.8"/><path d="M103.02,220.963l-1.97,18.665l20.779,7.555l4.896,-19.571l-23.705,-6.649Z" style="fill:#fff;stroke:#ababab;stroke-width:0.8px;"/><path d="M104.82,220.963c0,-0.994 -0.806,-1.8 -1.8,-1.8c-0.994,0 -1.8,0.806 -1.8,1.8c0,0.994 0.806,1.8 1.8,1.8c0.994,0 1.8,-0.806 1.8,-1.8" style="fill:#ababab;"/><path d="M128.525,227.612c0,-0.994 -0.806,-1.8 -1.8,-1.8c-0.994,0 -1.8,0.806 -1.8,1.8c0,0.994 0.806,1.8 1.8,1.8c0.994,0 1.8,-0.806 1.8,-1.8" style="fill:#ababab;"/><path d="M123.629,247.183c0,-0.994 -0.806,-1.8 -1.8,-1.8c-0.994,0 -1.8,0.806 -1.8,1.8c0,0.994 0.806,1.8 1.8,1.8c0.994,0 1.8,-0.806 1.8,-1.8" style="fill:#ababab;"/><path d="M102.85,239.628c0,-0.994 -0.806,-1.8 -1.8,-1.8c-0.994,0 -1.8,0.806 -1.8,1.8c0,0.994 0.806,1.8 1.8,1.8c0.994,0 1.8,-0.806 1.8,-1.8" style="fill:#ababab;"/><path d="M169.755,216.94l-1.71,50.753l51.893,2.851l-3.421,-40.489l-46.762,-13.115Z" style="fill:#e6e6e6;stroke:#000;stroke-width:0.8px;"/><path d="M171.555,216.94c0,-0.994 -0.806,-1.8 -1.8,-1.8c-0.994,0 -1.8,0.806 -1.8,1.8c0,0.994 0.806,1.8 1.8,1.8c0.994,0 1.8,-0.806 1.8,-1.8"/><path d="M169.844,267.693c0,-0.994 -0.805,-1.8 -1.8,-1.8c-0.994,0 -1.8,0.806 -1.8,1.8c0,0.994 0.806,1.8 1.8,1.8c0.995,0 1.8,-0.806 1.8,-1.8"/><path d="M221.738,270.544c0,-0.994 -0.805,-1.8 -1.8,-1.8c-0.994,0 -1.8,0.806 -1.8,1.8c0,0.994 0.806,1.8 1.8,1.8c0.995,0 1.8,-0.806 1.8,-1.8"/><path d="M218.316,230.056c0,-0.994 -0.805,-1.8 -1.8,-1.8c-0.994,0 -1.8,0.806 -1.8,1.8c0,0.994 0.806,1.8 1.8,1.8c0.995,0 1.8,-0.806 1.8,-1.8"/><path d="M177.647,250.904l25.472,-17.693l6.309,15.51l-7.876,11.927l-23.905,-9.744Z" style="fill:#fff;stroke:#ababab;stroke-width:0.8px;"/><path d="M204.919,233.211c0,-0.994 -0.806,-1.8 -1.8,-1.8c-0.994,0 -1.8,0.806 -1.8,1.8c0,0.994 0.806,1.8 1.8,1.8c0.994,0 1.8,-0.806 1.8,-1.8" style="fill:#ababab;"/><path d="M179.447,250.904c0,-0.994 -0.805,-1.8 -1.8,-1.8c-0.994,0 -1.8,0.806 -1.8,1.8c0,0.994 0.806,1.8 1.8,1.8c0.995,0 1.8,-0.806 1.8,-1.8" style="fill:#ababab;"/><path d="M203.352,260.648c0,-0.994 -0.806,-1.8 -1.8,-1.8c-0.994,0 -1.8,0.806 -1.8,1.8c0,0.994 0.806,1.8 1.8,1.8c0.994,0 1.8,-0.806 1.8,-1.8" style="fill:#ababab;"/><path d="M211.228,248.721c0,-0.994 -0.806,-1.8 -1.8,-1.8c-0.994,0 -1.8,0.806 -1.8,1.8c0,0.994 0.806,1.8 1.8,1.8c0.994,0 1.8,-0.806 1.8,-1.8" style="fill:#ababab;"/><path d="M187.152,249.948l12.814,-8.454l3.566,8.322l-16.38,0.132Z" style="fill:#fff;stroke:#ababab;stroke-width:0.8px;"/><path d="M201.766,241.494c0,-0.994 -0.805,-1.8 -1.8,-1.8c-0.994,0 -1.8,0.806 -1.8,1.8c0,0.994 0.806,1.8 1.8,1.8c0.995,0 1.8,-0.806 1.8,-1.8" style="fill:#ababab;"/><path d="M188.952,249.948c0,-0.994 -0.805,-1.8 -1.8,-1.8c-0.994,0 -1.8,0.806 -1.8,1.8c0,0.994 0.806,1.8 1.8,1.8c0.995,0 1.8,-0.806 1.8,-1.8" style="fill:#ababab;"/><path d="M205.332,249.816c0,-0.994 -0.805,-1.8 -1.8,-1.8c-0.994,0 -1.8,0.806 -1.8,1.8c0,0.994 0.806,1.8 1.8,1.8c0.995,0 1.8,-0.806 1.8,-1.8" style="fill:#ababab;"/><rect x="168.144" y="75.858" width="32" height="32" style="fill:#e6e6e6;stroke:#000;stroke-width:0.8px;"/><rect x="184.144" y="59.859" width="32" height="32" style="fill:none;stroke:#ababab;stroke-width:0.8px;"/><path d="M185.944,59.858c0,-0.994 -0.806,-1.8 -1.8,-1.8c-0.994,0 -1.8,0.806 -1.8,1.8c0,0.995 0.806,1.8 1.8,1.8c0.994,0 1.8,-0.805 1.8,-1.8" style="fill:#ababab;"/><path d="M185.944,91.858c0,-0.994 -0.806,-1.8 -1.8,-1.8c-0.994,0 -1.8,0.806 -1.8,1.8c0,0.995 0.806,1.8 1.8,1.8c0.994,0 1.8,-0.805 1.8,-1.8" style="fill:#ababab;"/><path d="M217.944,91.858c0,-0.994 -0.806,-1.8 -1.8,-1.8c-0.994,0 -1.8,0.806 -1.8,1.8c0,0.995 0.806,1.8 1.8,1.8c0.994,0 1.8,-0.805 1.8,-1.8" style="fill:#ababab;"/><path d="M217.944,59.858c0,-0.994 -0.806,-1.8 -1.8,-1.8c-0.994,0 -1.8,0.806 -1.8,1.8c0,0.995 0.806,1.8 1.8,1.8c0.994,0 1.8,-0.805 1.8,-1.8" style="fill:#ababab;"/><path d="M169.944,75.858c0,-0.994 -0.806,-1.8 -1.8,-1.8c-0.994,0 -1.8,0.806 -1.8,1.8c0,0.995 0.806,1.8 1.8,1.8c0.994,0 1.8,-0.805 1.8,-1.8"/><path d="M169.944,107.858c0,-0.994 -0.806,-1.8 -1.8,-1.8c-0.994,0 -1.8,0.806 -1.8,1.8c0,0.995 0.806,1.8 1.8,1.8c0.994,0 1.8,-0.805 1.8,-1.8"/><path d="M201.944,107.858c0,-0.994 -0.806,-1.8 -1.8,-1.8c-0.994,0 -1.8,0.806 -1.8,1.8c0,0.995 0.806,1.8 1.8,1.8c0.994,0 1.8,-0.805 1.8,-1.8"/><path d="M201.944,75.858c0,-0.994 -0.806,-1.8 -1.8,-1.8c-0.994,0 -1.8,0.806 -1.8,1.8c0,0.995 0.806,1.8 1.8,1.8c0.994,0 1.8,-0.805 1.8,-1.8"/><path d="M178.922,295.465l-1.711,50.753l51.894,2.851l-3.422,-40.489l-46.761,-13.115Z" style="fill:#fff;stroke:#000;stroke-width:0.8px;"/><path d="M180.722,295.465c0,-0.994 -0.806,-1.8 -1.8,-1.8c-0.994,0 -1.8,0.806 -1.8,1.8c0,0.994 0.806,1.8 1.8,1.8c0.994,0 1.8,-0.806 1.8,-1.8"/><path d="M179.011,346.218c0,-0.994 -0.806,-1.8 -1.8,-1.8c-0.994,0 -1.8,0.806 -1.8,1.8c0,0.994 0.806,1.8 1.8,1.8c0.994,0 1.8,-0.806 1.8,-1.8"/><path d="M230.905,349.069c0,-0.994 -0.806,-1.8 -1.8,-1.8c-0.994,0 -1.8,0.806 -1.8,1.8c0,0.994 0.806,1.8 1.8,1.8c0.994,0 1.8,-0.806 1.8,-1.8"/><path d="M227.483,308.581c0,-0.994 -0.806,-1.8 -1.8,-1.8c-0.994,0 -1.8,0.806 -1.8,1.8c0,0.994 0.806,1.8 1.8,1.8c0.994,0 1.8,-0.806 1.8,-1.8"/><path d="M93.829,292.444l-1.711,50.753l51.894,2.851l-3.422,-40.488" style="fill:#e6e6e6;stroke:#000;stroke-width:0.8px;"/><path d="M95.629,292.444c0,-0.994 -0.806,-1.8 -1.8,-1.8c-0.994,0 -1.8,0.806 -1.8,1.8c0,0.994 0.806,1.8 1.8,1.8c0.994,0 1.8,-0.806 1.8,-1.8"/><path d="M93.918,343.197c0,-0.994 -0.806,-1.8 -1.8,-1.8c-0.994,0 -1.8,0.806 -1.8,1.8c0,0.994 0.806,1.8 1.8,1.8c0.994,0 1.8,-0.806 1.8,-1.8"/><path d="M145.812,346.048c0,-0.994 -0.806,-1.8 -1.8,-1.8c-0.994,0 -1.8,0.806 -1.8,1.8c0,0.994 0.806,1.8 1.8,1.8c0.994,0 1.8,-0.806 1.8,-1.8"/><path d="M142.39,305.56c0,-0.994 -0.806,-1.8 -1.8,-1.8c-0.994,0 -1.8,0.806 -1.8,1.8c0,0.994 0.806,1.8 1.8,1.8c0.994,0 1.8,-0.806 1.8,-1.8"/><path d="M4.492,294.981l12.123,44.507l48.491,-44.507l0,44.507l-60.614,-44.507" style="fill:#e6e6e6;stroke:#000;stroke-width:0.8px;"/><path d="M6.292,294.981c0,-0.994 -0.806,-1.8 -1.8,-1.8c-0.994,0 -1.8,0.806 -1.8,1.8c0,0.994 0.806,1.8 1.8,1.8c0.994,0 1.8,-0.806 1.8,-1.8"/><path d="M18.415,339.488c0,-0.994 -0.806,-1.8 -1.8,-1.8c-0.994,0 -1.8,0.806 -1.8,1.8c0,0.994 0.806,1.8 1.8,1.8c0.994,0 1.8,-0.806 1.8,-1.8"/><path d="M66.906,294.981c0,-0.994 -0.805,-1.8 -1.8,-1.8c-0.994,0 -1.8,0.806 -1.8,1.8c0,0.994 0.806,1.8 1.8,1.8c0.995,0 1.8,-0.806 1.8,-1.8"/><path d="M66.906,339.488c0,-0.994 -0.805,-1.8 -1.8,-1.8c-0.994,0 -1.8,0.806 -1.8,1.8c0,0.994 0.806,1.8 1.8,1.8c0.995,0 1.8,-0.806 1.8,-1.8"/><path d="M137.675,98.221l-9.569,-8.637l-10.486,10.218l20.055,-1.581Z" style="fill:#fff;stroke:#ababab;stroke-width:0.8px;"/><path d="M14.865,56.959c0,-0.994 -0.805,-1.8 -1.8,-1.8c-0.994,0 -1.799,0.806 -1.799,1.8c0,0.995 0.805,1.8 1.8,1.8c0.994,0 1.799,-0.805 1.799,-1.8"/><path d="M13.155,107.712c0,-0.994 -0.806,-1.8 -1.8,-1.8c-0.994,0 -1.8,0.806 -1.8,1.8c0,0.995 0.806,1.8 1.8,1.8c0.994,0 1.8,-0.805 1.8,-1.8"/><path d="M65.049,110.563c0,-0.994 -0.806,-1.8 -1.8,-1.8c-0.994,0 -1.8,0.806 -1.8,1.8c0,0.995 0.806,1.8 1.8,1.8c0.994,0 1.8,-0.805 1.8,-1.8"/><path d="M61.627,70.075c0,-0.994 -0.806,-1.8 -1.8,-1.8c-0.994,0 -1.8,0.806 -1.8,1.8c0,0.995 0.806,1.8 1.8,1.8c0.994,0 1.8,-0.805 1.8,-1.8"/><path d="M129.906,89.585c0,-0.994 -0.806,-1.8 -1.8,-1.8c-0.994,0 -1.8,0.806 -1.8,1.8c0,0.994 0.806,1.8 1.8,1.8c0.994,0 1.8,-0.806 1.8,-1.8" style="fill:#ababab;"/><path d="M119.42,99.803c0,-0.994 -0.806,-1.8 -1.8,-1.8c-0.994,0 -1.8,0.806 -1.8,1.8c0,0.994 0.806,1.8 1.8,1.8c0.994,0 1.8,-0.806 1.8,-1.8" style="fill:#ababab;"/><path d="M139.475,98.222c0,-0.994 -0.806,-1.8 -1.8,-1.8c-0.994,0 -1.8,0.806 -1.8,1.8c0,0.994 0.806,1.8 1.8,1.8c0.994,0 1.8,-0.806 1.8,-1.8" style="fill:#ababab;"/><path d="M35.553,56.192c0,-0.994 -0.806,-1.8 -1.8,-1.8c-0.994,0 -1.8,0.806 -1.8,1.8c0,0.994 0.806,1.8 1.8,1.8c0.994,0 1.8,-0.806 1.8,-1.8"/><path d="M35.553,72.192c0,-0.994 -0.806,-1.8 -1.8,-1.8c-0.994,0 -1.8,0.806 -1.8,1.8c0,0.994 0.806,1.8 1.8,1.8c0.994,0 1.8,-0.806 1.8,-1.8"/><path d="M51.553,72.192c0,-0.994 -0.806,-1.8 -1.8,-1.8c-0.994,0 -1.8,0.806 -1.8,1.8c0,0.994 0.806,1.8 1.8,1.8c0.994,0 1.8,-0.806 1.8,-1.8"/><rect x="8.401" y="5.86" width="221.162" height="40.448" style="fill:none;stroke:#000;stroke-width:0.8px;"/><path d="M22.923,13.95l-4.243,13.113l3.857,10.028l15.813,-0.386l5.4,-20.441l-20.827,-2.314Z" style="fill:#e6e6e6;stroke:#000;stroke-width:0.8px;"/><path d="M24.723,13.95c0,-0.994 -0.806,-1.8 -1.8,-1.8c-0.994,0 -1.8,0.806 -1.8,1.8c0,0.994 0.806,1.8 1.8,1.8c0.994,0 1.8,-0.806 1.8,-1.8"/><path d="M20.481,27.063c0,-0.994 -0.806,-1.8 -1.801,-1.8c-0.994,0 -1.8,0.806 -1.8,1.8c0,0.994 0.806,1.8 1.8,1.8c0.995,0 1.801,-0.806 1.801,-1.8"/><path d="M24.337,37.091c0,-0.994 -0.805,-1.8 -1.8,-1.8c-0.994,0 -1.8,0.806 -1.8,1.8c0,0.994 0.806,1.8 1.8,1.8c0.995,0 1.8,-0.806 1.8,-1.8"/><path d="M40.15,36.705c0,-0.994 -0.805,-1.8 -1.8,-1.8c-0.994,0 -1.8,0.806 -1.8,1.8c0,0.994 0.806,1.8 1.8,1.8c0.995,0 1.8,-0.806 1.8,-1.8"/><path d="M45.55,16.264c0,-0.994 -0.806,-1.8 -1.8,-1.8c-0.994,0 -1.8,0.806 -1.8,1.8c0,0.994 0.806,1.8 1.8,1.8c0.994,0 1.8,-0.806 1.8,-1.8"/><path d="M144.274,14.344l-4.187,12.942l3.806,9.896l15.606,-0.38l5.329,-20.174l-20.554,-2.284Z" style="fill:#fff;stroke:#9a9a9a;stroke-width:0.8px;"/><path d="M146.074,14.344c0,-0.994 -0.806,-1.8 -1.8,-1.8c-0.994,0 -1.8,0.806 -1.8,1.8c0,0.994 0.806,1.8 1.8,1.8c0.994,0 1.8,-0.806 1.8,-1.8" style="fill:#9a9a9a;"/><path d="M141.887,27.286c0,-0.994 -0.806,-1.8 -1.8,-1.8c-0.994,0 -1.8,0.806 -1.8,1.8c0,0.994 0.806,1.8 1.8,1.8c0.994,0 1.8,-0.806 1.8,-1.8" style="fill:#9a9a9a;"/><path d="M145.693,37.182c0,-0.994 -0.806,-1.8 -1.8,-1.8c-0.994,0 -1.8,0.806 -1.8,1.8c0,0.994 0.806,1.8 1.8,1.8c0.994,0 1.8,-0.806 1.8,-1.8" style="fill:#9a9a9a;"/><path d="M161.299,36.802c0,-0.994 -0.806,-1.8 -1.8,-1.8c-0.994,0 -1.8,0.806 -1.8,1.8c0,0.994 0.806,1.8 1.8,1.8c0.994,0 1.8,-0.806 1.8,-1.8" style="fill:#9a9a9a;"/><path d="M166.628,16.628c0,-0.994 -0.806,-1.8 -1.8,-1.8c-0.994,0 -1.8,0.806 -1.8,1.8c0,0.994 0.806,1.8 1.8,1.8c0.994,0 1.8,-0.806 1.8,-1.8" style="fill:#9a9a9a;"/><g transform="matrix(1,0,0,1,-56,-6)"><text x="163.673px" y="123.008px" style="font-family:'ArialMT', 'Arial', sans-serif;font-size:9.963px;">p</text><text x="168.664px" y="124.502px" style="font-family:'ArialMT', 'Arial', sans-serif;font-size:6.974px;">2</text></g><g transform="matrix(1,0,0,1,-56,-6)"><text x="87.534px" y="202.596px" style="font-family:'ArialMT', 'Arial', sans-serif;font-size:9.963px;">p</text><text x="92.525px" y="204.09px" style="font-family:'ArialMT', 'Arial', sans-serif;font-size:6.974px;">4</text></g><g transform="matrix(1,0,0,1,-56,-6)"><text x="164.417px" y="203.441px" style="font-family:'ArialMT', 'Arial', sans-serif;font-size:9.963px;">p</text><text x="169.408px" y="204.935px" style="font-family:'ArialMT', 'Arial', sans-serif;font-size:6.974px;">5</text></g><g transform="matrix(1,0,0,1,-56,-6)"><text x="242.204px" y="204.079px" style="font-family:'ArialMT', 'Arial', sans-serif;font-size:9.963px;">p</text><text x="247.195px" y="205.573px" style="font-family:'ArialMT', 'Arial', sans-serif;font-size:6.974px;">6</text></g><g transform="matrix(1,0,0,1,-56,-6)"><text x="86.4px" y="283.66px" style="font-family:'ArialMT', 'Arial', sans-serif;font-size:9.963px;">p</text><text x="91.39px" y="285.154px" style="font-family:'ArialMT', 'Arial', sans-serif;font-size:6.974px;">7</text></g><g transform="matrix(1,0,0,1,-56,-6)"><text x="165.677px" y="283.608px" style="font-family:'ArialMT', 'Arial', sans-serif;font-size:9.963px;">p</text><text x="170.668px" y="285.102px" style="font-family:'ArialMT', 'Arial', sans-serif;font-size:6.974px;">8</text></g><g transform="matrix(1,0,0,1,-56,-6)"><text x="244.901px" y="283.088px" style="font-family:'ArialMT', 'Arial', sans-serif;font-size:9.963px;">p</text><text x="249.892px" y="284.582px" style="font-family:'ArialMT', 'Arial', sans-serif;font-size:6.974px;">9</text></g><g transform="matrix(1,0,0,1,-56,-6)"><text x="240.947px" y="123.763px" style="font-family:'ArialMT', 'Arial', sans-serif;font-size:9.963px;">p</text><text x="245.938px" y="125.257px" style="font-family:'ArialMT', 'Arial', sans-serif;font-size:6.974px;">3</text></g><g transform="matrix(1,0,0,1,-56,-6)"><text x="254.597px" y="361.965px" style="font-family:'ArialMT', 'Arial', sans-serif;font-size:9.963px;">p</text><text x="259.588px" y="363.459px" style="font-family:'ArialMT', 'Arial', sans-serif;font-size:6.974px;">1<tspan x="263.566px " y="363.459px ">2</tspan></text></g><g transform="matrix(1,0,0,1,-56,-6)"><text x="168.975px" y="358.591px" style="font-family:'ArialMT', 'Arial', sans-serif;font-size:9.963px;">p</text><text x="173.966px" y="360.085px" style="font-family:'ArialMT', 'Arial', sans-serif;font-size:6.974px;">11</text></g><g transform="matrix(1,0,0,1,-56,-6)"><text x="87.141px" y="356.346px" style="font-family:'ArialMT', 'Arial', sans-serif;font-size:9.963px;">p</text><text x="92.132px" y="357.84px" style="font-family:'ArialMT', 'Arial', sans-serif;font-size:6.974px;">10</text></g><g transform="matrix(1,0,0,1,-56,-6)"><text x="88.212px" y="123.107px" style="font-family:'ArialMT', 'Arial', sans-serif;font-size:9.963px;">p</text><text x="93.202px" y="124.601px" style="font-family:'ArialMT', 'Arial', sans-serif;font-size:6.974px;">1</text></g><g transform="matrix(1,0,0,1,-56,-6)"><text x="106.948px" y="29.15px" style="font-family:'GTPressuraMono-Light', 'GT Pressura Mono';font-weight:300;font-size:9.963px;">e</text><text x="111.327px" y="29.15px" style="font-family:'GTPressuraMono-Light', 'GT Pressura Mono';font-weight:300;font-size:9.963px;">x</text><text x="117.057px" y="29.15px" style="font-family:'GTPressuraMono-Light', 'GT Pressura Mono';font-weight:300;font-size:9.963px;">t</text><text x="123.636px" y="29.15px" style="font-family:'GTPressuraMono-Light', 'GT Pressura Mono';font-weight:300;font-size:9.963px;">e</text><text x="128.016px" y="29.15px" style="font-family:'GTPressuraMono-Light', 'GT Pressura Mono';font-weight:300;font-size:9.963px;">r<tspan x="134.095px " y="29.15px ">i</tspan></text><text x="140.175px" y="29.15px" style="font-family:'GTPressuraMono-Light', 'GT Pressura Mono';font-weight:300;font-size:9.963px;">o</text><text x="145.054px" y="29.15px" style="font-family:'GTPressuraMono-Light', 'GT Pressura Mono';font-weight:300;font-size:9.963px;">r</text><text x="106.948px" y="41.105px" style="font-family:'GTPressuraMono-Light', 'GT Pressura Mono';font-weight:300;font-size:9.963px;">b</text><text x="112.677px" y="41.105px" style="font-family:'GTPressuraMono-Light', 'GT Pressura Mono';font-weight:300;font-size:9.963px;">o</text><text x="117.607px" y="41.105px" style="font-family:'GTPressuraMono-Light', 'GT Pressura Mono';font-weight:300;font-size:9.963px;">und</text><text x="134.045px" y="41.105px" style="font-family:'GTPressuraMono-Light', 'GT Pressura Mono';font-weight:300;font-size:9.963px;">a</text><text x="138.975px" y="41.105px" style="font-family:'GTPressuraMono-Light', 'GT Pressura Mono';font-weight:300;font-size:9.963px;">r</text><text x="145.004px" y="41.105px" style="font-family:'GTPressuraMono-Light', 'GT Pressura Mono';font-weight:300;font-size:9.963px;">y</text></g><g transform="matrix(1,0,0,1,-56,-6)"><text x="226.321px" y="29.447px" style="font-family:'GTPressuraMono-Light', 'GT Pressura Mono';font-weight:300;font-size:9.963px;">i</text><text x="232.4px" y="29.447px" style="font-family:'GTPressuraMono-Light', 'GT Pressura Mono';font-weight:300;font-size:9.963px;">n</text><text x="237.53px" y="29.447px" style="font-family:'GTPressuraMono-Light', 'GT Pressura Mono';font-weight:300;font-size:9.963px;">t</text><text x="244.159px" y="29.447px" style="font-family:'GTPressuraMono-Light', 'GT Pressura Mono';font-weight:300;font-size:9.963px;">e</text><text x="248.489px" y="29.447px" style="font-family:'GTPressuraMono-Light', 'GT Pressura Mono';font-weight:300;font-size:9.963px;">r<tspan x="254.568px " y="29.447px ">i</tspan></text><text x="260.648px" y="29.447px" style="font-family:'GTPressuraMono-Light', 'GT Pressura Mono';font-weight:300;font-size:9.963px;">o</text><text x="265.527px" y="29.447px" style="font-family:'GTPressuraMono-Light', 'GT Pressura Mono';font-weight:300;font-size:9.963px;">r</text><text x="226.321px" y="41.402px" style="font-family:'GTPressuraMono-Light', 'GT Pressura Mono';font-weight:300;font-size:9.963px;">b</text><text x="232.05px" y="41.402px" style="font-family:'GTPressuraMono-Light', 'GT Pressura Mono';font-weight:300;font-size:9.963px;">o</text><text x="236.98px" y="41.402px" style="font-family:'GTPressuraMono-Light', 'GT Pressura Mono';font-weight:300;font-size:9.963px;">und</text><text x="253.418px" y="41.402px" style="font-family:'GTPressuraMono-Light', 'GT Pressura Mono';font-weight:300;font-size:9.963px;">a</text><text x="258.348px" y="41.402px" style="font-family:'GTPressuraMono-Light', 'GT Pressura Mono';font-weight:300;font-size:9.963px;">r</text><text x="264.377px" y="41.402px" style="font-family:'GTPressuraMono-Light', 'GT Pressura Mono';font-weight:300;font-size:9.963px;">y</text></g></g></svg>